<mxfile host="app.diagrams.net" modified="2021-08-30T04:10:44.358Z" agent="5.0 (Macintosh; Intel Mac OS X 10_15_7) AppleWebKit/537.36 (KHTML, like Gecko) Chrome/92.0.4515.159 Safari/537.36" etag="KcABJt9A90J3eTyTsQjm" version="15.0.3" type="github">
  <diagram id="C5RBs43oDa-KdzZeNtuy" name="Page-1">
    <mxGraphModel dx="1042" dy="678" grid="1" gridSize="10" guides="1" tooltips="1" connect="1" arrows="1" fold="1" page="1" pageScale="1" pageWidth="1654" pageHeight="2336" math="0" shadow="0">
      <root>
        <mxCell id="WIyWlLk6GJQsqaUBKTNV-0" />
        <mxCell id="WIyWlLk6GJQsqaUBKTNV-1" parent="WIyWlLk6GJQsqaUBKTNV-0" />
        <mxCell id="3x0Ic-4T67xjW6-SUjAH-5" value="Choosing a database&amp;nbsp;" style="text;html=1;align=center;verticalAlign=middle;resizable=0;points=[];autosize=1;strokeColor=#9673a6;fillColor=#e1d5e7;fontSize=28;" parent="WIyWlLk6GJQsqaUBKTNV-1" vertex="1">
          <mxGeometry x="260" y="30" width="290" height="40" as="geometry" />
        </mxCell>
        <mxCell id="3x0Ic-4T67xjW6-SUjAH-8" style="edgeStyle=orthogonalEdgeStyle;rounded=0;orthogonalLoop=1;jettySize=auto;html=1;exitX=1;exitY=1;exitDx=0;exitDy=0;fontSize=28;" parent="WIyWlLk6GJQsqaUBKTNV-1" source="3x0Ic-4T67xjW6-SUjAH-7" edge="1">
          <mxGeometry relative="1" as="geometry">
            <mxPoint x="600" y="290" as="targetPoint" />
            <Array as="points">
              <mxPoint x="580" y="245" />
              <mxPoint x="580" y="290" />
            </Array>
          </mxGeometry>
        </mxCell>
        <mxCell id="3x0Ic-4T67xjW6-SUjAH-10" style="edgeStyle=orthogonalEdgeStyle;rounded=0;orthogonalLoop=1;jettySize=auto;html=1;exitX=0;exitY=1;exitDx=0;exitDy=0;fontSize=28;" parent="WIyWlLk6GJQsqaUBKTNV-1" source="3x0Ic-4T67xjW6-SUjAH-7" edge="1">
          <mxGeometry relative="1" as="geometry">
            <mxPoint x="150" y="290" as="targetPoint" />
          </mxGeometry>
        </mxCell>
        <mxCell id="3x0Ic-4T67xjW6-SUjAH-7" value="&lt;p&gt;&lt;sup&gt;&lt;font style=&quot;font-size: 16px ; line-height: 10%&quot;&gt;Prototype or Production&lt;/font&gt;&lt;/sup&gt;&lt;/p&gt;" style="ellipse;whiteSpace=wrap;html=1;aspect=fixed;fontSize=28;strokeColor=#d6b656;fillColor=#fff2cc;textDirection=ltr;spacing=0;" parent="WIyWlLk6GJQsqaUBKTNV-1" vertex="1">
          <mxGeometry x="340" y="160" width="100" height="100" as="geometry" />
        </mxCell>
        <mxCell id="3x0Ic-4T67xjW6-SUjAH-16" value="" style="edgeStyle=orthogonalEdgeStyle;rounded=0;orthogonalLoop=1;jettySize=auto;html=1;fontSize=28;" parent="WIyWlLk6GJQsqaUBKTNV-1" source="3x0Ic-4T67xjW6-SUjAH-9" target="3x0Ic-4T67xjW6-SUjAH-15" edge="1">
          <mxGeometry relative="1" as="geometry" />
        </mxCell>
        <mxCell id="3x0Ic-4T67xjW6-SUjAH-9" value="&lt;font style=&quot;font-size: 18px&quot;&gt;Production&lt;/font&gt;" style="text;html=1;align=center;verticalAlign=middle;resizable=0;points=[];autosize=1;strokeColor=#666666;fontSize=28;fillColor=#f5f5f5;fontColor=#333333;" parent="WIyWlLk6GJQsqaUBKTNV-1" vertex="1">
          <mxGeometry x="530" y="290" width="100" height="40" as="geometry" />
        </mxCell>
        <mxCell id="3x0Ic-4T67xjW6-SUjAH-13" style="edgeStyle=orthogonalEdgeStyle;rounded=0;orthogonalLoop=1;jettySize=auto;html=1;fontSize=28;entryX=0.5;entryY=0;entryDx=0;entryDy=0;entryPerimeter=0;" parent="WIyWlLk6GJQsqaUBKTNV-1" source="3x0Ic-4T67xjW6-SUjAH-11" edge="1">
          <mxGeometry relative="1" as="geometry">
            <mxPoint x="145" y="400" as="targetPoint" />
          </mxGeometry>
        </mxCell>
        <mxCell id="3x0Ic-4T67xjW6-SUjAH-11" value="&lt;font style=&quot;font-size: 18px&quot;&gt;Prototype&lt;/font&gt;" style="text;html=1;align=center;verticalAlign=middle;resizable=0;points=[];autosize=1;strokeColor=#666666;fontSize=28;fillColor=#f5f5f5;fontColor=#333333;" parent="WIyWlLk6GJQsqaUBKTNV-1" vertex="1">
          <mxGeometry x="100" y="290" width="90" height="40" as="geometry" />
        </mxCell>
        <mxCell id="3x0Ic-4T67xjW6-SUjAH-17" style="edgeStyle=orthogonalEdgeStyle;rounded=0;orthogonalLoop=1;jettySize=auto;html=1;exitX=0.145;exitY=0.855;exitDx=0;exitDy=0;exitPerimeter=0;fontSize=28;" parent="WIyWlLk6GJQsqaUBKTNV-1" source="3x0Ic-4T67xjW6-SUjAH-15" edge="1">
          <mxGeometry relative="1" as="geometry">
            <mxPoint x="380" y="580" as="targetPoint" />
          </mxGeometry>
        </mxCell>
        <mxCell id="3x0Ic-4T67xjW6-SUjAH-19" style="edgeStyle=orthogonalEdgeStyle;rounded=0;orthogonalLoop=1;jettySize=auto;html=1;exitX=0.855;exitY=0.855;exitDx=0;exitDy=0;exitPerimeter=0;fontSize=28;" parent="WIyWlLk6GJQsqaUBKTNV-1" source="3x0Ic-4T67xjW6-SUjAH-15" edge="1">
          <mxGeometry relative="1" as="geometry">
            <mxPoint x="940" y="520" as="targetPoint" />
            <Array as="points">
              <mxPoint x="940" y="476" />
              <mxPoint x="940" y="520" />
            </Array>
          </mxGeometry>
        </mxCell>
        <mxCell id="3x0Ic-4T67xjW6-SUjAH-15" value="&lt;font style=&quot;font-size: 15px&quot;&gt;Need Relations?&lt;/font&gt;" style="strokeWidth=2;html=1;shape=mxgraph.flowchart.start_2;whiteSpace=wrap;fontSize=28;fillColor=#ffe6cc;strokeColor=#d79b00;" parent="WIyWlLk6GJQsqaUBKTNV-1" vertex="1">
          <mxGeometry x="530" y="390" width="100" height="100" as="geometry" />
        </mxCell>
        <mxCell id="3x0Ic-4T67xjW6-SUjAH-18" value="&lt;font style=&quot;font-size: 18px&quot;&gt;Yes&lt;/font&gt;" style="text;html=1;align=center;verticalAlign=middle;resizable=0;points=[];autosize=1;strokeColor=none;fontSize=28;" parent="WIyWlLk6GJQsqaUBKTNV-1" vertex="1">
          <mxGeometry x="440" y="440" width="40" height="40" as="geometry" />
        </mxCell>
        <mxCell id="3x0Ic-4T67xjW6-SUjAH-20" value="&lt;font style=&quot;font-size: 18px&quot;&gt;No&lt;/font&gt;" style="text;html=1;align=center;verticalAlign=middle;resizable=0;points=[];autosize=1;strokeColor=none;fontSize=28;" parent="WIyWlLk6GJQsqaUBKTNV-1" vertex="1">
          <mxGeometry x="650" y="440" width="40" height="40" as="geometry" />
        </mxCell>
        <mxCell id="3x0Ic-4T67xjW6-SUjAH-22" style="edgeStyle=orthogonalEdgeStyle;rounded=0;orthogonalLoop=1;jettySize=auto;html=1;exitX=0;exitY=0.5;exitDx=0;exitDy=0;exitPerimeter=0;fontSize=28;" parent="WIyWlLk6GJQsqaUBKTNV-1" source="3x0Ic-4T67xjW6-SUjAH-21" edge="1">
          <mxGeometry relative="1" as="geometry">
            <mxPoint x="100" y="460" as="targetPoint" />
            <Array as="points">
              <mxPoint x="60" y="630" />
              <mxPoint x="60" y="460" />
            </Array>
          </mxGeometry>
        </mxCell>
        <mxCell id="3x0Ic-4T67xjW6-SUjAH-24" style="edgeStyle=orthogonalEdgeStyle;rounded=0;orthogonalLoop=1;jettySize=auto;html=1;exitX=0.5;exitY=1;exitDx=0;exitDy=0;exitPerimeter=0;fontSize=28;" parent="WIyWlLk6GJQsqaUBKTNV-1" source="3x0Ic-4T67xjW6-SUjAH-21" edge="1">
          <mxGeometry relative="1" as="geometry">
            <mxPoint x="260" y="860" as="targetPoint" />
          </mxGeometry>
        </mxCell>
        <mxCell id="3x0Ic-4T67xjW6-SUjAH-21" value="&lt;font style=&quot;font-size: 16px&quot;&gt;Unmanaged or managed&lt;/font&gt;" style="strokeWidth=2;html=1;shape=mxgraph.flowchart.start_2;whiteSpace=wrap;fontSize=28;fillColor=#ffe6cc;strokeColor=#d79b00;" parent="WIyWlLk6GJQsqaUBKTNV-1" vertex="1">
          <mxGeometry x="330" y="580" width="100" height="100" as="geometry" />
        </mxCell>
        <mxCell id="3x0Ic-4T67xjW6-SUjAH-23" value="&lt;font style=&quot;font-size: 18px&quot;&gt;Unmanaged&lt;/font&gt;" style="text;html=1;align=center;verticalAlign=middle;resizable=0;points=[];autosize=1;strokeColor=none;fontSize=28;" parent="WIyWlLk6GJQsqaUBKTNV-1" vertex="1">
          <mxGeometry x="85" y="590" width="110" height="40" as="geometry" />
        </mxCell>
        <mxCell id="3x0Ic-4T67xjW6-SUjAH-25" value="&lt;font style=&quot;font-size: 18px&quot;&gt;Managed&lt;/font&gt;" style="text;html=1;align=center;verticalAlign=middle;resizable=0;points=[];autosize=1;strokeColor=none;fontSize=28;" parent="WIyWlLk6GJQsqaUBKTNV-1" vertex="1">
          <mxGeometry x="270" y="730" width="90" height="40" as="geometry" />
        </mxCell>
        <mxCell id="3x0Ic-4T67xjW6-SUjAH-28" style="edgeStyle=orthogonalEdgeStyle;rounded=0;orthogonalLoop=1;jettySize=auto;html=1;exitX=0.145;exitY=0.855;exitDx=0;exitDy=0;exitPerimeter=0;fontSize=28;" parent="WIyWlLk6GJQsqaUBKTNV-1" source="3x0Ic-4T67xjW6-SUjAH-27" edge="1">
          <mxGeometry relative="1" as="geometry">
            <mxPoint x="90" y="1000" as="targetPoint" />
          </mxGeometry>
        </mxCell>
        <mxCell id="3x0Ic-4T67xjW6-SUjAH-29" style="edgeStyle=orthogonalEdgeStyle;rounded=0;orthogonalLoop=1;jettySize=auto;html=1;exitX=0.855;exitY=0.855;exitDx=0;exitDy=0;exitPerimeter=0;fontSize=28;" parent="WIyWlLk6GJQsqaUBKTNV-1" source="3x0Ic-4T67xjW6-SUjAH-27" edge="1">
          <mxGeometry relative="1" as="geometry">
            <mxPoint x="400" y="1000" as="targetPoint" />
          </mxGeometry>
        </mxCell>
        <mxCell id="3x0Ic-4T67xjW6-SUjAH-27" value="&lt;font style=&quot;font-size: 18px&quot;&gt;Consistent Traffic&lt;/font&gt;" style="strokeWidth=2;html=1;shape=mxgraph.flowchart.start_2;whiteSpace=wrap;fontSize=28;fillColor=#ffe6cc;strokeColor=#d79b00;" parent="WIyWlLk6GJQsqaUBKTNV-1" vertex="1">
          <mxGeometry x="210" y="860" width="100" height="100" as="geometry" />
        </mxCell>
        <mxCell id="3x0Ic-4T67xjW6-SUjAH-30" value="&lt;font style=&quot;font-size: 18px&quot;&gt;Yes&lt;/font&gt;" style="text;html=1;align=center;verticalAlign=middle;resizable=0;points=[];autosize=1;strokeColor=none;fontSize=28;" parent="WIyWlLk6GJQsqaUBKTNV-1" vertex="1">
          <mxGeometry x="130" y="910" width="40" height="40" as="geometry" />
        </mxCell>
        <mxCell id="3x0Ic-4T67xjW6-SUjAH-31" value="&lt;font style=&quot;font-size: 18px&quot;&gt;No&lt;/font&gt;" style="text;html=1;align=center;verticalAlign=middle;resizable=0;points=[];autosize=1;strokeColor=none;fontSize=28;" parent="WIyWlLk6GJQsqaUBKTNV-1" vertex="1">
          <mxGeometry x="340" y="910" width="40" height="40" as="geometry" />
        </mxCell>
        <mxCell id="3x0Ic-4T67xjW6-SUjAH-32" value="" style="shape=image;imageAspect=0;aspect=fixed;verticalLabelPosition=bottom;verticalAlign=top;fontSize=28;fillColor=none;gradientColor=#ffffff;image=https://p2zk82o7hr3yb6ge7gzxx4ki-wpengine.netdna-ssl.com/wp-content/uploads/Amazon-RDS-1.png;imageBorder=#000000;dashed=1;" parent="WIyWlLk6GJQsqaUBKTNV-1" vertex="1">
          <mxGeometry x="100" y="400" width="120" height="75" as="geometry" />
        </mxCell>
        <mxCell id="3x0Ic-4T67xjW6-SUjAH-33" value="&lt;p&gt;&lt;font style=&quot;font-size: 11px ; line-height: 10%&quot;&gt;MySql or Postgres&lt;/font&gt;&lt;/p&gt;" style="text;html=1;align=center;verticalAlign=middle;resizable=0;points=[];autosize=1;strokeColor=none;fontSize=28;" parent="WIyWlLk6GJQsqaUBKTNV-1" vertex="1">
          <mxGeometry x="105" y="430" width="110" height="100" as="geometry" />
        </mxCell>
        <mxCell id="3x0Ic-4T67xjW6-SUjAH-34" value="" style="shape=image;imageAspect=0;aspect=fixed;verticalLabelPosition=bottom;verticalAlign=top;dashed=1;fontSize=28;fillColor=none;gradientColor=#ffffff;image=https://42vnof42im1n3ecs8l2w7ez1-wpengine.netdna-ssl.com/wp-content/uploads/2020/07/Amazon-Aurora@4x.png;" parent="WIyWlLk6GJQsqaUBKTNV-1" vertex="1">
          <mxGeometry x="360" y="1000" width="70" height="70" as="geometry" />
        </mxCell>
        <mxCell id="3x0Ic-4T67xjW6-SUjAH-35" value="&lt;font style=&quot;font-size: 11px&quot;&gt;Aurora Rds Serverless&lt;/font&gt;" style="text;html=1;align=center;verticalAlign=middle;resizable=0;points=[];autosize=1;strokeColor=none;fontSize=28;" parent="WIyWlLk6GJQsqaUBKTNV-1" vertex="1">
          <mxGeometry x="330" y="1050" width="130" height="50" as="geometry" />
        </mxCell>
        <mxCell id="3x0Ic-4T67xjW6-SUjAH-36" value="" style="shape=image;imageAspect=0;aspect=fixed;verticalLabelPosition=bottom;verticalAlign=top;dashed=1;fontSize=28;fillColor=none;gradientColor=#ffffff;image=https://42vnof42im1n3ecs8l2w7ez1-wpengine.netdna-ssl.com/wp-content/uploads/2020/07/Amazon-Aurora@4x.png;" parent="WIyWlLk6GJQsqaUBKTNV-1" vertex="1">
          <mxGeometry x="60" y="1000" width="70" height="70" as="geometry" />
        </mxCell>
        <mxCell id="3x0Ic-4T67xjW6-SUjAH-37" value="&lt;font style=&quot;font-size: 11px&quot;&gt;Aurora Rds&lt;/font&gt;" style="text;html=1;align=center;verticalAlign=middle;resizable=0;points=[];autosize=1;strokeColor=none;fontSize=28;" parent="WIyWlLk6GJQsqaUBKTNV-1" vertex="1">
          <mxGeometry x="60" y="1050" width="70" height="50" as="geometry" />
        </mxCell>
        <mxCell id="3x0Ic-4T67xjW6-SUjAH-40" style="edgeStyle=orthogonalEdgeStyle;rounded=0;orthogonalLoop=1;jettySize=auto;html=1;exitX=0.145;exitY=0.855;exitDx=0;exitDy=0;exitPerimeter=0;fontSize=28;" parent="WIyWlLk6GJQsqaUBKTNV-1" source="3x0Ic-4T67xjW6-SUjAH-38" edge="1">
          <mxGeometry relative="1" as="geometry">
            <mxPoint x="720" y="660" as="targetPoint" />
          </mxGeometry>
        </mxCell>
        <mxCell id="3x0Ic-4T67xjW6-SUjAH-41" style="edgeStyle=orthogonalEdgeStyle;rounded=0;orthogonalLoop=1;jettySize=auto;html=1;exitX=0.855;exitY=0.855;exitDx=0;exitDy=0;exitPerimeter=0;fontSize=28;" parent="WIyWlLk6GJQsqaUBKTNV-1" source="3x0Ic-4T67xjW6-SUjAH-38" edge="1">
          <mxGeometry relative="1" as="geometry">
            <mxPoint x="1170" y="660" as="targetPoint" />
          </mxGeometry>
        </mxCell>
        <mxCell id="3x0Ic-4T67xjW6-SUjAH-38" value="&lt;font style=&quot;font-size: 14px&quot;&gt;Need text based search&lt;/font&gt;" style="strokeWidth=2;html=1;shape=mxgraph.flowchart.start_2;whiteSpace=wrap;fontSize=28;fillColor=#ffe6cc;strokeColor=#d79b00;" parent="WIyWlLk6GJQsqaUBKTNV-1" vertex="1">
          <mxGeometry x="890" y="520" width="100" height="100" as="geometry" />
        </mxCell>
        <mxCell id="3x0Ic-4T67xjW6-SUjAH-42" value="&lt;font style=&quot;font-size: 18px&quot;&gt;Yes&lt;/font&gt;" style="text;html=1;align=center;verticalAlign=middle;resizable=0;points=[];autosize=1;strokeColor=none;fontSize=28;" parent="WIyWlLk6GJQsqaUBKTNV-1" vertex="1">
          <mxGeometry x="770" y="570" width="40" height="40" as="geometry" />
        </mxCell>
        <mxCell id="3x0Ic-4T67xjW6-SUjAH-43" value="&lt;font style=&quot;font-size: 18px&quot;&gt;No&lt;/font&gt;" style="text;html=1;align=center;verticalAlign=middle;resizable=0;points=[];autosize=1;strokeColor=none;fontSize=28;" parent="WIyWlLk6GJQsqaUBKTNV-1" vertex="1">
          <mxGeometry x="1070" y="570" width="40" height="40" as="geometry" />
        </mxCell>
        <mxCell id="3x0Ic-4T67xjW6-SUjAH-45" value="&lt;font style=&quot;font-size: 14px&quot;&gt;Elastic Search or cloud search&lt;/font&gt;" style="rounded=1;whiteSpace=wrap;html=1;absoluteArcSize=1;arcSize=14;strokeWidth=2;fontSize=28;fillColor=#fff2cc;strokeColor=#d6b656;" parent="WIyWlLk6GJQsqaUBKTNV-1" vertex="1">
          <mxGeometry x="660" y="660" width="120" height="70" as="geometry" />
        </mxCell>
        <mxCell id="3x0Ic-4T67xjW6-SUjAH-46" value="" style="shape=image;imageAspect=0;aspect=fixed;verticalLabelPosition=bottom;verticalAlign=top;fontSize=28;fillColor=none;gradientColor=#ffffff;image=data:image/png,iVBORw0KGgoAAAANSUhEUgAAAOEAAADhCAMAAAAJbSJIAAAA+VBMVEX////1hTWdUCSXTCPnfTL7v5NrORj5hzX1fyX6zLPVci/0exr+8emxZDW+ajWaTiPddzCaSBPGoI+ZRgbbxLr4s4rk1Mz6wqL+9fCXQQD1gSz7vpD94tD7u4ugVixlNRZ+RBxhJwD8z7CiWzRlLwBpNRF4TTRfIQDQxL6pk4f718OYSRr5rnr4p3D6tIP2kk73oGX2i0Hkbwft4dv0eQ54QyBoOx6dXC/MdDdcMBSKUi3ngzzYfDu3hGzPr6Gqa0t4OAB5TjaNTyWTNgBbGADVu7Hcs5770by/k3+mYjy8YyjccSHfr5G+eE7tr4Tfn3XPjmS/c0T3mlov4IimAAAE+ElEQVR4nO3dfVvaVhgGcF6khFK1SJQkIri261qRqrNuZV3bzY7a2m7r/P4fZucEEkhyEoGck5znXPf9vyS/67l5DC8XqVQQBEEQBEEQJBmn7BNQHPvpz/smG+2nbn3LaxtrZL5arb5VrRpq9H0zoZHGuS8QGme0B3PfQsiMr40xhvOLCo2ZY8QXFRphjPniQvLGhC8pJG1c2i9ZQrJGoU8sJLlXBf3MEpKbY6ovXUjKeCnu531CQkY7A5gpJGO0uxsLieycXEISc8wpJGDMLdTeKEGouVGKUGujJKHGe1WaUNs5ShRqapQq1NIoWaihUbpQu52jQKjZHJUItTIqEmpkVCbUxqhQqIlRqVCLvapYqMEclQtLNxYgLNlYiLBUY0HCEo2FCUvbqwUKS5pjoUI+xxPDhVWrBSGEEEK4ovCs2WwaLWxeXW3/Xt0ESUZ4PBwOf/n1zcXao6QjfMAyHE5+23m7HpKW0FdO1usrPaE/yjX6ql548Hm/1ZcrXKuvaoWO/a7jdiyrbV2ctvqORGHY14v7kAqFl+8/uN0RO23/FDyr3W6OeyfOhsI/nv2YNPJRXt/TV1XCg72a2xnNTntxeI+N82t9E6E1ffn8px9ESt7X7Yy+qhCybnbdzuK0o8d+uJGwzSruvEhVTh4M3qTsV+lCJ+imZOGj+cO/ePmnUMkuCK5vtwSjlC48+DiKn7ZM4Vz5/C+hkq2eh3GkfGHyi3myhVnK4WQY6ytVYaAUNHY4mRzvvDVCOFfGnpdXx8fX9fp2eFDqwkD5zKfV67uzx9k1S8iz14k8DoQQQgghhBBCCCGEEEIIIYQQQgghhBBCqKPQuTyYfuq1bk5O+v1Hoo8HCQv3Pr/7Muq6rtu9tXjaLIKPBwkL3c5o9kHT7k7wgM3HRgnDQkIIIYQQQgghhBBCCCGEEEIIIYQQQgghhBBCCCGEEEIIIYQQQgghhBBCCCGEEEIIIYQQGiV0vv39ZTDiMVHo9J80jho8//z7PYAaI/R1h4eNSBj0+38mCJnuMKHzczQ+WxyTqDBd1zg9r3rLRyQozNAdjs+iPHpC4fMu6Ob5hecl/5KM0MnUNV7dXcSHR0xo9dJ1jdO7RDfpCb1XKTq2N710HiXhkbCb4qeeKcLMbpIX8v/pq/CIClfpJmHhit0kKrx3b9IWrtdNesLqmt2kKNw0EEJouDD8QV2dha/zCKcDV3eh5fVyAFnsmVFXoWXl9PlzrLlLwqal6BcHSvP5xoHrC/nvyt/1PnUSp12OUJqPxx7cWm1v3OO3QFD0yx+l+nhuWsG7fVoIc++XrGggVOrTQCi9n5oJlftKFhbgq1QuawliUcJCfDzhtVyxQsX7JRo7aixCWKiPJzJH9cLC+pliXBZ6ogvXnMJSfBFjKGRXruet98kL11zC0nxLxuacZ41vHNl3eCzVFxr56462dTq/a61MYeH7RRS2V9nrjv3FndfkCUufX5Dp/vKN5aQJtfElIkeor0+OUGefDKEW+yUjeYW6+/IK9e7nLHmEFHxM+HFTIQ1fRfD6cTUhGR9PujH9W1/a75dY7BRjipDU/IKI5ygUkvTxiIwCIVkfT9KYEJL28cSNMSG5/SJK1BgRGuHjWd6rS0Ly/VzONHyfPBQa5eMJujoXGufjmXXVFxrp4+FzZEJj9osozPjV1PkFmX4r+wwQBEEQBEEQpIT8D5zaM/mzYzv/AAAAAElFTkSuQmCC;" parent="WIyWlLk6GJQsqaUBKTNV-1" vertex="1">
          <mxGeometry x="590" y="630" width="70" height="70" as="geometry" />
        </mxCell>
        <mxCell id="3x0Ic-4T67xjW6-SUjAH-49" value="" style="shape=image;imageAspect=0;aspect=fixed;verticalLabelPosition=bottom;verticalAlign=top;fontSize=28;fillColor=none;gradientColor=#ffffff;image=https://d1.awsstatic.com/video-thumbs/CloudSearch/video-thumb-cloudsearch-overview.e3f348f85306893ca38c1f13a294afe357f9803d.jpg;" parent="WIyWlLk6GJQsqaUBKTNV-1" vertex="1">
          <mxGeometry x="514.55" y="700" width="145.45" height="80" as="geometry" />
        </mxCell>
        <mxCell id="3x0Ic-4T67xjW6-SUjAH-51" style="edgeStyle=orthogonalEdgeStyle;rounded=0;orthogonalLoop=1;jettySize=auto;html=1;exitX=0.145;exitY=0.855;exitDx=0;exitDy=0;exitPerimeter=0;fontSize=28;" parent="WIyWlLk6GJQsqaUBKTNV-1" source="3x0Ic-4T67xjW6-SUjAH-50" edge="1">
          <mxGeometry relative="1" as="geometry">
            <mxPoint x="950" y="800" as="targetPoint" />
          </mxGeometry>
        </mxCell>
        <mxCell id="3x0Ic-4T67xjW6-SUjAH-52" style="edgeStyle=orthogonalEdgeStyle;rounded=0;orthogonalLoop=1;jettySize=auto;html=1;exitX=0.855;exitY=0.855;exitDx=0;exitDy=0;exitPerimeter=0;fontSize=28;" parent="WIyWlLk6GJQsqaUBKTNV-1" source="3x0Ic-4T67xjW6-SUjAH-50" edge="1">
          <mxGeometry relative="1" as="geometry">
            <mxPoint x="1360" y="800" as="targetPoint" />
            <Array as="points">
              <mxPoint x="1360" y="745" />
              <mxPoint x="1360" y="800" />
            </Array>
          </mxGeometry>
        </mxCell>
        <mxCell id="3x0Ic-4T67xjW6-SUjAH-50" value="&lt;font style=&quot;font-size: 14px&quot;&gt;Need Transactions?&lt;/font&gt;" style="strokeWidth=2;html=1;shape=mxgraph.flowchart.start_2;whiteSpace=wrap;fontSize=28;fillColor=#ffe6cc;strokeColor=#d79b00;" parent="WIyWlLk6GJQsqaUBKTNV-1" vertex="1">
          <mxGeometry x="1120" y="660" width="100" height="100" as="geometry" />
        </mxCell>
        <mxCell id="3x0Ic-4T67xjW6-SUjAH-53" value="&lt;font style=&quot;font-size: 18px&quot;&gt;No&lt;/font&gt;" style="text;html=1;align=center;verticalAlign=middle;resizable=0;points=[];autosize=1;strokeColor=none;fontSize=28;" parent="WIyWlLk6GJQsqaUBKTNV-1" vertex="1">
          <mxGeometry x="1250" y="710" width="40" height="40" as="geometry" />
        </mxCell>
        <mxCell id="3x0Ic-4T67xjW6-SUjAH-54" value="&lt;font style=&quot;font-size: 18px&quot;&gt;Yes&lt;/font&gt;" style="text;html=1;align=center;verticalAlign=middle;resizable=0;points=[];autosize=1;strokeColor=none;fontSize=28;" parent="WIyWlLk6GJQsqaUBKTNV-1" vertex="1">
          <mxGeometry x="1000" y="710" width="40" height="40" as="geometry" />
        </mxCell>
        <mxCell id="3x0Ic-4T67xjW6-SUjAH-56" style="edgeStyle=orthogonalEdgeStyle;rounded=0;orthogonalLoop=1;jettySize=auto;html=1;exitX=0.855;exitY=0.855;exitDx=0;exitDy=0;exitPerimeter=0;fontSize=28;" parent="WIyWlLk6GJQsqaUBKTNV-1" source="3x0Ic-4T67xjW6-SUjAH-55" edge="1">
          <mxGeometry relative="1" as="geometry">
            <mxPoint x="1160" y="940" as="targetPoint" />
          </mxGeometry>
        </mxCell>
        <mxCell id="3x0Ic-4T67xjW6-SUjAH-58" style="edgeStyle=orthogonalEdgeStyle;rounded=0;orthogonalLoop=1;jettySize=auto;html=1;exitX=0.145;exitY=0.855;exitDx=0;exitDy=0;exitPerimeter=0;fontSize=28;" parent="WIyWlLk6GJQsqaUBKTNV-1" source="3x0Ic-4T67xjW6-SUjAH-55" edge="1">
          <mxGeometry relative="1" as="geometry">
            <mxPoint x="740" y="940" as="targetPoint" />
          </mxGeometry>
        </mxCell>
        <mxCell id="3x0Ic-4T67xjW6-SUjAH-55" value="&lt;font style=&quot;font-size: 17px&quot;&gt;Ease of use or scale?&lt;/font&gt;" style="strokeWidth=2;html=1;shape=mxgraph.flowchart.start_2;whiteSpace=wrap;fontSize=28;fillColor=#ffe6cc;strokeColor=#d79b00;" parent="WIyWlLk6GJQsqaUBKTNV-1" vertex="1">
          <mxGeometry x="900" y="800" width="100" height="100" as="geometry" />
        </mxCell>
        <mxCell id="3x0Ic-4T67xjW6-SUjAH-57" value="&lt;font style=&quot;font-size: 18px&quot;&gt;Scale&lt;/font&gt;" style="text;html=1;align=center;verticalAlign=middle;resizable=0;points=[];autosize=1;strokeColor=none;fontSize=28;" parent="WIyWlLk6GJQsqaUBKTNV-1" vertex="1">
          <mxGeometry x="1070" y="850" width="60" height="40" as="geometry" />
        </mxCell>
        <mxCell id="3x0Ic-4T67xjW6-SUjAH-59" value="&lt;font style=&quot;font-size: 18px&quot;&gt;Ease of use&lt;/font&gt;" style="text;html=1;align=center;verticalAlign=middle;resizable=0;points=[];autosize=1;strokeColor=none;fontSize=28;" parent="WIyWlLk6GJQsqaUBKTNV-1" vertex="1">
          <mxGeometry x="760" y="850" width="110" height="40" as="geometry" />
        </mxCell>
        <mxCell id="3x0Ic-4T67xjW6-SUjAH-60" value="" style="shape=image;imageAspect=0;aspect=fixed;verticalLabelPosition=bottom;verticalAlign=top;fontSize=28;fillColor=none;gradientColor=#ffffff;image=https://encrypted-tbn0.gstatic.com/images?q=tbn:ANd9GcR_vIRlsojcPkaQxTMExn6Tp63hHY-lY534rg&amp;usqp=CAU;dashed=1;imageBorder=#000000;" parent="WIyWlLk6GJQsqaUBKTNV-1" vertex="1">
          <mxGeometry x="690" y="943" width="107" height="107" as="geometry" />
        </mxCell>
        <mxCell id="3x0Ic-4T67xjW6-SUjAH-61" value="" style="shape=image;imageAspect=0;aspect=fixed;verticalLabelPosition=bottom;verticalAlign=top;fontSize=28;fillColor=none;gradientColor=#ffffff;image=https://www.magnitude.com/assets/images/Logos/Data-connector-logos/edit_dynamodb.png;" parent="WIyWlLk6GJQsqaUBKTNV-1" vertex="1">
          <mxGeometry x="1030" y="890" width="240" height="192" as="geometry" />
        </mxCell>
        <mxCell id="3x0Ic-4T67xjW6-SUjAH-63" value="" style="shape=image;imageAspect=0;aspect=fixed;verticalLabelPosition=bottom;verticalAlign=top;fontSize=28;fillColor=none;gradientColor=#ffffff;image=data:image/jpeg,/9j/4AAQSkZJRgABAQAAAQABAAD/2wCEAAoHCBIRERERERUSEREREhAREhISERESERESGBgZGRgYGBgcIS4lHB4rHxgYJjgmKy8xNTU2GiU7QDszPy40NTQBDAwMEA8QHxISHzEsJSs3NDQ6NjcxOD82OjE0NDg2NDQ0NzQ2MTQ1NDQxPzQ0NDQ0NDE0ND80NT80PzE2NzE0P//AABEIAGYB7AMBIgACEQEDEQH/xAAcAAEAAgMBAQEAAAAAAAAAAAAAAQUEBgcDAgj/xABFEAACAgEBBAgBCQUGBAcAAAABAgADEQQFEiExBhMiQVFhcYEHIzJCUoKRobLBFDRyc9EVM2KisfA1RHSEQ2OSlKPS8f/EABoBAQADAQEBAAAAAAAAAAAAAAADBAUBAgb/xAApEQEAAgIBAwMEAQUAAAAAAAAAAQIDESEEEjFBUWEFEyIykRSBsdHx/9oADAMBAAIRAxEAPwDssREBERAREQEREBERAREQEREBERAREQEREBERAREQEREBERAREQEREBKjWfL6qunnXRi+3wNhyKlPp2n9VWWOp1C1o9jHCIrMx8gMzD2JQy1mywYtvY22f4S2N1PsqFX7MCyiIgJMiTAREQERECIiYmv2hTp0L3OlajvZgM+QHMnyERG/BM6Zc8r7kRSzsqKvEszBVHqTNB2z8RlGU0abx5dbaCq+qrzPviaJtLauo1Lb19j2HuUnCL/Co4CWadLe3M8K9+orXxy7LX0n0LHC6iok5wA+c4mbptp0WnFdiOfAMM/dOF7L/vk+3+UzYQSCCOBHEEcCJNPRx6TKH+rnfMOvxOebN6T6irCueuXwY9sDyb+uZtezekFF+AG3HP0H7JJ8jyMrXwXp6LFM1bLmJEmQpiIiAkSZEBERAREQERJgRERAREQIiYG0Nq0aZd6+xax3AntN6AcT7CaZtb4h810tef8AzLuA9Qg4n3I9JHfLSnmVjD0ubN+tePf0b+zgAkkADvJwJiafa2nsbdruqdvqrYhb7gZy3Rrq9qXKLjdbSThypRErB+kAcKSOBxgmWOv6BPTXbYLDcVGa66qsOzZ4E5J5c8Djw4SKM1rR3VjhbnocVJ7MuTVviOHT8xmcd2Z0q1mkO4WZwvOq8MWHlvHtD/fCbrsnp3prsLdnTufrdqsnyYcvcCdp1FLcTxPyjzfTs2PmI3HvDbonnVargFSGU8QVIII8iJ6SwoEREBERARJkQERJgRE+XYKCTwABJ9BNe6P9Kq9ba9So6FVLqWIO+gIBPDkeI4QNjzE1uzpbUutGjKPnfWs2ZG6HbGBu88ZIGZskBERAREQEREBET4scKpZiAqgsSeAAHEkwKrah666rSj5uRqL/AOBD2FP8TjPohlxKnYaF1fUsCH1LdYARgpUBitcdx3cEjxYy2gIiICTIkwEREBERA+TOE9Kr2bW6ouzNu3WKu8xO6oY4UZ5Dynd5WavYWkuJa3T0WMTks1SFifEnGZLhyxjmZ0iy45vGolwJrlHn6TzbUHuGPxnbr+gmzX/5dV/gexPwVsTl3SLR6WnUX0VUuvVMUDnUM2cd+6V/WXKZ5yTqFS+HsjcqBbnBDBiCORBxj7pnU7auXmVcf4hx+8RoNGj2KjZIO9njg8ATLavYdAbLCxl+qHC/jumS6vCLdXhRt9D89GXzUhh+hlhTrqrPmupPgTun7jNs6PdDNm30ra1DcSw3W1FrDgcdxE2Gnols5OWloP8AFWH/ADZkFuq1OphNXppmNxLz6GuzaXtEtixwMknA4cOPdNgnjp9OlShK1VFHJUUKo9hPaUrW7pmV2sdtYhMRE8vRERAiIiAiJMCJMiICIiB43WhFZzyVSx9AMmct2r071N+RTu0VnkRhrCPNjwHsPedQ1lZaqxV+cyOo7uJBAn54u092nY1Wq1brgFWGP/0eYlTqrWiI7Za30vHitNpyRuY1r/jeOiGxKNc9r6m1mdWA6vfIdgRneZj2iO7h4Tcz0L2eRjqj6i23P3704xVq8EE5VhyZSQR+oliNp3suOuuK+HXWEf6yvTLWtdWrto5ukzZL92PJMR7e38LfpdsinR3KlFhYMGYoWDNUQRjJHceOM8eBmDqdtah6aaS7gUhwCrsC4JGA2Oe6BgS02FRsqzA1DXV2Hn1rgVMfJl5faxLjpbp9BoqFSimtrrgQjH5Qon0nyxPoPM+U7NJmJtWYiPbZGaK2rhvWbW9JmNf3/hzq6988cjzPEn3mBXqbd5goLjPI8ce/dLU4xx5ec8H1CrwUZ9OAkNZ+F+1ed70s9l7V1Omw1TvUeZUNvIfVTwP3TqPQnbz66mxrAu9U4rLLnDdkNnB5c5xN7Gb+gnX/AIabLfT6R2sK/LWCxQrBt1d0AZI4Z4cu6Wemm3drfDJ+qRj+1vUb459W6TytuVACzKoJwCzBcnwGe+es5z8Tsm3TDu6tzjuzvDjL7590K21UGWZVHizBR95iq1XUMjBlPJlIZT7icf0ej1e0nCgs4rVF3nYiutAML7nHdxPGXervs2Rpf2VXVtTe7WllzuU14C9nP0junj6wOhXauqs4setCe53VT+JnpXYrDeUhlPIqQQfcTl+zuhmq1S9fY619YN5TZl7GB5E+GfM5njZp9bsi1Xz8mx5qSabR3qw7jj38IHWp5XXKg3nZUHizBR95lPq+kVSaEa1e0HUbiE8S54bp9DnPoZzqnTazatrtxsI+czndqrB5KPD0HGB1W3VV2VWFHRwEfO4wbHA+E518Nv3xv+nf8ySv2lsHV7Pxa3ZX5vW1OSAT3NyIz5jEsPhv++v/ACH/ADJOjb7ej2lbXDUlj12RZ1W+u6XA4Nu/O7s+HCbFOVax2/tvOTn9rqXOeO7lVx6Y4S1+Ie2LFdNLWxRCgewqSC28SFXPhwPrmcG7/t9O9udbXv8A1esTe+7MyZygdBtZ1e/u17xG91e/2/Tlu595sPQG7Vhrab1sFVajdNqsCj5+YpPMYzw7secDdpMiICIiAlRts9Ya9IP+YJNnlp0wXz5MSqejnwlvmVGx/lXt1R5WkJT5UJkKftEs3ow8IFsBgYHdPqREBERAmJEmAiIgIiICRErztfT7zL1qFkJVgDvMrDmCByM7ETPhyZiPKwnC+ln7/q/5zfpOwvtqkcizein9Zz/bnR1NRfbelrqbWLFXrXCk92Q36S102623Kt1H5ViIalsv++T7f5TNhnjpejV1ditv1so3uRYHiCOWJbpso/ScAf4Rk/jiXu+vup9lvZuHQ390X+Kz80vprexdbTpqhVl2wWO8UUcznkDLRdr0H6WPVWH6TLyVtNpmIaOO0RWImVhE8dPqUsXerZXXJGVORkcxPaRTGkqYiICIiBEmREBERASZEQEREDG1zlarCvAqjkHwIUkGfn0akWcbCSzcWZiWLE95Y8cz9CaoqK33+K7rbw/w4Ofwn581mnQsWoDConKK7Kzhe4Ejgf8AfOUur1w2vpEz+Wo9nw+l71Psf6zwKsh71MK7Ie8eUyF1QPBh+o+6U+W1xPxKE1R+kM+Y5yW1QxhQfLPId/KS2nVuKnH4ifKaUDix4eXCc4evzeBZnPefKe6aU/SOPIc5LXqvBRn05Twaxm4fgJ3l54jzzLINiJwUZPl+pnTPhNYW0+pz3XjA7h2FnL00xPPsj8Z1v4Z31tpXSusVmuzDlWLdaxUHeJPHOOHhw4Sx0uu9n/U5t9ieONw3Sc5+J399pv5dn5hOjTnPxO/vdN/Ls/MJovm209DtCtOip3fnWKLXbvZnGfwGB7TQum7sdo2547vUhAeIxuKRw8Mk/fOkdHv3PS/yKvyian8RNisxXVopYBQlwA4gD5renHB9oGKNq7b+pb/7VP8A6zE2jbtfU1mq6qx0JBx+zKCCDkEEDIlhsTp4ErVNUjuUAUWJuksBy3lJHHzk63p9Y7oulp4FgMWAtZYT9FVU8PxnRT7W019GztLXcrJm+9wjfOA3Ru5Hdzc4m8dBqlXZ9JTGXNjufF98g59gB7T76WbKbWaQqoxamLEU/WA4rnzBI9cTRujfSazQb1ViF694k1k7tlbcjjP4gwOl7XqR9Pej43DU+9nuG6ePtznO/hv++N/07/mSfXSHpo2pramlDUjDDszAsy/VGOAB758/Df8AfX/kP+ZIHjrP+Nf97V+ZJtHTToy+qK3UYNqLuMhIAdM5GDyDDJ588zV9Z/xr/vavzJLnpX0g1mk1g3OzQFUqrKDXbw7WW55zkcDw4QNfXaO09DhWa+tFwAtqb9ePAFgRj0M3Xop0q/bCarVVL1G8N3O7Yo5kA8QR4cZWv8Qa2rIbTuXIwVLIayfM88e0p+gOke3W9cq7qVCxnIGFBcEKg+/l4CB1OIicCIiBV7csYqlCEh9S3VgjmleM2P7LkDzYSwprCKqqAFUBQByAHACVmzvlr7dSeKJnT0+G6p+UYerjHoglvAREQEREBJkSYCIiAiIgQZw7pVpLadbqHdXrFl1jI5BUMpYkFW5Hh4TuM8dRp0sUpYqup4FWUMp9jJcOT7c70iy4++NbcL023NTXjFhYD6NmHH3nj+MttN0tPAW1g+LVtj/K39ZtW2fh3RZl9M3UPz3Dlqj+q+3DymhbX6P6nSE9dWQndYnarPuOXviXqZMd/HlTtS9PLatLt3T2cFcq2M7rqwb+h9jPWzaaD5oZv8omj7L/AL5Pt/lM2OqtnYKil2PJVBJPsJJ9usI5yW8QyrNpOeWF9Bk/eZjNYzntFmJ7sk8fITYNndErXw1xFS/VGGc/oJteztj0af8Au0G99du0x9zy9pDfPSv68ylphvb9uIYfRHTvXpt11ZSXdgGGDunGDiXsYiZ9p7pmV6sdsRCYiJx6IiIEREQEREBERAREQMbXIXqsVebI4A8SQQJ+ebKrdOxrsV63XgyMpBHse7zE/R0r9p7I0+qXdvrSwd2R2l81YcQfQyHNi74Xej6v+nmeOJcEF6twcfqJDaYHih/UffN+238MyMvorM9/U3H8FcD8CPeaJr9n6jSNu31vS3dvDst/Cw7LexMoXw2q3sPV4s0ef9sUqyHvHnBZm4ZJ8p7rqu5hnzH9IbUqPmj8MCR8rOo9+EJpu9jgeE+zaicFGT/vvnxRVbewStXtc8kRSx9cDkPMzddh/Da6zD6txQnPq0Ia0+Rb5q/5p7pitfwgy9ViwxzOv8tH33sYIoZmY4VEBLMfAAcTOvfDfY1+k01n7Qu411m+EJ7SqFC9rHI8OUvNj9H9LoxiipVOMM57VjerHj7cpbCXsWDsnczyw+r6/wC9HZEcfPlMq9sbD0+r3OvUsUJ3SrFTg8wSO7hLSJYZzzqqCKqqAqqAqgcgoGAJ9kZ4HiDzkxA17WdD9Faxc1lCeJ6t2RT9nkPYTM2X0f0ulO9VWA3LfYln9ieXtLWICVG1Ojul1R3raxv/AF0JRz6kc/eW8QKLZ/RPR0MGWvfccmsYvj0B4fhPfZWwNNpXeylCrWcCSxbdXOd1c8hn/SW8iBUP0e0zakaop8sCGzvHdLAYDFeWZn6zR13IUtVXQ81YZHqPA+cyIga2ehGh3t7cfH1Osfd/1z+MvNHo66UCVKqIOSqMD18z5zIiAiTIgJW7a1LJVu1nFtzCmrxDtnLfZUM32ZZSno+W1b2f+Hpgaa/BrWwbW88AIo8CHHfAsdHplqrrrQYVFVQPIDE94iAiIgIiIExIkwEREBERAT5JxxPAT6mm/EXXHqKtEgsazXWCtlqTft/Zl7VxVe/s9n7UDcAQeI4+YkMoIIIBB4EEZBE5Zs/b1+k0N2kq3qbtJr9NTUuor7Y0eot+T30PgGYcDyA4zL2ltraNC7UI1SN/ZjUWLnS1g3rYoY1vg4VRnAK8fOBs2q6GaN7VtVDUwJJFR3UcEEHK8hz7sS50WgqoXdqQKO/A4n1PMzn/AEo6Wamo6u3T3YGk/Zga+p060h2Csy2M79Y5IfhuKAPxmbqdtamzaI02m1iCut1bV9ZVpxXQpxilGPaew8R5Z4+E9Te0xqZeIpWJ3EN/ic4s6UarD6nrqgV2iNENm9Wu+1fWivO9nf6wqd/Pzcd087ukevVNTqRenV6ba76EUdQmLKTctfafmCA3AjHLjnPDy9ulxEQEREBERAiIiAiIgJMiICIiAiIgRPHU6Wu1SliLYjcGVlDKfUGe8QROvDQNtfDaizLaVjp2PHcOXqPoM5X2OPKYWy/hjh97VXBlH0KVK73q54geg950uJFOGkzvS1HWZ4r29zB2ZsqjSpuUVpUvfurxY+LHmT5mZ0SZJEa8K0zMzuSIidcIiICIiAiIgIiICIiAiIgIiICIiBhbW1ZppZlG85wtan6VjHdQemSM+WZ9bN0goqSoHeKjLMebuTlmPmWJPvMNvl9WBzr0gyfA3uvD/wBKH/5PKW8BERASZEQJkREBJkSYCIiAiIgV2v1r1vVXWiu9vWEb9hrUBACeIVs8/CeB1IW6s6iqlHKXstocP1dahS2XZFKg73Hu4SNs7Pa2yh+rrvSrrd5LGAGWCgEZUjhg/fMXUbLsKjqqqNOVTUKEBDIzWBACRuY+iRxB7uB5QM1rtHZv2MKWK9XvM6LvY3vk+YyQWHZ8SOE8rtboyUUit/2qzqm7CneZVLYsBGeGAMHjxEwv7KvL2WFAyvXQoWzU2tbvVWM+Q4+Ye1ld3kV48+GRRoNQDU7Ybc1PWBXsDWCs0tUd5wvbYFs8e4YzA+bBVdYAml0115qVnd+r3EqLFVU2BGLZ3GwAMdg5xwz9hNL2n1GmpqtFhU71KObLMBt6tt3LjHHIGeByBiRotBdpyHVUsLVJXam/ukFGdkZWIweDkEHHIe836XVsVdiGy7saq7BW1alVVFW3dyeIYtyyW4cBghku+iDJqSKDY4O5aEU2kDg2CBvYHf4d88DrtHvWVsKAmKtSW3UauzrMt1pwMfRB3j5cZ4bN2fqNMd/cSxj1yleubID2tYrB2XJ+eQ2ePZB8pk6fZtgGo3hUGuoqrArBVQyq4IAxwXL8PeBn2bQpVwjWKGOOGeA3vmgnkM92efdMyao+wrR1qcXW8oS37RYiL2ERgyL87G5wxjPAcOc2uAiIgIiICREQJiREBJkRAREQEREBERAREQEREBERAREQEREBJiIEREQEmIgRJiICREQEx9dqOpqttIyK0dyO87oJx+ERAx9i6c10rvEM9mbLG+tY5yx9Mnh5ASxiICREQJiIgIiICIiAiIgIiICIiAiIgIiICIiAiIgIiICIiAiIgIiICREQP//Z;dashed=1;imageBorder=#000000;" parent="WIyWlLk6GJQsqaUBKTNV-1" vertex="1">
          <mxGeometry x="1290" y="800" width="310" height="64.27" as="geometry" />
        </mxCell>
        <mxCell id="3x0Ic-4T67xjW6-SUjAH-68" value="&lt;font style=&quot;font-size: 18px&quot; color=&quot;#ffb570&quot;&gt;1*&lt;/font&gt;" style="text;html=1;strokeColor=none;fillColor=none;align=center;verticalAlign=middle;whiteSpace=wrap;rounded=0;dashed=1;fontSize=28;" parent="WIyWlLk6GJQsqaUBKTNV-1" vertex="1">
          <mxGeometry x="50" y="290" width="40" height="20" as="geometry" />
        </mxCell>
        <mxCell id="3x0Ic-4T67xjW6-SUjAH-69" value="&lt;font style=&quot;font-size: 18px&quot; color=&quot;#ffb570&quot;&gt;2*&lt;/font&gt;" style="text;html=1;align=center;verticalAlign=middle;resizable=0;points=[];autosize=1;strokeColor=none;fontSize=28;" parent="WIyWlLk6GJQsqaUBKTNV-1" vertex="1">
          <mxGeometry x="610" y="370" width="30" height="40" as="geometry" />
        </mxCell>
        <mxCell id="3x0Ic-4T67xjW6-SUjAH-70" value="&lt;font color=&quot;#ffb570&quot; style=&quot;font-size: 18px&quot;&gt;3*&lt;/font&gt;" style="text;html=1;align=center;verticalAlign=middle;resizable=0;points=[];autosize=1;strokeColor=none;fontSize=28;" parent="WIyWlLk6GJQsqaUBKTNV-1" vertex="1">
          <mxGeometry x="405" y="550" width="30" height="40" as="geometry" />
        </mxCell>
        <mxCell id="3x0Ic-4T67xjW6-SUjAH-71" value="&lt;font style=&quot;font-size: 12px&quot;&gt;(You don&#39;t have to pay for uptime when you are not using the machine)&lt;/font&gt;" style="text;html=1;align=center;verticalAlign=middle;resizable=0;points=[];autosize=1;strokeColor=none;fontSize=28;" parent="WIyWlLk6GJQsqaUBKTNV-1" vertex="1">
          <mxGeometry x="210" y="1070" width="390" height="50" as="geometry" />
        </mxCell>
        <mxCell id="3x0Ic-4T67xjW6-SUjAH-72" value="&lt;font color=&quot;#ffb570&quot; style=&quot;font-size: 18px&quot;&gt;4*&lt;/font&gt;" style="text;html=1;align=center;verticalAlign=middle;resizable=0;points=[];autosize=1;strokeColor=none;fontSize=28;" parent="WIyWlLk6GJQsqaUBKTNV-1" vertex="1">
          <mxGeometry x="775" y="640" width="30" height="40" as="geometry" />
        </mxCell>
        <mxCell id="3x0Ic-4T67xjW6-SUjAH-74" value="&lt;ol style=&quot;font-size: 16px&quot;&gt;&lt;li&gt;&lt;span&gt;&amp;nbsp;For Prototype: The best option is RDS. As, with other options, you have to learn about ORM or any other language.&lt;/span&gt;&lt;br&gt;&lt;/li&gt;&lt;li&gt;&lt;span&gt;&amp;nbsp;Needs relation between table like in RDBMS or not.&lt;br&gt;&lt;/span&gt;&lt;/li&gt;&lt;li&gt;&lt;span&gt;&amp;nbsp;&lt;/span&gt;Managed come with extra freebies. Things like autoscaling, monitoring, and adding additional nodes are very easy.&lt;/li&gt;&lt;li&gt;&amp;nbsp;Text-based search is used for autocomplete, or any other search-based functionality. The first option available is an elastic search which is an open-source solution. Second id CloudSearch is similar to elastic search. It is AWS private technology.&amp;nbsp;&lt;/li&gt;&lt;li&gt;&amp;nbsp;By transaction I mean do you need to perform multiple updates, or perform multiple operations on a different tables or the same table. Ex: Like a bank transaction. It will deduct -$200 from one account and update +$200 to another account. This deduct + update&amp;nbsp; = transaction. &lt;b&gt;Either both will fail or both will be successful&lt;/b&gt;. In dynamo DB you can do this with the help of &lt;b&gt;TransactGetItems &amp;amp; TransactWriteItems. &lt;/b&gt;In RDBMS it&#39;s a batch write item.&amp;nbsp;&lt;/li&gt;&lt;/ol&gt;" style="text;strokeColor=none;fillColor=none;html=1;whiteSpace=wrap;verticalAlign=middle;overflow=hidden;dashed=1;fontSize=12;" parent="WIyWlLk6GJQsqaUBKTNV-1" vertex="1">
          <mxGeometry x="40" y="1300" width="1130" height="240" as="geometry" />
        </mxCell>
        <mxCell id="3x0Ic-4T67xjW6-SUjAH-75" value="" style="shape=image;verticalLabelPosition=bottom;labelBackgroundColor=#ffffff;verticalAlign=top;aspect=fixed;imageAspect=0;image=https://i.ytimg.com/vi/5Pia4UFuMKo/maxresdefault.jpg;" parent="WIyWlLk6GJQsqaUBKTNV-1" vertex="1">
          <mxGeometry x="70" y="1570" width="580" height="326.81" as="geometry" />
        </mxCell>
        <mxCell id="3x0Ic-4T67xjW6-SUjAH-76" value="" style="shape=image;imageAspect=0;aspect=fixed;verticalLabelPosition=bottom;verticalAlign=top;dashed=1;fontSize=12;fillColor=none;gradientColor=#ffffff;image=data:image/png,iVBORw0KGgoAAAANSUhEUgAAAggAAADfCAYAAACTWCvdAAAAAXNSR0IArs4c6QAAIABJREFUeF7snQd8VUXTh59zbk8vpJJCSOjSETuKBWyvomBFsRdUBFFQQFBRsWBBVBAr2D+7Yq+o2FB6DSUE0kN6u8mt32/PySWhppCQe5Nz3leFZM+e2f/M7szOzs5IgJuO9kgdctQdjcvaeDUENAQ0BDQEjgABTVUeFjwNniOQLe1VDQENAR9AQFvlfIBJbUSiJhttBLz2WQ0BDQENAQ0BDQFvRkAzEDQEvFk+jz5tmjwcfcy1L2oIaAh4JQLacuiVbNGI0hDQENAQ0BDQEGhbBI6ygXCUP9e22Gpf1xDQENAQaGcIaGt4O2PoYYdzlLl9lD/XXjnZojC2aGftFXFtXBoCGgIaAh0OAU07dDiWawPWENAQaCkEtAW0pZDU+vFGBDT59kauaDRpCGgIaAhoCGgItDECmoHQxgzQPq8hoCGgIaAhoCHgjQi0uIHQ4h16I2rtliaNe+2WtdrANAQ0BDQEmoiAphGaCJjWXENAQ0BDQENAQ6AjIKAZCB2By9oYNQQ6MALaIteBma8NvZEIHHyWaHOnkfBpzTQEDkRAmz5tLRUaB9qaA9r32zMC2vxqz9zVxqYhoCGgIaAhoCHQTAQ0A6GZwGmvaQg0hIA2uRpCSPu9hoCGgDcj0KZrWJt+3Ju5otGmIaAhoCHQDhDQ1njfZqLGP9/mn0a9hoCGgIaAhoCGQKsgoBkIrQKr1qmGgIaAhoCGwIEIaCrHl6RC45YvcatD06qJaodm/2EHr8mGJhsaAq2BgDazWgNVrU8FAU24NEHQENAQ0BDwXQS0Ndx3eadRrlkhmgxoCGgIaAi0GgKagdBq0GodawhoCGgIaAhoCPguAkfBQDgKn/Bd/DXKNQQ0BDQENAQ0BLwSAU17eyVbNKI0BDQENATqIaCt1O1OHHyBpb5AY7sTDG1ArY+AJtitj7H2BQ2B9omAtnoofJW0QPP2Kd/aqI4IAbE8iMd9RL1oL2sI7I+Apnj2ItJOoGgnwzjkVG3v42veGqWh0jzc2s1bEiaDjL+/nuKSmnZrKLSImLdIJ+1GcDr2QDRZaHf811ja7ljqfQPyXiGrT5m812cgftq/hz99e4Xx1mcZmi/B+0TK6yjyXhn3Oqg0gnwIAU2ufYhZ3kiqVOuPd/ugP15CR0qSH06Hi/SMGlw4ayGW6NnVwqUjo3j8lXRsDpc3Qq/RpCGgIaAh0PII1LMKOpiB0MGG2yzRkYgI96OouBJnI/SiVGshuH3QQhC0X3ZuLJefF8mYCWtwOGvlQ5JJjjNz25gYZi/aQWmVD1o/zeK9772kzWjf41mLUawxv8WgPFRHGsStDrGvfUDi2fuHsfD15WzN9lgI7VRBSjJDj/HjsbtiuH7aDnblCV6pY+0aZ+aR2yK5d14mGfkez4Kv8fIw9Gozvx0xUxuKhkDrINBhl4mONPDGjlVCwo2bV2cP5LefN/PmsppaqWunBgI6/C0uFsxIYc3aHTz7ocdAcNOlsx/PTIlg6jOZbN/trLvvI+nB7Wid2aj1qiGgIaAh4EUINFZ3eBHJGilNRaCx1/ZUAwEevb0zyA5mPJ972E/5vPAoA5CZMyGeHsk6Rk9Kqx2vRJdYM0/fE8H0+Vnce/sQlnywnmN7+rHo4yLKqxpx9tJUJmntD4qAz8uYxlcNAR9GQJt/Psy8xpLuMRDEfw+v2kQLiVsvDeSUY4MYO0VE8B/8UVtKuPdaH8L3oD6yBAa9RI29to3y07ZRqr26BiLr9WzaVsKh4iQmjo3i0vM6c9KVqxEhFaKdMBDmTQ1j2d8lXD06nvzsKuLiq1m1UubmJ/Ow2bU8CY2VP62dhoCGgG8ioBkIvsm3JlPt0ePKi5JQ7aoi3PfwQG1148VBnD08gksmbFfaifb7t93fK1EnSBJ9kv0ZOjCCNz7aSXxMIA6HnfxCG07X0TcSpt3cBbfewuMLthzyuuLIY4N54cFunHb9ZsBIVn4JiTEG3pkTSVk1PLkon7BgM9W2Kh6e1JNnFqfzzteV2vXHJkuh9kJLIqAt3i2JptbXwRDQZMwH5MLDJJ0k4RQq3S126Qcq7aYMRVXwwlAQXoB6hoIbLhxm4I7rhzDi2r8U40B93LU7cPUgYn9vxJknRWCRili63MUtlyaRGF/IrHnlTLoqll7RRm54Mq3WKGkKlUfe9qEJ3XC5XDz0ojg+2N8cUmMuju0dxPtPx3DC2G2cdUIiK1ZnM/H6UM46IYCrp2WxYp21Fi0Yf1kgpx4XzQ0ztlNhVXForxEaR46+1kN7RaD+BkGbA+2Vy1qqZa/nbP2df4i/zEmDg+kcBbl7HPy1tpo9xfYmKihPpIFqINSq/nqJt92cf7KeyTedxOnX/FbbxqMCVYVo0MuYzToqKh243BBgkZgzuS9rt+zktY/LuGNsNyJDsnhqsZ3H7wjitJP0DBqTrxw5CE/E0VtQJK49L5zBAzoxcc5WXO46D4bZZKC6xq4YSJ0jZX55M4mx43dyw1WxDOljYsXGSpLiYPLcIjZt9wRrSlgMbj59sQ9PL07nxz8rm4i914ubRqCGQIMIyAY9Bj8TUoAJvcGIq8aGNa8Edxt4CBsk1ocaHL11sfGgeCNNjae+A7T0GAgBJolHJiSREK/j39WFHD8kkPRseG5JFjuyGoiqF0U33JAQLXHO6V3YuL2CP/8r2JvnIMAEI4eF0ykilN9WFJISVcqkm47nzGv/5Lh+/vRO8ePdz/OxudTd8sSrYukcoWfeW7lk7bHTu6uZ28bGcs/jaVTbYdyoBM46tpKvfiln9BkhdEkM5Irp6WxPFwq6qccM+x9mNJ7pQvmHm2DuzC7cNjsdq61urx/ob6Gi0lrrC4ENX/Rl9pPrievSiYF99Ex/rphnp3Vl5vw0Nu+wKXR7JstjkzpRUAovvFVIjUPzHzSeI1pLX0JAyLuMjFPIfrCZ4L5dCIiNxD80EFOQH1YTWEodVOUWsPPLFbis7Tct+ZHwzZeVrC/TfiQ885l3PQyadmM8l54VzIUTt5Bb4CQoQOaZqdFk5jiY82q+4u4+1COCBk8/NpCJ4zrzz5os3vykmpwyOw6nXjEa7r0pDr3BxtsfFbNll42hfSSemJLMf+tLSYz1w8+/ksWfWdmVHUjPmD2cPiyObVsreOPbctZutTIgxY8bLwvnnicyFC9BcICe2bfHERsbxKvv7uT6Szrz5Ju7+W9dNezNVthYFnhSIDdHEUvIuPngySSmPLaTncX7fvPpmaew4NV/SMux8fe7g3nvq9UUlYdz1smhTHs6g6emJPPgi9vYslMYYM5afwucMTSQi84KZtq8bMorXZoXobGs1Np5PQIieZhUG5vk1oNhRA+OOeF49J3MSHoDhWkF5K/biGNdNs4qG9id4HBhs9bUnrU1Z556PSwdlkCfNBC8iejWpUWNEeiTpOPZ6Ym8+MpuPlth3yeZzzP3JHLPU7vYnlW99zBcDUFUogaUU4TBPf158PbOzF+ym2Urq+nVzUxllZMdGU5uGdOJYH8Tz72bpaQUDgnSM/kqP66/qBMbNhfx819uzjg1iC9/LyQ7F+6/NYpHF+4iNqYTy/6rYN2WKqVuwfgrY5n0yHasDs8CU7dQvPFoV375tZA3v69ohoHgiZZAiZVojjb+cmFfHn95A3+sVmMtVJ5JLJgRz8pNVbz2aSHfLRrKjytWsC41lCH9gnjp3RwmXpvCkk/T2bGrSnlDmCriGdQ7gAfviOPGWTvIK2jqEU/7WGtaV+4biZFXENFIWr2yWW2wsqBNxBrpJIxBFoyRwYSdM4BOvRLQJ0aQtyqdnDd/wrYlW5wR7jMSr2GB1xDilYxuNlEarM2G7mi8KKGXJW4eE87xfY2Mm7XvBBVn/9NuSuHNT7NJzVCVmDLXFVUmlKH698cmxJOeU80rHxfgcrsZPjSCYf1NPPRKJjNvjuK/zW6++b2QwX3MXHp2GHGh1fTqHsx/K4tZm1rNdWN7cOWk1ZxxUhRjz7Ew4uadXHVRZ/5aU8b6rZXERxl48I5E3l26m1VbXJSU2fbR4wtmdkGSyxn/UCnQtCRDfmaZXskWcvLt5BTY9l+fGmCCTjkaWLqwJ8++sZUdmTr8LEa2plXhdBuYdr0RvTGEh1/K4u0n+rM9fTtzX69AkmUqrU4C/HXYbG5q7OrxgsdU6ZVsYt7URG5+KJ2d2Z74hKMhD9o3NARaCgGPRLuRdBJ+iRGEDk4hdGAykttF6eYcCrIz6XHd+WT9uI68JT/u3Xaomw/t6QgIaAaCl3M5LEjPC/dF8/bXJXyzvKpW6avTMzTIwrnDI/nm1yyKSsTZvhtJ3EhQfl0X3rhwRgJ/ry9nyRclisLsnWTm1ktiuPPJnYw+I4yBPf3YuKOcYSd05cMvtxLuX8O08UnsSCsgJMifX1aX8/hrZUy7OZmI8HImzckjPtaPsnIbZeUudDIMGxTATVf05+GF/9YG9XmWEIkXZySh1xdwy0PiamDj0hZ7sjrOm96LQd2dlFfJPPj8Vv7dUhsI0QDfxOiF4VJV7WThA7Gkp5XRo1c4fhYTT72ez7fLK5h+nRmdyY+HXyrgrrEWQsLDeHD+LqXnwy2AyXEmnp8Ww/Tnc1i7RXgQmhpX4eVCp5HX7hGQkRCHY+buUSSPGoY5Jpiy9Dzyft1AdXYh9sJK3G4nvR65mrJdJWQtWtruMdEGeCACmoHQVKk4ioiJT3WJs7BgZhx3PZbGlnSP2jq8QrrlquN4++MV2OwyDqeb808KZNRZQcyYn0luoZseCRZuvyKUO5/IJj5K5sm7Y8nLzmfWQhtlNRLnnaDj4Ymx7NljZ0+ZnXEzCxSjY+b4rpjMBcx4pmxvwJ7qrRCPeha/LzzqEcn8aQkYjUVNMBDE8mXg+ot1jDm7C5Mf3MJVF4VzytBoLrlrE3lFqjF06EdmYE9/np4aR3BgBb9/W8B5F/ixdpuVZX/LdE0O4oEXCrnuXJmA0DDmvJJLgNHJqadE8vWP+Xu7PdQXkjqbeGF6FLMW5rFqg/CWaPuppk4jrX3bIqCzmIj+37F0GTGEvK3ppC3+AVd+Ze3FZ9V4EHOs++yxVGWXk/nSF21LcGt9/Siu5601hNbst33B075Go8QQX3deAL17hvDgi1lUVu+vGFUvgUEHyV3M5OY7KC138NSUOJI6l/Dz3wZe+agYi0XHvTfGUlFh5+nFOcTHmLnp4gimzlMzJU66OpaBPV1cM2OP8vfzTpSZMb4//7d0B5t22/nxnwrcbpkxZ0RhMFt576sSNX/CIRRjfTYIA2L+tHgMxlJuVTwIIobi0I/n3SA/ic8X9ePzb3bx3HtlSrDh4ie7sH5zBc++WYB9v9sDIhBT5IbQyRJOt4tbx3RicF8n737j5JgoB1NuDePqafnEdw5i5LEyk54pJDZUJiImlO//EOOu83g05EDtGmdiwfRoZizMZeV67YihNRcore+WRUDMr+BunUm64WyqsvLJ/nEV5anZKPeVlUc1+NXZ7Sblwcupzqkg8+UvDzst9p3zDc2glh2T1lvrIdDuVGrrQdUWPUt8MLcHv64sZsH7+QdRyGqQ0Zizwziuj3Ddd2LxZ5ksfKAb2VmpVNmimDQ3m9IKN3FRBh6/O5GNqUW89kkZw4eE8X8/qLUWxl0YxuXnhXPuzduUpeHcE/RMuG4wl9+9Ep3spqTUoVzyM+pAXHV2KmuJuqA0tHcWBsKL93fFaCrlxpniGsHhYxBErFSnUAtDe8jMmdqTi8avJS3XoYxzcG8z027uzJSnMknLrFPMAoVAfz2DUsz0PyaEX3/L4e7b41j6UxEuKZAuIWXcOi6Qz38s45SBAWRkOpnwTBE5hS7lSGbv2rj3WObwoxJHDAvvj+XeF3NYvV7czPA8dcc6B5eWhtBqCxlrX9+sW9C0pe1QnB1yw3nsSttJwb87cFfalFsLAi3VL+nxCKoehAFPXEtuag65r393WEHxSL7kZ8Il7jprORHaxcTSZtGRsrHVEFQ7/vPdASx4dytvfymCEA98hNJ+c+4Q7nt4JSedFMOwXlUMPyOWGU9tZ/hxPZnx/BaKyxxKkHKEP3z9hlD860jLsClegHNOiWLy9Yn8/Mc6HnlFzRh4Yh+ZKy4/iQkzf6sXyaAaA6pJotLWOA+CxIv3J+HnV8y108saiEFQ+z3/lEhuHyMTFh3K8Zdt3muEhATKLLy/My/+XzF/rqqoXdDUpSnQz8iky/0YdU4Cl0/cyIKZSTz4UhZvPd2T1M35pO8q4axTg6ksK2bpilAeXZRLda1HpqlqOznOwIL7o5n20h5WralvIBypMPna+3XHS95CuZAGWW+ky7BRZK/6BWuJ6hXziafV1pK60Qsvm6STleyisltSkofVl3/1YrB4VANh2BtTWPP6B5T9rsbmHPqRCe3Zmd6jz2Dl8x9SXSa8hdrj6wgcBZH0dYjain6JsCCJb14ZwPSnV/PTioOrMX8TLJnbh8vv3MiYc6IZPrCaYaekMOmRdcRExvPhd7tJjA5gyIBg4kJsnDQknJsfSCV7j0j+IzG4j4kAf4k/VlmxO+rEQbjqXXVb671Lxj5XKBsFjcSC+5OwmIu57v7GGAgi1XMQcyfKpGYb+d8ET0yAG5NR4t7rI8jIdbLkiyLOPqEz3/6RqS5oksSEseGMuzCIc2/ezftPJPDb33lcclEY9z1Txne/lTHz9i44HTU8/2YORRV1eDZsIChqp3aP5eaC0wK4c2wkN83OYGeGODLpqNPI+wwEIQqmgFB6XDyR7V+/TVXB9kZJaYdqVCuuB5Pa+nlW5UgLp744ib8nLcKaVXhYiPzjI+l30zmkfvAzxRszmnjbqEOh32qDbY1VqDX6bDUAOlbHMtFhEh/P68YNk1PZUlCnxjy7eLGDF1kQ33y6N7dN38zUW+NYsaoUpzGI31fkUFDkwul2kxBtYXDfEAx6O9vTq1i1yXMbQtGs9WBtWFWqjZsiNhKvP9qdjRuyefo94QU51C0GDx0yZx0fyKL7dazcoueSe/L20idLMtdfGE6wRc9zH+Ty5N1DuO+pVdhcLgItMteOCufK/+k5f/wevng2iaCACt79pozH3qhEJIDRy+I4wb03g2TD8qSOMyZIpl8fA52jA4nqZGbkUJmPfynh5Y8qqBHpJTvs430GgqAoKHkw8cNGs+XDZ7BXFHRY7hzJwJVju5N7MHj8RSy7/kncNfvOW89sFSuGoUs4g8dfTPpnf5L3zyYlnqGxK8mR0Ki92/oINGWlb31qtC/UQ0AmOhQ+fLY34yZsZGd5fQNBNBOuQJcSF/DSI31IjKzijzU25QpfWaVnVyumuarAxCmjyuy608Y6Ze8Rg5af1iZZ4p0ne/HcO5n8vrr8MFELnqMLF8OGhPDqLDMbt0pcdE/OXkwkdFx3YSe6RMFDr+Xz7L39mTp3rZLeefK4RLolOunf086wcXlcelYQcZ3dvPB2OWqSN3XchwuuPJj4BQZIzLnrJLolVOFnspJfWMiCt0v5a4MNa83+WB7YgzdPsCOnTUbW6ZD9gnFUlYCzaTkuWme66+h56V1U5WeR+esHuNyNu1bbOrT4bq9CNlKuH4Gueyxb7lu8z0DMEWE4rNU4KquQA/3ocePZZK/aQNlv2/YGOx5+JfFI3pFLoO8i7BuUaxzySj6pyjLQ7OL71/rz6KKNfPW7Q3HbCQVnMkJSnD/bdlfhdKhniHp93fqsKsOGlVfd0FtSDNS9hfpvmSG9jcyblsyVU7ewK0cs1g0ZITpOHBDEa7MC2bjTzpi71UBKVcXruf7CMLrGu5m1sICX7u/D3XO3UFbl5NVHkykqceJncjDhkQzcqEmS9v2e55jAK5l+1InSGUwKnxz2pt3EqL97DEsZQu8rprLq5alU5aUf9THUBdWpMqILDGPwDU+w9v2nqckV5bu1pzkIyDqJY+4Zw5ZdWdje/7OekQ7JI47HODCB7Uu+p9Ogbpg7h7Pzte9w73ck2Zzvau94FwItqRm8a2Q+TY1HwcPsWzqTmGji2+VFVNToMMgGggP1Sj2G75dnKe7y+ocEHlXqUaptA0Odt+KSkZ248QITI2/P3KvoD0+TjpQ4Ha/MCqG4XM/Fd2fXLU6SjusvCCOli4v7ny/ilYd68dpH6azcWMV7z/Rl1oupbEi1KYDslxG2tg9fF/f6qvnIOCt6Cu06BJPRQM6Wv5rU2d7DIFMgvS67F31EF3Z8+QblqT81qZ+WaVxP+iUdva6agaOiim2fPaseZx1cEFrm0+20F4GoLiKI7pMuZPOz7+AuFCnO664BG0MDiD13MJZhvaG4jPSF32LdpR3ltEdx8PUVsz3ypPaugMqakEA9Y8+P5KwTA7FLNtZvruTzH6tYv61SiUSu/zS0Nz8aYIl8BKedlIjeUcWfawuYPT6a3GI3T76R24jIBTFmmQCTkwXTowgJ1nPBpKy9ZMuSjhsvDKdrgpv75hdw7ilhXHRWKCv+y+bM05K44f5NVFa15/NPCUtINEERiVRXFFKWI66lNt8UjBx8IWZ3DbtXfdsk0fD4iHqNGo9bMlFZWYTTEkD25y8e1D90oAHbpM81qrEwSf27Hstx187k16dux1kmvEjeMCMaRb4XNVK51WlgMt3GDuevKa8c1OmnD/fn2Pm3UVZWQtmf28h851ellHvLQ66pqLYUDg39tkT/MN9Wrxt5DICDs6nl9pMtC0JcpIGHJvalX3cneXnl3PVEJtuUa5WNWT90GHUunrs3nj499Ay7ZudeFSiCFG+5uBOxMW5mvrBHqVNxzcUxjDorksdf2MCf69Uz8PamFiSdAV1gJMeMnUxgQChVVRVYAsLY+v2b7Fn5ffPGLMmccNMj/PvZ6zjymxjpL8mY4wcw6NI7+HPebSQcfz7+Xfuw+c2H9hMk1RO2r4Fw6OuxRyKFkqyn7xVTyMqvpPCH+U2ONTmSb7eXdz3HguK/EcN6EX5KXzY9+v4+wxOHdKJWSe8JF1DltpP+4a/0vulcDP7+rH34XVyVol5Ke5uB7YXDTR9H49bspvervdFGCHgTQ2OCZcqtbips6oLRONpEBXo3c+9J4swT3fS/WJxrizddBPnLPHdvLD/8U8G7e7M5qiaBtxpLRyIG4uaF0T+UqBMuIujYEZSkbSTrk/lgKyHq5Msw+xlJ//6tJn9CYOXXpT/Jp41m3eIHmmBSqRy0RHWh+yV3kfbNJ1Ts+JW4ky4iOGUgG5bMOqiBoJhsyqseLh35zQ+VkrpqhKG9TyPhgvHkfPUSNSWZlGVux+3e7zuNE8Am49leXvAYCOjcxF14PDVVFez5dv1+eRIkQvp3IfGCE1n71Ae4rXYks55uY4ZhCPIn7b1fsRaL68za4/UINGI+NKKJ1w9TI7CRqrctlKhHwBr7bdVz4ubhO5K45kKJ5JFpOFySUur5rAEmJlybwJSndpGaYUMtOHPkysZbBUgYCMkjrsXpBGPXAZTuWk/ed68i6f0ZfNNDbP3xI0q3/S22dLC/MtxnUAeiP3Dc/Wz7+1cqtooAtMZH+guV3GnQSIK7DmTHZ0+LCEc6n3wxgclD2fzWDHCpgajKF2U9SAbczpra0kD7ZunzKHmVVPWdxuw9BS5u2YTOP5iILr3xS+5DUPdh2GvsFP7xOZWZKyjP3aXFHzRLsCVks4Hk8edR+Ot6ildt34cnssVI8hVnULJxJwX/bKnlnGr/BSZGYysso7ri4EndmkWO9lKbItDYOdmmRGofbxkEVDVx6BoKLfOVI+tF+A/EvYz7ru/MPVdVctEkK3+IdMZu+GVxb77+LZe5bxTvdWM2RqEcGUVt+3a//93G7owMBpw7luXz78Zh3UP/sdMoLakkfenTSppcgYE5OILqsiLwXOvbzyaQjP5Y/IKwlhagC+3MsZdPZ/MvXxHVSWLr7581SjGrOt/AMXe+SNGmzbjNbiJiEjDHJqE3BZD14+vs/OF9JDcYQjoz8Np70fmF8u9zE3A5HfQ6/Qoy/vuW0vzdtZKoGoMes0CQLJsCcdWU7y38pZoOqgJSi5irhYSG3jQbc2x3aqw1bC63Eem2kvbObFwVhe3TMDiKK7U+0ELXKZeQ8f4vWDep9VoU3gvPU3Qn4kceR9qny6gpE5lXD2OgH0Wa23aWtuXXWxfk1u29LXHTvr0fAiJRkER8jD/pWRWHDeBqS6HwGAgTrohk1s1WZjxh5+uVdh6eGI/FYOPOh7PJr/B2M6flhE82BdB5xHUY4vpT9tdnxB4/EkNUV1bPGYvbWUFAZCLdzr+FysxUtv30Di57bepnEScQEoFTNhE/+CxC43sQEt+VvxbMJrhff6Tuw4lwl7Pjs/lU5OxoNME9r3iQsD5DKd6xEl1xHgX5mVgSh1C6I5XiFW8hGyyEH3MGKSMuJnP5D+C0krNuOSnnX4+zupK0H97CUV2Bf1g0DoeDmtLaTJmSTLcR12AvzCP9v2/wCw5XjBlhHHQbdjGFeXuwhIRTvHsT1XlpSAYLbmR05kCGTniKLV+8SuE6cYuivZuMh2JVS81aCWOwH93uvIitb3yDPbMug6L4ginAj8CIcPbsbOytpEaLltbQCxFoKanywqFpJNUhICu1GMaeJ25DBHP9jFRcbu/0JKjHBnDaQCNvPxHKf2uqqXKFUmOr5vGXc0lV1qWOowQCYpPpfu1j2ANjMduKyF/xHREpfdnw1f9hcpSScNoY8tYuo3TnRswhYZRlbMYtEhYZ/Ok26nYMAREUb1tJwdrlDLjyLnb9tYaQk0/EPySC1CUPU5W1tgkTReK02UvZ9vPHZC0TsQ9OZJM/PS6YQMbyT6nK206nASPp1Ot4dv/xIRXpG5S+Q48ZSfJJZ7D6rUdwVpWit4TQ76I72L3yJ0IjQ9n2+9fo/MI4+bbH+X3RdIwyJJ54PqnfvIEpNJqeY2dSmLoFfU0BppgU0r56EVdFMS5JR/J5N6MPiiL1/UfAZe9AktEEtjWhqUhGZgj7nsNlAAAgAElEQVQ20+2mC9j25nfY8kWBtY4z35oAVYdoqhkIHYLNMOI4fx6b3JnXPkxnwcc2r53znnNpox7+/Xgoqds2MOs5O7nFdqUqZfsMRzy4EAosokbcQZezLyf7n5/J/W4BjvJC+l12H1sLqklJjiNz2QcUbf6T8OR+dD9zLCvffhRbZSm6sEQG3fw4m79aQsWmn8FpZ+htT5OZ7SThpOPJ/OFjMr9/vknxBwGJgznx9rn89NBYnJUiw6WEOSKOpIvvZOfH83A73PS5cirbv36dsvR1e2MKTrhzITvW/MSe3z5RPFedz7iKoOAoUr98gzPue4EfZo/DHJHAceNm8uvT1xN34oU4pRBy/niDTv1OocuYe1k552okt43u/7uJXb98QHVhLn6du9HrssmsWTQDR1WBcrTRsCrTlrzDLXkiBsgQYKb7qGFsXbocW6koutQwqh1kGe1ww9RmSwdgeY9EE09NjmPdhiJmvCJ2BL7xPDvrGDJ2Z/PsYnUX4zmLPtRy1d6EWWf2p+91T7D9y0VUZKxXmKa3+NPv+scoD4jFvvpb0n9YjOR2EN5/JFGnXMCW16fhqq6k6xlXEtTrBFbPv015TzL4c8qD75Fr12HL3Y1zyzoylr3SYPltVVJEBUAdA8fNoqy0nO2fzN0bERAYl0LsGTeR9slcOvU7k5DITmz+bCGy26GqFVMgZ019mZ/mzcRVkY7b7eCkSS+y5tv/w5qxlVOnLeKX+0fjH5NM70vvYeeP79P5+DNI/ewFqguziRl8OqHHX8TmhZNwSzq6n3kJGf/8gK1kD9HHn4M7MJHsHxY2OsDRNyS/ban0pCP3hLE0x2fX2KDkA0d66Fnc3uZ323K5cV/XMG8cTj7aSoe/0cUz9yXicDq5//lsSspEiJf37wiUC2z7rDINGwg+yqRDkp0y+i50NdWkfvWyEninMxiJH34Zrph+RCclsfa5SdQU78YvOIaEi+/Bqjew++0ZGM3+9LvpKdK+fo2iDb8o/Yf0GU7SVQ/gKkxn6yeL6H7y2ax77zmwFzV4D0SwIaRLP3peMYV/XpiIu7xor7EWlNCLmBNGse3zF4g9eTT+fia2fCEMDzV4TWcJ4rS7XiR12VeUpa2gLHcnw+55mRVvPE7E4DMJTujBhlcnYwqOovfY+7FXlJH96/sU7VKPJwIj45BMQZRlbFL+HhQZRWVxkXJpI/GUiynasYrSDE/CKO+X66Mvo0e2xDfn7eYbB0cfHe2Lh0egOfzXMPUZBCTmTelBj65w+8M72JmtntH6FtPV2PWO4ub0LK6SJYgzZy7h18fGU1Oeiy44mR7nXQY6I+n//kW/sRNY9cGLdO7eh6iEZPYUV+AfEMCWN2djCoui+5j72Lj4XqoLMxTjIvGE/xE/4hq2L32T3FVLSTrrWiwBQWz+9HncDVxzFN6DpOFX4LZ0YudSkYRIVf6C1ugh52MJCmbHsvcJjOtJ34vHU5q5narcnWRt/gdbUT4hXQbgMgVQvWs1Nms5p8/8P/JLitDXVLDhg/k4SjKRJQlzWDT2mhrsFUW1tqEqqfuWKVNlQZJkjEFROKylOG3atTpvWZKUK6j10jJ3lHnrLfi3NB2+pStaevTtrL/6lrssw/WjQrlrXBzj7t7Iqh1qUSfPwu47e62OJaIeHsYMHkn4mbdQXJBJdEgQBj9/8lL/Jf2rxbjtNZx00yxcfqEU7N7G9u8/g8oM/BP6ULl7LQaTH4Ex3SnY+i9SrfJX+C0HgUsoU6HgXXQ+7Wp01lJ2//MNICqAHvzRyzpihpxFRe5Oinen7pUhQWtEtyHYq6soEjt82YBkCUQXloxUU4FdydDoqM3TIPIjCK+QG0vnvhiCoinf+R9uq0iq4ymq5eG1ikKdPNeXbE/SLY/h6Am29R2JbpFlxwunhSEygB43n0NkShd+nboAZ76IX9AeX0bAC8XMS+D0QWTqzgwlBvU08fCEON79Mou3v6lWsh+Ip4Mto14iTE0nQ6e3kHTCuUqNg9I9eZRs/gdXdV38yL7K0+MX8nC4IeGtp4hloxL9f9j77PUMy8PLUN13D3d+LX7naanJY9NlwyvfkCWSrzsTd2gAfpGBlKzMJPP/fvZKUjWiGo9AQytJ43vSWrY5Ap7Es0a9xKKHktm8o5zn3y6gytb4THltPgiNAAUBT85BjzN//0uphzcQWhbE1jhT1haeluXR0e5tf+9OzMjBRJ89iNTnlxJ/+iCK88rIX/r70SZL+14LI6DN0xYGtC2780zaedMTiYsycOcjaeTsESWftH1aW/KlOd8+uHu9OT0d+TutYSAcOVVaD22JQH1vpRxk5OSXJrHtk9/J/uhP4keeQPmeIkpWqcdR2uO7CLSggdCCXfkunm1KuQj0umREELNuTeCeuRv45k+PK1czENqUMc34uGYgNAO0I3pFW7+aAt9eA0EnkzjuDIIHJLPunpfB7qqrydWsZUfjQ1P40NptNW60NsJHpX/VId2/m4mnpnbmnaV7eHNpGS5lggoW+2JBIzEmX6T7qDBc+0gLIyASBKk3Jpql1VqYGt/pLjAlhu63n0vqK99SuSlLQ893WNcoSjUDoVEweXsjmQALPDYhCofbxpRnCnH4atiBIpESIrlTgORkZfqho+u9kyvalDo0X5p3WKEm7lGf/YNtD99jfV6of/bE6dRl5PRQW/8CsMbDhueWBLJM9PmDMPQMI+OpH2sreTb8ptbCdxDQZoLv8Oow667MsAF+PDgxnjsfTWfT9hrlLrJv7oZk4iP1PD45iWV/7eGVz4vaA4e0MRwBAs1ZpA5pOEgysk6v5FFQDA7PlQrlCqZOqVZpt5ar9Sy055AICENLH2hm0Oxr2PrmDxSvTtPuSLVDeWnO3GuHMPjykCTCAuGjed344Ps8Xv+4DJvDN92kIsmKTqdj9m3xhAXDpCfTqa7xzbG0pUTVBZDVFVL23ILYf08t6PTcmKhPswf1A1JUKQku65Lh1P+WeL8+t/b/3eEx2V+lC6rEPx4NLiNZAtCZTMg6UXxMRpJFaS8Dks6IbDQimcXvdMgiH4PRgNlkxi3ayDp0Oj2ySA6iM6HzC0Y2SEpyJoOsV7wSLlmHHQMmk5HNX7yEo0jUmmht2fPt5TfstF7EDhtA6gtLsRdVtKXIa99uJQR8W0JbCRRf6lYs1g9PiGdo32Aum7yJsgoXzlZf2FoHIbFg33pZBKOGB3Dfsxms3qJV5/MgfThFvD83PCr14PknhdI1Af5IfhFIwX4QGIguMACj2Q+DTo/ZaEIndtpGA5IsKYpYbzQgy2alJoNQy5LIlifayDqEYac3GhXjzqUYD8KKkHCL7bkkKb9XlK0kK23ETl35+V7CJSXbo8ifrPq9xH+VuoK4JPE3F5JbQjKYkISiF98X77tB71YTMTncbmyimqNTfMmFw+XAVlmJzWpFFj047Lhsdqps1bhdTtxuF66SEigqAXsNhgALnXr0Juufz6nYk4HbVtOhMng2fkbXqYxjn7+DtJ//puizVQqe2tP+ENAMBJ/mqcTAnkYWzIpn0sw0VqS5lXW29Xc+LQHavjtGsbs7rqeJxU9359EF23hzaZW6U/VRY+fgCB1uutWqdUlSd7oKPEIRij8LRav+zPN3RemK3XBAOLIlSCm7bPQLwW0OxhQVSWhgGAazAT8/ofgt2HV6nJIBGaFgXTgl8SeQHDacTqFYHcjCtHS5wOnAofxjR2hc2QXVNTVUO23Yxc9E+KhLKG1RJNJOtbWSqtISnNW1mfPErlwYCS4n2ER7CZxOqKrAXVOh9KmYBx6jQBR2cleLTuuUshtc4phM2BW1ZoPi9rfblMqUSt9KlkjPOwczkw70iXj8EsoY6s0Uc3AkCYNHsvXnt2tlrmOl+G7sjPZIcOjQLvS55X/8OXUJ7sLydjZPG4tG+2+nGQg+zGN/s8yMG6PoFG7g5ocyau80trZbtCUAq9vjisVf/C0lwcyz93Xhv03FzH4hrzZBcPsQT49SNwUEExzfG4wWZVfsSVmvk8W5uBFJNuE2mJS0ykaTGZ1ej87oj6T3xymbcJlBdusxuO3qVTK3U90ZV1txuYWid2B12AnvcRIV6RuwZW3BWlGOvcZKdUUZzrJCXFVl4K5R3lVMELFr35s7//Cy05gjg4P14OHiod5vbH2Q/aXh0NLRRLmRwBIcRfzQ/7Ht+zdqa1NoBsKhZrpk0NH33jGUl1Wwc/7XtVkxfWHdaYm1q2P10cSZ1LHA8ebRih1kvxQLT90dy9R5u1i9RQRVHeEkPWrSUN9AkAgMgDkTojEaXUyeW0BlVW2pYG9mQCNo88AZ3udEIhJS2Ln8K8JSBiH7ByoR4Mru2K0aSE6nE2dVFS67OMsV7naxg3bhcrmV/4rdtdvlwGGtQbZX43RW43I6cNptOKtFfQVV4Qu1lnL1LHb99z01m/9uBJVaE4GAJTSGhBNGsfXrV3CL+hE+VtKspbm4f0RI/f79eyfQ884LWD3nXVy7i33SQDhqS11LM+Yo96fhdJQBb6nPCQPh3hvC8DeYmPNaDlbbERoHLUVYo/rxGAiq+/jKs/24dWwU4x/KYNN2Ne7Al0ZzyJ1W7S+iT7+GpL7H8udzd9Qq8YPvpZXjFOF5F60OA8C+k3a/oxqgxzUPsnPFd1Rv/qtR3OhojQ626FlCOyvlo1O/XITbZetokBwwXs8MPTCyQCL+/OMIP/kY1tz3KiJ/hHoM2B5mbIdn+0HlQOOsz8mFRJg/fP5iHx5dtJ1v//IEVHn/QFR1pi7RIohtQIqFlx/tzpOv7+bj70pUl3c7W27iTh9HeHJP1r4yfe/oPZxq6cknPAg9r3mInf9+h3XTn94vEF5CoSU0nsRTRpH65Uu4leJVXvgc5e1c/c958kfIQRa63n4OBcs2UfyXSKXc0hLshbh3YJKOssh1YKRbdOgS02+I4thjjFwzI5OyKt9RqXUGAnSN0/PSjBT+3pjNIy+XYVM2buqC016WHTHehLNvIjAqlg1LZtdL+aMKREuPUwQe9rzhEXb89TXVm/5s8f5bVIy9qDNLWBcShl/E1s8X4HYIg1t7FFNeXD0OsOCqtuG2O7DEh9Nt0oVsnfcF1oxCrUpsOxeTdm0g+P7ghN2u3NLeRwzNBvj17eN55+v/mL9EnD23tJppXakXfLGYZO69IY4hfWxccncuVdXt89RX7OiTLr0HrA7Sls6rx6nDnfKK34k3m5IOs67+45A7nmfN0ldx7FrbTEbWz13YVOnyyKzvGK0CJEtYVxKGj2Lr5y9qBsJ+UjPkjktIX7aKwg1pBJ3WjbjBfUl96SscldXNlC/tNV9BwPd1qK8g3Sw6PYstGA0G7A67ct949BkBzL4zgeHXp5JfKBZi37uDPOLEYKbd0plb79/B1kyR+bFZAHn9S2KCDb79Sbav3Ujp8iUHGAgic59LuLTVwhl7H0nWE3PMCeTtWIOzsrwR46w1ECSJoXe8wL+vP4q7MrMR7x3YREZG5xdEYHwvYvqdSlB4BOmrfyH332+UHAKHekRCooQhZ1KRu4vC3Vua9e22ekkYCF1OG8WWz1/A7dRiEOrzYdD0cWT/uJLcFZvo+8h17Fm9jdyPtVLObSWrR/O7moFwNNFu9rd0XHBmHCaXlc9+y+exu5IIMFdy68N7fKIYU4BFYvjJMXzzSzZOh0RUKLz+aApf/5bPyx+XYxcV4JqNjXe/KCbYkInz2bpqDWW/v36AgZB02sXkbVlNVe7OWk+QOiUlSxhnP/Elfy+eQfGqXxoxyNpreaYgBt30CKtevBvczVN0Yd2OJfa4c3A6HFTtXke1UyIqqT+bP3see3XpoQ0EnYHE0y6hfNcGCrevawTN3tPE0imZxOEXs/Wz53HZtZ1xfc4MeeBadn/zD3vWpXLC/ImsX7SU8pXbvYd5GiWthoBmILQatC3b8cDuAbw0sw83Pvgvt4/ryr//7eS1pSJvnVqDznsfiUtGhjNxXAwjbtxAlRVefigZf7OLiY+mU1imej+8eQRHgq0kGzjunkWs+/4LrGs+O8BAGDZxPlt++ZT8dT/XfkblqC4kkZMf+ZR1r91H8eofGkTIU43QL2kwPUeMZeWiu5qdaGrobc/hcsCat2bhtJYR2ONk4voeT+oXL+C0WQ8Jh9E/hF5jJpL28/tUZKT6FE8tEd1IPGM0Wz+Zj9tW5VO0H4l8NubdgQ9fS+r/LSOocyidzxrCqvsX46720kDOxgxIa9NoBDQDodFQHf2GdZfh1Bp2z92bTFWNlchwf5b9sZO3vvXEH3izepWYcUsKA7oXc+k9BVz7vwAmX9eVMbduIjXP9+InmioFxuBIBk18nhUvzMZdtHEfA0GSLZxy76v889Fz1Gz7RwnC0PuFEjb0fEwJg0keegq/P3Itzpz1DX7Wcy0teOgl9O19Mr8tntism/wiqdNJExex/rcvKF/3PaboYxh42R2s+XQhtrQValSEqG1gMOOy25UrgWqiI4mglBOIPWYoW5a+hNtZrdZL0OmVZE6eR82KeGApb504KNPp0emNOGpEXofapUlkjGzo3meD6DTcwBzRjYTTL2L7p8/jtlk1A6EeZP0fuJKNC5Yy4PbRVFZVsvnJDxsGVGvRLhDQDIRDsrHtodn3trxEcIDEwpmJxEU5efWDLJZ87Yk98G4D4ZEJXekaV8j98608NSWWz34q4K2lFe3svsLBBckS04ue1z3A6jljDwg6DEkZSt8xk1g+9zYkZwlBSX3pMvImSotyMUQlEx+XzE/3Dm9UwmmPrMSefRvxEV34+62pTTYQRB8hyQPoeeVMdv78OQEJiXQ65hQKdm0n76tnqMzaodRRiD7uPEK6DSbzh3cpy1VjDYTKH3TT46T9+zNFa75H0luIHDicoLgkdn7zBo7qKiS9Cf/YFPwCQyjP24W1oC5GQjIFknDKKAySzPYf3la9KAGhxPQ+keJtq6gqzmpVpa0aCBez/VPhQdAMhPrS3O/Bq9iy8HOOffB6Vnz8DY4ft7YqL9qFZm2TQbS8zmr5HtsEmI7xUVHnZuq4UK6+QOab3yTufragVgl4NxufnZJCRHAW23Z1IiHSye1zc6iud6Wx9bnXdviEDTiL+NOuYu28a+opbJWeXufeSDmBZH79LCHJ/elx4XjSfv6Uou1r6X3lDKWA0pqnr2s0PKLX3uMewV1ewKZP5zUpG6Byb8IYQK9LJpODhZT4BLI3rqAqZwemwGiCQ0PY+uVCuoy4GmNIJEUb/qAsLZXqMqHkJfxjuzPosnv4a9F9OOxVHHPZFHT+4diqyshY/hHlO9fhF9udbpffR7m1CmP2NiVrocteiaw3EX/KGEJSjiH1kwXUFGXjNpjpf80DmGN6sO2tWRTvXNuqSkkcMSScPpptn87HZRMejPbxtITk95szlrSv/qLP9aNYMXk+cqnjkBUw2gdq2ijqPH7t9/jXZ7l8uEk9+JgAnrgtmKXLS3juXbU4zi1X9mLJR5upEbV1vMyZIMYyf1oyPcIzCYiN4d5n9rD8P7FD872bF80RqMTTLiMk6XjWviFiApTwQ0Wh6oMi6HX5PWz5cAFO6x6SL5pAXupGytcsxb9LP/pcO4fUTX9Q8v6cRn1W9SBIDB3/HDuX/0T++i9q32u8QIR3H0Li2dewdtFUXHZRr0GkfHZjDo8lZeRtlGWlEX38yfzz9ESOGX0z5dUyuz+fqyjuQVfOJCsvl7yfXmHg2PuoDohg63vzOeaqKeT89QV7Nv5Bt4vuopJACr5+nL6XTWbT569QtSeDsOS+JI28gXVLHsBRVaJUg+x7xX34DR5F0fL/Y8fn83GJqo2t+Jg7JZNw+hjliMFlbz8GwhFDpocBD15N9m+r6Tn6FH4bv1Ap3tUxZu8Ro+fzHbSEgenzIPjSAHQy3HtjAo6qChZ/WcKYs8NJSYpm6mPrEfX4VHuv8Uqh6WP3OLPFNw48S96/P9H6xZldOO/EPN76xp+HFxYohkxHeMS5fNI512K3BJDxyfO1eAkTwU1oygAST7ua9W/PwhwSQZ/R09jw/iNU22pIPPNqQgaNZNu6H6n55nVwVGOrFjUaDv14LsQOGj+PtGXfU7T5271VEBuHtUTs4BHgF0rOHx/gdqmmjC4gjKQL7qQmP4vILl3Zmb4Df30Q0UNPo/CPZWT/uwR9aGe6nnEZa1+fgSU0mpQrp5H970ZiBvVRykdv+vAJDDqZ3pfPYMPbs3Fay+k7ZiIbly7CWphD1/MnIDmdFG/5g6LdWwiI70W30VMo2PgLGd+/Da7WzxQqbjHEnz661kA4dCBm47BsD61EuW0wn9WLlCH9yVm7lR7Dh7B8yqImZ+hoD2h01DF4t4Hg3dS1uszsP3zP35Ni9SyY3ZvsrDKlCvDjL2exPUO4/TwtWs9AEDFjeknGoVQBbAyDJF5/NIlh/Z387/ZMtuxytqr50upMacIHxA2G5PNvYU9OFmX/ihsMAi+VS4ExXTEGdaZw659YOsXS87Lp7Mnain9QFI6yIpx68EvuT82qH8j+5yuqSsWV1sMbCMIwHDz+WdKW/dB0A0GSiR5wLq7qEvJTV6A3+RHWbQCRg0YoFSJ3fb6QiN5DCOgygLL0dVSXl+BnCaY8fRXh3fpRWlRC6dZ/kAwmwnsOUfIoWPOzqC7MwVZRgMHsj19kImWZqUrlyujex5O9cTnYaujU/yw6DR5B6YbfyV71PbEDTyNo0Ci2vDEFcazmsNYWsGpFydEMhANNe2EgRFx1IoFhkThzCtF1DmbbvKVNjm1pwpTRmnoZAo1Z4b2MZF8nR0KW4LzTwvntvyLKytUcAE1hhFDSYcFGeiQZ2bzdSmmFc/88O60AkiTyroLbxSsP9GHJZ9tYvlY4GoXaE2M4uFESaJb5cF43dmTkcsej5Rh0Li49J5r0XInl/+UewtvRFDRaYagt1KUIyusxagKZ//xCRcbKfbgskgopj0iQpNMTEt+D4IT+7MnYSHXWFqVORUh8Lyqyt2K3VtQryXwo4lTMBo1/lp3LfqC4yR4ECEseRMoFt+A2+SMb/dDrZNKXfUTOX5/irrYi6WQkvRGnrbreWZYbvdGslJp2Oz3HAHVeprpjFbUwl3iExIjxe5IuiZsOOqMZhwhMcdfgF9+XvqPvwmUrY/tP71OSuqLVCwJZIlKIH34x28QtBrvmQVCOwYDoW87ErLPg3FNMtVEi553fmrRWtdBU0rppIwTax0rcRuA197MR/vDPR31ZsjSHJ14txGZrWj20ugTMR4t9EgEWmTOOD+C2y8wM6KFn3bYK3v0SfvnPyu5cp1KW+MCTSYm+3fx5bXYccxfuJrvUzc2Xx1NW5mLq0zt8rAJl07ktGSx0v3AiWb9/QEVe2n5moBqLIIwrVXWqynNf1ep5pREeIcV4czPk9vls//lbSpphIIjri+Is3j++B9aCXGx7tuGwliGr1af38tcTR7Evv+vLYv2xeeIu6hsIHiw973hKAXkuTB79zB6WiGQSz7iU1E+fw61cszz8c7RmXkN0HO73R0ajaiDE3HImpqAQqnfnUi6D/fdNmDoFEdO/Gzs++4OaUjUOypufOilr3OHrkeHmzUg0nTYNi6ZjdsRvnD44gBdmhLIr08o98yvYuL2mUVfZ6pZVdQFWA/3UPzcvbEgsAZ7UuYdTQjLTbkogpbObfl0ryCqU+egnK8f2Cia5i4XXPinguz/KsFYfmBFRUPbq7J50CdpDlS6Ar5eX8+rHxTgc7aso08GEQm8JotvFd7P7x8VU5olMia043VrCQKg3iFaktMH5U2ckNdi0xRpYQmPpfvYtbPxiPo7KolaO42kxsluxI5F6S8J8TGe6jz0dh8VAqeTAL30PtowSctZup3pbXit+f9+umyqPnlVRzDmjQWL0yBjSMiv5a43IBNoIg/uojcy7P9RU3L17NF5NnThacDN8aAgXDzcQF+Xi3/VmXLYa5rztua7Y2AGoS2jXzjqSE0wUWW2sXGOvt/tsXD9nnxxIebWJP/4rOOQLwhEuTIhP5g/itXc2M21CFxa8t413v3ISFCDTL8XCA3cksPiDXbz/gxWnMvf2jXFOjLWQnKAjbXcN2fkOHI667I9NPV5p3Mi8o5UlPJaeV8wg9YO5VOWn7zUQWmfSqb0ekQfBO2Brshy3BNnGwDC6jZ7Mzm9foypX8EpTIh6D1i8mDEtyDG6ThfJVm3CUWXE7RYiy999F8jNIjL8kmqvHRHPtPamsTavB3aQiaC0hXb7bR+usVb6LRytSLhEaqGPmrREMSq5i3Q4nP680cs81ZoZdm41LCfgTz+EXJlmGzp30PDg+niH9jTgcTvR6mdSdRm68fxMVVjFpG1rc1NsOH88/jr/W5PHU62J3e/hnwYz+/LNiOxNviOWM67ZTrBzTqs7mM4YG8eCdcVx2dyrZeWpcQh0FHlve4z5u36mV66PoH9OVXldMZ+ObD1NdsKsWrYZ40xAnDv57j5N+0B3zSfv5O4o3fdPEWwzN++7Rf6vllyzRo94viL5XzGTXsvcp2rFGUyIHY2zLQ9888WkkHTqdzNhzwrhzXCzjZ21hZapNCaw++gdYzRumN7zVSKi9gVRfpkFV/n27BfHAjXpSEi088FIue4r0PDM1kQvu3Eq+8GoeUrGr7wvj4Li+FqbcEEVWvpUPvs5lxVroHqfnvlvj+HFlOYs/Km6EXa9eT/zupYH8vKaYJ17a3cARhURStIWLRvhz/ilmzrw5o9agUZWdTpK5a1wUw4aauHzSLqqUa4weRegxfDz8U42K1lGT3iUjQfE9iRs1mW1vz8JeLNyxTR97HXr7onYw/ISRMPCuF9nx05eUrhMGwoGmWmM8NkfKn8O9f6R9txaHjUHhDLrzJbZ98xpFK7/tEPLZWli2fb8SkuTm8rMjmHBlKM8szuazZZU4nZ51pyOsPvtxoZkTr5mvtb0I+BYFYunWcXx/C7PHsJYAACAASURBVJMvM9M1OYSzx28Hh8Rbj3flyZd28rNS/O5QpXSFwEOPeB1PTk3mhz8LWPJFMeWV7trodh0jhprp1LkT734qlH1DE0Bl+69L+vHlHxXMfdlTSfDQqMqSxIxb44kKsnLHE3VX7jwKLDpc5ouXBvHMq9t477uyRtDgZRxs4Zkgugvq0pfYk8ay7ZMncFqF4Vb/2d9wUkxAwKCkM0Y2gcmMpNehM1vQGUzKLQJRHloIg7gFYDAYMZjMyKI2gk6PQ28k8bwbyf77R1wFO9Q8BpIaBik8TU5bjZJL315ThbOsBHfJHnCLgLx9U3YfKRSekYn/1hah3i87h9riUDu5w2XzOECyG+d4O6SweV43hkQw5L532fbVB+T//kqHMWK9bBY2i5yDbUGuOC+GOePDmfPaDt752kpVTX1BaWh9bBYZ7fKlI10L2iUoLT0oYR6IAjWXDgtg/FX+1CBz9s2ZykL/5pwECotymTxXJIM5tGoPD5D44fWBfPVrNrNfysXuPJB1TalrY5Dg309PYt7i9Sz+TCj0w4uC2SDx6MQ4flheyHd/e3LVqztizzPn1mA6xfpz06zslobQ5/oTSi4w5Xg6XzSJmqyNBJj1uHUyBqMRoyUEncEPnU69OuqWXegwoBfX/ZAwuIWp6FLMRZfTpvzJKbLXOV3KFUOnOAB2QY3NTo3VRpW1SimI5PQLpku/k9n594/oakpwut24daDXGfAPCCAoJASD2Q+zxR+9wYLb7cLhcuBySthFW4cDp82Gy2FDdgsK3CDVLabuvWk6PTdWxCm0hEtcoJBkdLWJuqprqqmoqsJebcVWY6OsrAR7Tj5SQSGuqj0g/nGL3AaectRNXbDrpE7EyHg8JQfrxfOz+r+rjedUZGqvgRAcwaCpb5GXtom01yb7vIHQkRZ2lYd1/rKTBph5bloCP/2ZyX3PeSpzit97UGmqvPnc8tNiBHckOWox0Jrb0cL7Izmuj8R7X5Uy92315sITk5IY1FPirPFpB02TrOxEAyTm3NWVQL8qxj+UQ+V+ieU8pX6VHVkjOCqahFgkVn08kBunr+GnNfUdz/tPHnViRYZIPDsljgUf5vPHmoPdEzcwsKuLhyb35JYHtpJT2EHSJR5CGISBEDJgFEHJ3cj85T10LqeS28DtcuFyOhVlrzBc5A8Q2a7cLuXPuIRZUB+7uvRXnk+pBueBi1x4/9NIHnENK+beUOsVOIgRWduJMFgl2ah4KYT3wS2Lv+uQdTrckp+SB8FlMoDJiCTOtgTtbjeSSJBVb8xKrLssYzCY0OsNSLIeo58feoNByfdhlPT4mS3IRr3yO1k24NALU0JW/BZOUfFRGb+naqMRvVGtGCm8J+JjDrsdh9NRL48C2B1ObFYr9vIqJJfwz1lx2GsUQ0n4TMT/JLdbMahEvgV3TTU4qhDRdQ6nHb2so8ZWg6PGimSvQbb4k3z1g+wpKCb/nem4qytwi5rX2uP1CNT5BmTiIiWenhJLYZmVOx4uVIxXRbb2kVrNQGgsUxuhThrbldbu8AjIfDE/hvAAO7c9VsK6bWKhdXLTqGBuuCySk6/aiuMgJwyCQeedGsLtV4Vz8/SdZO45WAhi09l4Uv8AFj+exPBrNpGVr+4IDz1tJFLiTTx3XwL3PZvO+u2enV/9Ect08nPz5tMDGf/wZnZlV/veMUOLibBQWG6iz7sTvb2UXT++jeTaN5lUY/cz+3vQPbulAw0EiZSRV0NgFNs/eqqeZ+fAgw3xEyVZUe2/lb/pdUT17kr2hm0HvTFb31PUpOX1ANFUjQ3lH0XiVANBklVqkIzIFguSzoDeZEIn69VLvEp7CVmWFYNG1hmQDQYlyZSk0yllopUmyuU8CcRxjDBq9rrldEjiyMZowO5wYDKYMBotlBflUZWXhcvtIvLki6jxjyTvw8dxlWQqJau1p6kINH0tauoXDtZe8Nyoh+endSYoUGbKUzlk5ju0gMQjBLdtuHmERPve62pQ4OoPe5FfkMk1M6vIKxAph2VO6K7j5cd7MuTy9dQcRO+GBOh4+p5Ifl1l5c0vSho8CmgsNtecH8WUG0z0H52BSzmCPlxsr8wxKRbm35vIuBnbyMq3HyT7o0yEv4slTw3ktke2kJ7VkQ0EGT0u4sdMx12QTvqy91rdvSnrzfQZfSdZu7ZQ9PfSRhhn9aa+0KdGI90uPZXU93/GbfdYqjJBhmAMOgMGgwFJknAKD0c9C0E5dtinQljtsYnbTbW9igpHeQO0eOioo6e+MbJXvx9UsPd3Ltd3bXg8Eh5iaw0T4SkRzSQJnSzjqvXoiL93PuVyIo87m9Vzx9WO6VCm0NFYNo/GNxq7Wnh7OzVq5aEJCVx8pokb7k/n3w32RmQf9fZxtT19mhQeDR5IOvp11fPRs1H8/HchU+dVUVElHKESKdHw6YKBnHnDSvKK99/tyXTvYuS5GfHc9dhONqeJhbtJ+7dDjE5i9m0JHNe3gJHjq2p3m4c3EAb18ePhO0O4bno2ewoPlh5aR6S/kzeeGsjtmoGgONC7jH0Q566NZCz/UDEGm5Yv8+D7pPr8F+59P6M/RqMRvTmUY869hfR1v2DdvVbdRSv/V/9X/xGKXhTxCJBD8Pc3Y/APJKXfQKJ7J+LOqCDAZsTg0KOXdOhkXW0ab0mJOFSLONXKoGIYuJSfqT9xK94A5VBEObWScMhioZaorqxg++4drMn4izJrEaUVxVQ7rAptlw67mn82/UF6wQ6ll0MdodSN4eB+FSVeooEoxv3f9PQpVEzMkHNJOvtmlj9yUZMSlx2NJcRXvtHl9GOpCTGT88nvR41knSxxwamByhXyF9/O5LWl4vhWu87YEgzQDISWQLHBPiTGjw5n4hVO5r3v4OVPynEph2MQFwrfvTGAWx5ey/KV+xdRlZl1Swz+ZjezF+ZQpXgYWuIWr8wz05IxVedz+7NlDUwllc4T+gcw/aYQrrs/l4IS9Yx8X+FRDYTFTw/gjke2kpbZcLraBmHz8QY9b5hLybrfyfv3i9oLjir/DvpIslLTwCHOyvfeKqhD2CAbCfUPJyYsjrDgTsqZv0lnISZYuFSDQG/CHJ1MdUUxRlEy2eWojR0Ap82BvbZOgt1ux2qtptpdhd1dgzk0iLBBKezYtJHg6DCKcnII65fM+ne+oaaslGqbTYmbUIwNyaXsuD0OA6GPXW638rNai0Bx6wvjQxwFiEqOJqMZizGQ4IBAggJCSezUlfCgMLZnbCV9z3bSszO49uwJLPnxeXbt2VJrZrQu4w9lJIT2PI5el03nz9mXIburtZLGDbBh3/mvquSk0cOw+kPOmx4DoSU2NIeYMrU/7hJt5Ln74vhvczkPL9rTIluo1pVA3+ldMxBakVcquOpy9NH8PnSP2MH9r8gs/bkSs1FixAl+nHFKOGcfa+GOp9L5/nf1JoP6qEWdfn1rMK98sIm3vlCjcfdnWHMYKHaeL83uxsr1u3n5w+oGDATVfXfqkCCuPSuIifNyKLPuH7ylng+f2BtmTOzHzQ9sJiu3/lhaEeRmd90c5Jr2sd7jnyV/xY8UrvxqvwwIB37bGBxNz9NHse7TV/a57poU1Zu+XQeQHN2DUL9QdJIBa0UV6aVbFCVbWqnuxPEPJenMa9nx02vUlOQpNxQ8jzgWEEpe2e+7XDgcdhwuu7gbQcyJx5A0cih/P/Mu3S8dzpb3fmLg9eez4dMfsKYX4ZZNdOp1IugNlGz7G2elODJoOBWXR4brDEnh0pfwNwcSFhBO39hjOa7nKfgbLeRZS1jw5RzKrWpGzwNVSmOkXi1P7JLE1d+D8Umdh3pZIjI4FGt5KSUOcUbtoVRCHxpLv5sfZ+07j+PM3HhwRXPgiUjThKKVWtdHqO7g5XD3/uvMpP9n7zzAoyzyP/55t2Z303vvhBB6lyZFpNiwgR17OysWxHJ6Zzk9z653Z0NE7KJnBUVQwEbvPZCQ3nvbbP0/8767KSQhG0go/hkfnych8075zW9mvvOrXd4J4gOdhL5XFGqDAZO3AbvOgaTREDikF4Vb91Dz9Q7XTHsCICgqW/e4Fz6VRENNPQ//p4iyauXf2+ejzonvPrNPyR+ad3BPrGDnK9FDNbrM7D00juaDEXRqWP/ZQCrzd/H3N5xExxq5ZmYEVbXw4ptZvPTX3jz++gG+XCFcv9xfQkyoisWvpHHTAzvYmqXAg6NnXInwQB3/fjSWtxens/TXlgmC2hLD7aJ59igfRg715R9v5mO2CIvyliMRhz989/pAdu3P5p5nK7pJFdJTi6MAmiPLX+H5mPrf9hoFa76jTA6807K/tp7+PmG9GTrzHja98wgJoUmMTJtAQmgykmSnrLKYXQc3sT59CyW1B9vIkMRaGCISSZ51H3sXPoq1svkV1XwBHjJuObeTROSovsRcNoGNTy+k9/kT2Tn/W7Ao4EIfnEDfSReRnbUfX78Qag5uoyR9LWpX1E/hgaDWaHFYRfhat0rDiVpnQKX3xmmpx0dtwltjIiw4kvioeIJMUYSZwgjwDcbXKwgvjYaDFZm8u/xV0gt2tnOwt6dOUHa5SlIxeeA5DE4dik5t5GD+AT5c9Rb2dr0PlDUXnqXi22EhAdhUGjYVFruAt4Rk8GPgTc9SvOMH8lZ8fggYV/oUcf1NBjV6tYRODxaLg5IquxyE5/gU1w416FD5meifmsamlb+1OxRhCCrUPjL3qSVUWuFZIoxEhautcDkRhpzifxXGyDBCYqMx+hpoDBEuOf6yB4pOI8muug61cGuVkIR6yeHE3tiApdaCTa+muLCY0meXtHeYdI+G1OVOq1U7efiWSM4abeD2p7NYt+MovU4k8PfRUVtvlcPBd9Ngjw9bdFOvJ9J92k1TOnGa0QmG81czsr+OVx/xxVFfx9YDPuzOV/PHhlJWbmikpg5+W9SX+R9l884SEY+gGSBMHmHkwVvCmH5dBhYXLm5OmXvk84wL9+K/f43nugf3UlTdfHG1hxQVBtFzy0U+BId68+zbOViajNiaIcukYb689lgSsx/YxoZdzSLnE3OTtb10xHHnZ/LDpPPG18cfL51efidnFhygSk7e0/Uy8v53Sf9+ERXbVxyiYnC/8ST8TP7EhycREdGf1OHnoC3IoaI8i9K6EgpyM9hVupvqVv27x67wifs337g+JF54FzvnP4S1urRzlYaLz9QGHYlXTcacGoQ2vYSM15cq4Y2cDrz8wrHUV+OwmYkbNoWGmkqK96yR+zQERxPcdwymoHCKdq2h8sBWWa3hG5tGQMIgDCFRBAgjXEMsaT6RisGYpFZcDx026hpryC3N40D+dtbv/4XCqgIcDkV11TbeZNv3sajnpTEyqM9wDubslylx/uhLeGfZazTaFO8Doe4I9A5Dq9dSUJrb5Dhh0JkYmzwQH7WKVRm7KHPRV/LyZeANT1O4cyUFP38qX0NuOYyQ+I0dGsLoAQ4GpIVRWmLmYKGdPZnVrFhbQU3t8XpniaBZEtGTBqMbl0L99kxUFWbl4haUdIkdHWoJjbA30epxapxYfFUEhIbjpTdikew02m1YauqQLDZFAiOSqVlsOCwWOaaFub4BqawMdYUDq8WBxWLFaXFgr6vD2WiT+xFrEDS2D/7TR5D+8MIevGCFNwucd7oPT8+J4cn/HOSDH44+q6TJqOLjF4fxv+9389GSWhoa21/T/0+X5v+nuXb9hD+KL8aPjOOSKeGYjPXEh5XSP7GBRV87ef1LMxm5VhpdrzRxGH//Rm+W/pTNy5+4mVyJP3fbpQGcN8mbqTdlN71mmgFCy4uia4dTrxgRSCSS8+/IwNLJy8cNEO6+0geN3sjLC3PkTIxudYc4FkICJf51bwylhVXc91qlS8R7bF7p7mvSkxgQOgKJDoggMMAfX5MPJoMfAT4BeOkN6CQ1Gp0RARQMKgNqtZacyixWblpKZuneI+KEEfe+x94v36T6wG+uV79CzSBtDMMHDic6MAp/3xDZJ7/IqsIeG8Wqj5+kuLwAs62uhXdAS7sTwRttpR+BiYNJPPs2ti64H2utkOC4y+F4Q1kjTYCR+AfOR6fScvDFr6kvLGuF69R6AwnjL6V09xpqc/bgMPmTPPkqarIPYrPWE5Q2keyf3sJmt5A4+iyy1q3CaqkmMDKJXsNmULf+OxzmesUdXUYANqxWM0WVJVTUl7n+rXnE4o17qEFnmC6BlF69CPILxt/HH7PdzIoN31NaWSCH1Y0N6cWkoWexaNl/sNoVoGFU+XHnhfPkGAzr9v3Gig1fyvMdM/AMehmiKS/fQ0DMAP63ZrGsqlEJgHDTM+TtWknx8k8UgCAe3U6YNi6QB673Zen/Svg5Q0VOfgNlVU4sNjcYPiIW6baPvAL98D0rjYjzx1Pw03rU4n0vYlYIrCdAmd2JszAfqdSOwyxe/Q6cNjuSzYHZbJHtVGzitSIAghyVS5EMtNazKFJD9zK2vDxcNqloQr0Z+sAVrLn3TVf8gUPtqrpnymlJBl6eF8fqNcU8vbACu+tMOrLWm6VDbz2RQpCxnisfyKWyoX2o6qOHBivIS9+DMOjI5tK9X50CCN1Lz1atmXQKIz1zVyhXn93IRQ9V8+v6ZqZTiK/m0+fj2Zleyd9fVw5LlwCVOVdGMH2cgyk3K3H8m99W7svXzZ5dAwiDe+t55u4Ipt0qxNWesICG+6/2ocGq541PRBRHZYzif7UG5l0TwuiRPpz/l0warV0by9GSv+Xo9Ro9/sYgwnxjSYvvT1h4BIHGIAxeXnK+CLUkLPIdNFgbqa6poKCkiF0HtlJUkycH2Smsy5OHc+HYq0mLGcDzix+jwVrjsdFTs1xCGdWIOYvY/fl/qcn+nSj/BCYOmkJa8gB8vEKoqCnhpw3fsmb3ahod9USPnoFXyijS333AoxVpSTfRW0CfscScfik7Fz2MrV6ktPWkSEgalXxZJN8zA0uUPw2L11H6257mfB4SGEMSiBs0jj0rPsZptxLWfxI6g4nc9d/KXJA45VqKtv5M9GlnUbR3B5W7f5Zppg+OJnbKVWR++Rq2BmG7IMgioRWhonEq0Rvbma2fVwDnnX4JceEJaCUvArz80GuNWB02yutKKSjO5adNP5BetB2HyolereeWcx7g+w1fsDdH6L4VHrzjgnn46gJZt2MtE4aO4+lPH8Jmk7h88vX89PMnOHV2Jo2azdINiyksz0bSeTPw+qeoydrCgSULWo3slktDmXNZDT4ByVRUSHz9fQ7PLaqkTJYcKJ4ixze3oYR2RAzDb5rFHzc8L9tj2FTQ65LJ2Mxmsn9Yh7Pe0gLYu0+U7tuvsjxLA6OevoE/HnwLScT9apcN3bvWk7PnUE4XcTDsfPiPCMxmiVufLsBs7ibKi3gcOPnjg2HM/zyT+Z+XywG33EWM1tuo4a5r+vHO5+kUFCmu3N3Uuycb9pjX6eoKHfMBntQdShICJPz74XBG9/cl9YK9TS8SZV7KS+neywOJjFBz3wvF8uvbvSjxESo+fj6Vx1/JYOma5qAtyqHafB0JJtVqJcICDRSVmbG6oW0HxBvZz4sn7ghn6s0CIBy+mIx6eYw3X6Qjt1TN4qVVsr1BgK+KhBgvbrzAm7BwE4+9ksfWPcLo69hkaxR607H9z6G2tpywwBCivBMx+huxWWyYLbXUmmupqimhvKqSzOIMLE4zNnu9LP2wOtoJONEi/u6Q1NGcN3gW36xdzOaM3zwyyWspz9FpvAjxj2T81S8gHdhLjFbCJlmpqCziYMEB1qX/TrVZxLRww0FImjiTKouKst9EzISuKWZE34F9JxA++nz2vP8ojobqTtfVveqx4wZhD9IRPH0YpWWlNCzbSvmqvS6nBBVeQZH0mnoNB374iIayDCSNFykXzyV75ceYC/aCWk/CtOsp3LiM5LOvZdfi17BWFcjN+0QlEzbqIjK/fQ2Hua7p7ekKidShl0BMaDwTB0xFh5Ga+ioKq/LZfmA9ddZaGu3Nxq86jY6E0N6cd/os9mensy93B9FBcWzL3UFlZT5zZz7Gvz57gviIJC45/Sqe/PQhdJIXV02+hY9XvI2fMZALx1/FRyvfoLBCAYf9r34ML/8o1r98U6uNcecVocy9ysH8rywcyHIw7rQgBvby4puVZXz+Qw3p2Ras4sV9XIpysemGxzD8lov59foXMUUF0eem6WRt3IMzuwR7WQNVecU4enCM8h5Qwehnr+P3tz+APcI2pW3pk+QnR8LcnyUkpp7TTLSv0cB9lwcxZaI/c57JYds+mwz6u6uIY2B4qoEH/xLL65/ls3x1jStDjmK7MX18AKOH6Hj6jSLqXI5a3eFX1l3j7+52TgGE7qZoq/YkkqP1/OevweSXN3LNgyWKu1iLPSF+nDXZj2mnBzHnn5lU17XeMPdeHUnfXnoeejGHwjIRXMldmgGCWuXkkilBJMT689qHOVTVChFrxxtv0khfHroxmMk3ZHQ6+7QkXy6aGka/+Dqq6+1k5jjxMUJkmJaoKBNrNhTx4fdmdmdYZJG459u9064PU0F4eEj8ZcY8amtq2VewjaqackpqS6isLsdqFwBAIC0lPPCw1NF46U3U1VeyZf8mWb/erCJp+VPze/amqfeSU5rJDxu/cmVFaDmcltvGJQeStASYghnW+zTCAyPx84tFG5PGzo1fk5+1lbyqLNnYsDWFXO1IanzD42ioLJFf2kdCw6ABkwgYciYZHz+lhAn2kLwBKdGYxvYiemBf9i3/nZrf9mErr0Vj9CFyxNkE9h2DzWrGnL0LlcNCXm4h0Wkj2Pv5yzid9Zhi+hI1aRYHv/4vA2bdweYPX8ZeU4yk9aH31MupKS4kf8N34BDgsSWo7XiAzaHD24NKCs1E8KZx/c5k2uDzcdidFFUVUFJdzM7cTWw9sJHwgChuPfceXl78D84afQHCvfOjlW9j1Jq4fPItCKtCX0MAhdV5fPnbB9RbFPVe2iX3Y0scyL6nr2yy8BC0nHttCDddpCftAmGDAyaDxKj+Ri6YHEhilDffrSphwZdl1FvcK+zZXD1cpk6qKTTxm9iX/rOns/Ghd0icNYGyjXsoWrcP/8RQGp0OYgankblqC5YCYVOjjK+Zkz3lmMOtm+zhyqhnb+SPDz6HzeIFfmhRc8aoECYM8+LZ+dnU1Lv77bx/8Si4bHoQj90eykPPZfHlz3XYO/+syyTWaWHWmb5cPiOY1z7IZelqcZ5I+Brh1UcSeffLIn5aV9eCm3tgEF0edc98cAog9Axdm1qdMDyAVx/05ZoH89i419YuQEiJ1PLkvQnc/c90CuSwx8rWFUdNaKCalx+MpqrKzF+eKnKlWVZ2tkYFpw/x4s5rEgj0tvHUa7n8uKG+VSrm9qY3dWwg913tx5k3ZnYqztZrVAT4apg4TGLSaPDSq6itgWW/2lm3x0lZpbCnOHrfiq4tgwIQrj9rDqu2/EB63i7Xha+oYdxF/HT+yMvJKN7H/oLdxAX0IjQ6il/WC0O8tq56LcHXqNQziA6N43+/vie7BHZUAk3BjEubwsDew9CpdZRXlvPb9uXsLsxkyO3PsWXR41QVdOAy17VJd1hbliAMPANT2jhyv3gWZ6M7QU3nHYhDV61RodLrsdaLvAXiGwcakz9RI2dQtmc9jVV5SGqRTVIr5zboP2su+5Z/QdSI0YQkDmDvj59SunUZg2fehSE4hrqGSrwDo8jZtobclR/JXg6KsNmzS1OxQejoVahIz1QqiUGJowj1imZ/yRYq6iqoM1dhdhko6jUG5lzyCMH6EPbk7+GLXxdRUVeC5FQR6B1MmF+kDAoKKnNptCq5RcT69511H9bEAex7ZrYLIEgYveCZO0JITdVx5vU5rcyFBVCYMd7A3VcnklNQw8Mv5rAnV+ju3fM9dpeH7xl96X3ddLK/XoWm1EbeT9tQ6TUkzRxHwapt6FODiO43iJ3vfoe9XEiZFMlDd8J6sTqjnriG/ev3UfL17+26rPqZJB65NYFvVhTwy2azhyJ6NWMHG3lhbiTfrMjg6QUiP0fn/H1kNSQESLj36ihmTvflnifSWbnVyluPxeJwaLjnmUzqLc283J30O7Lxtv9Vd1zu3dFGd86p622dwDOQo8RN8ePBm8MYf9U+qurFYJv9dBUQIPRaKt5+Iokn/pvFzv1t4wekJel44IZoeidK7NlnpdbcSKC3F3ExBsyNTtbvqeafrxVSKYyPPDiPpo0J4p7Z/ky5WUSu84CAsvhdFvAJqwOXn77b1fF4GGm5AcKd/Lx5KfvzWxsRumckLoKzx17Iou/flPlKeHLFBMdTXlNBfHgyNXU18qVRXS/E/a23uQhIdNbgWXy8+i1ZtK1ANgmjzoCfdyC9I/sxou849CotJbVlpGfvZMVW4c7oBhMaTpv3LrsWPkG1EMW3KZ5dlh1viOZ1Ez8FDJiIKXUMuV++ILsXelaUvAUiJ4gblB4qeXKPUkmu5JSJGDP+IoIT+lJXWsr+X77BXpHlMkrR4B3TH0NIOCWbfwd7a1sIpS/3VezZCD2Zf/ssrIw8xCuCErPILnoIn7t+dTucNgOEe7EJ0PPM1U0ShNBAHf95OJyFX5Xy9WpB22YQr/yswd/o4LkHYkmO1/KfRaX8sq2GwhK7az96sCmPlhwiqdvkviTccha1aw+Q9dYP2CrrUfsbSLp8InlfrqGhpJK4i8fRWFlHwdL1TVK07h5d/3vOx1beyO53BRBvr0hcODWU2ecEc9EdOztMct/MkxLRISqevT+SugYzNz5W3A3U8qyJx++IY2BvNVu3FzN9YgxXzN1HerayX7qbbp6N6NjW8uB2OLYD6q7ejv/EJLQaePiGMJJitFzz11w5Za/b0NA9T8FkBr2K5+al8N5Xxazd4hb/tWY/P5OKiSP8iI7wwaSxUGeBvGIz67bWUlAhIty1fj0fjo4ThgZy9+wIzr9L+J0ff0p1ec1lX26J68++i583LWkDENztoYzc1AAAIABJREFUTRsyg63ZGykszWu6/sVsvXQG4qJ60Su8NyE+YbKtQUlVYatLUoioZ42+gfdX/ofK+jKiAqNJiUwjIaQ3vr5BFJTlkFeZxbaMTVTWiQA/h9JRw+gH3mX7e49TU7BPbrtZqKv8JPIf2EUMARnVeQAYJAm9yReV3hen04q1pkL+XpSgARPwThpB9rev4nS9iIWPu97kJ2ePtNksOC1CJ6z01TL8cvNrvX1eOHRkzb93xDstv3AnhXIbxXV5tY/wg/bp2QxSWu7A5i7SLp6DI3EAe569tkmCEB9l4N0nI7nvuRzW72w/gZNo10sHk0/z5ZrzQ3E4LHywtJwVa2qodTknKTu6pfPkEU6tg898pvQn7o6zKXn7F4q++l2u5Z0QRvi0QRx8fxW2mgYCBiYQdd4YdjzxfhNPdvdF1+uWqRidRra+8b8ORirhbYBPXujPM6/t45cOaKp8LOGlgWfuiSUqQmLus3kcLHC7w3Yv/Q5tTXCQVqviiTsjuHyahr+9XMj8b13qy57t+oRp/SS8HU4Y2nU6EKNBxVt/j2H1unLe/LxGPiHb24xCXB4f40V5lY3KKnewj/ZqKge7eAm31b15DhD8TBoG9DbwyyZhWX4SsoALINxw9l2s2LiEA21e6BIatZYLxl/JZz8Ja3RljuK/lJg02W98b/YuNCotY/pOIDQois9XLmxl7CQAwtWn38kv21YwqG9/Qv0jKSkp4ccd31JeUypLHax29+XeHiuoGXb/fHZ/9ByxfftRV2eldOdaGirymoJMGUMiiB02FQcqivZupCpzW6sIiG0OLJWGkJTh+EanQEM1eTtW0VClxGgIGjDRBRBeaQIIar2JiN7DcNit2BqqKcnc2QRGVCo1QfGpVJSUyDwg1AAOS40r3bSHV0YLw87msba8mBV33ZZSMw9b7nRv9VSF1PPvwhbfl/0vuY0UJdkY9/l5Ucx9NosD2SK3RNvemyQtkorQYBVnnWbk6otCyC5q4IlXitibp7w6m104xW/dS42IWWOIuHwM2+5+C/tB4eoqET51qJx6O++7tTJveadEkjL7TDY+IuIUdEfgtba0EADB5DSy5TAAQXz1zJxovE0Stz+Z0wKsNNPE7dD76I3hzJjqzy1/y2T9zsYmFWr3Uq99jtLrJP45J5JpIx3sPmji0rn7hSdoN69cT3Hz0bd7Et4ORz/pnm9BOS78fdR8+3osf30ln5/XipDGnTGW+0Dt6LIXLbiPovZm0X3WvD1Po6PowQUQbmwBEFofFiL1q54LJl7JJz/Ob2Fs5uD0/mfKIX9Xb10uAwa9xsjsqTfx3a9fkluVKQ9KGMAlhvfhzvMeocZSw77sbSzd+AUF5UL/7Km9hZqh989nx8InaCzOALUXkgAUrabdlfVqKQxve7kE9Z+Ad3JrCUIbgNHEfwonRvcbgyUoSQacapuT+sztVORt6zDCZMLgCYSljqERK5LTxsGVn1NemNVmIVUaHb4B4XL+B0t9HVazCAB2LI7zznlKZKUU4abtLUIfCrDkEFkqgdQL7kKVMJBdL1zXprHD7V+3XKClhCIhUsvDN4Yxdqiepb9X8+qicnKLHVisoqXuV831ue0cfMf3Zv2s512wDAbfdwnpS/6gbleu/G/eKeGkXHkGGx9d1KMAwUfyZtN/P+9gQRRKXnSGF1denMJFt+2QJaBuGO/+SK2WuOKsIB68JpCn3zrIou/dWWS7T1F1eI6RGNHHyF2zo3nm9XT+9XBftu+v4OEX87AcY3fuzjm7Z2p0fmf1TL9/8lYFWVXERqhY9Gwadz21hy17Di+aal6Iwy3J4cBB20vjz0xkEWb3hrPuZMWmpe1KEERMhIsmXM2Hy990ab6Vi31o0ihCAkNYtv6bJvOs2VNuZs/BdNbv+5nYsASG9RrHgJjBmAyBzP/hJXbnbfJMBdCK4BpG3D9fVjE0FB1QzLub3LE8W+3W63f4rRrUbyLevYa3UjF0vP7N15hffBjmqnrMFcIq2x2XoKXvdzMgUskhlH1kLxybxYxTSBzaufg1Bl/Ckgdgt1mozMvCXC10xicGQHDTpCU1Tb6B1FUrkpjUi+9BiunH7hevawHoW+67w8+jWVolWhOSLDh9sJqzJkUxOEXL6k2VrN1uZvOueorKxKXYEnAeBY0kSJs3C/3ASLZc+RLYlHaTzhxOxq9blYAsOPEfGEfo9CHsfaYj8b+np0bH/Njr1mn4St5s/M/iwzaWFK5m/jODuPmxHezNara9UqgtMXaAgUdvj2TpL9W8uEhIuhQ54LG4tEQf4cFq3n2mP6+8l8GS1bVEBEo8Nieexd+Xs/y3ihOMoz1dt67VOxa07tqI/hS1FYAwqLcX185M5q8v76CmRnkxHMUR8KegTHdNQgCE66ffyU+b2wMIyGmKLz3jOj7/6SMa7YqRoaB9XGgSA5OG8d2axTicitvo1VNuYVfGPjbs/5nEqDR8DX5YzA2cPeoyPln1JlnF+ztRxbTeRspvakbMfYcd7z1BfeH+QwBCd1GhuZ2gfpNkgJDzraJi6IzP3Fde/NSRVNdUUrknF0dtI045tGZrMa/TGEJgr0GYjCZyNqzAaXUFPepwGi3VDN0/1+5u0T1acVkPvuYxzI2N7Pzo6W64iNwSPwfeBhVpiUbGDtExc1oY+UX1bNjrZNHneeSXOVxi865IlA6hglqi78OXUhahwfHpJkp+Fp497qAqLosTjYr4C8ZSX1tN8fdbXOqm7qYmyAABExs7lCA09/nJcwn876cSPl7izkOj/C0xQssbj/Vizc5y/vl2MXUNgiuPgj5dnKZeA3+7rRc6TTkPvlyO1ab4pw/sbSQ6VMuy3ytlVcOfvZwCCD28wu2padtYc7tW4VguxrHsqydI3BlAEKf76f3OIC4gkUWrRYZExTwsLDia0X1P55vfFmO1WTDqfbhi2q0sXvIu5Vbx0lUoI3IkXDv1Tr76/WMyCxUjQ0+LGyCMvG8+299/ivrC9MMCBElSYQhJwjt6LNTvp3jvGjkcsaevbtFfQP/JeKeOJPcr4cUgVBkeHKaSROSM4YRdOg6/agclB3LY88YS7JWKF4TGO5yEs24mbMAQLJUVsgOLn97Aj49fKeL0uQxulUuwdX/ud7HnL29PadtT9eSRGv0Zet1TbP7kFeyl++S4HofK7DoDXocbn9swVK+Dq84L5bZLAwnylVi3o4C3P6nlh/VW5MzZrYpbE++2YWj9V7d5q2RSk/LgLNLf+5rBV81k14IfqM9QAla5i09qBMlXTGfXf76kUY6FcDTl6CUIoOeNv0awL7eWlxeU4c6tGR+s4uvXB7BpbzV/eTwDc2NPp1VrTQcxs+ljfZhzRRLTbtviMi4/eXj5aFb10G9P9nuiO2lxzNpqKWDWqkVsAUiINhETrmVAmj//ejOzKc53TwzKoFfTv7c36dnVVFQezZHXE6PzrM1OAYLLIOzuix/im9+/JaNgh2yk5evtR6/YfmzdtxatpGHcoKkEeQfz8cr5ispBJocTkwAOE2/lp23fsj9/l2eDctVqAgj3v8O2RU/SIAMEOX1im3YkjYF+l83BrjFQXVFMROowsr9bSNH2nzzuUwYIA87Ep89pZP/veRDifw8AgjE+hD5zLyJ7+QbKlmwm7MzhlP2xB0upEuUx8YzLMaVMYtfHf8NekU/Y6Jkkj5nOb/+6HpUIa53QH7+oJPLWf4+1vobAlMEE9puEwUvLvrXr0Jhzqcvd3SavgscTO8YVfeP60WfG3ax95eYesRFoCZsEJ5j0EmeMCWDycC9SE7ww+ajYvqeYNVucZOTbqapyUlxpoapGJLgSqbrB1mSd3FoPr4v0JfXu89j+5Bf4RvgTfc5plOcXYtkjYqc40SeEEdo3iswv/6B2R36PyjJ73TINP5U3Gw6jYlD2iJYbz9MwcEAYD72UQ02tnT6xOp68PRqb08ZfnsihvNbz5OLdxS5GLy23XRbFxh3lrFpf3RRJsbX9lwcAvLsGdBzbOQUQjpr47YtT3a+FQzMviO6MOoiO1DN+hA+xYV74equJCFaTmW9m4y4n/1uWL+c76KmSEO3Fs3fH8NH3B1iy2onZ0nMgoacYTACEm8+dw/KNS0jP290hqSIDYpg0+CxyirLZlrUBi7URrVpHamwfksJ7Y7E7WL7lOypE9L8mfbBTzhQ4c9S1/HFgJfvzlTTEnpb2AUL7AgFJa8Q3IoaaolycTjWjbnuB7R+/QE2B56BE9Bc4cAq+fUdz8HMRKEm44h3uAFNGGHreCCInplL43UYKV+yUg+o4zM1y04BeI4mbdAV1OTvJS99Bn8kz2bfsM2oz1xEx8hyM4UnYqxuwVRxE0uvw7zuS7J8/w26uoa5aReKYURz4/l2PL6P2FDXt07zZJFD5+9Hzr/AuiBgyEb/BU9g9f56r26Nv99DxK6dF80zF+SDsFOIjdPRONtErEganqkmKC8RqdVBYXk9FlVXOnmizQp3ZQKNDjd2h4ZeNNazfWiaHePZKDGHQLVNZ8/AHSDYn2mBfgnrFoQrxxqECVWU9hXuzsOeL2BTdP6+W80y+eSq+qsMZKbprq0iK1PKvuXG8sigHL52TGy+OIDvPzDPvFFNSqagAe3a0bVcoPsLAlAmhfPRVDrX1LaPXenoC/Hnq9dT5/eehUKczcVuXH2pHLzz1xTEtp03BKDm55Bwjk0ZFEBsXAPZacgqsLP+5gO/WWeV88g1mcVk7XCGLO/ClOvSfj2AFe8Xq+dutYdz492waGtU4nT2IRjql35FVEADhlhn3snzDt+zL7RggiNaDjCGM7z+dlMTe6PVe2Gx2yquL+eTHRdRahS5RCaWqkFI5knQqPReMuJJNOWtJzxMJgDwvCtBQMbKVBKGDk66Feqn/zHuoterJ/OrZLq2JDBAGTMGn72iyBECweAAQJEi+8VxMoTqKf9lNwaq2IEiS1GiNJoLHXEX06LOpqa5m9wtXEpDYj6AR53Lw61fxSRhJ8KBJ+Ab7sfWN+7E11iqieWMwSZNmsv/b/3pEuPZhdutPA3yCOHvUhfSOSCW3NJM3vnvNo7Y9qSQCQUWPuQCNKpSDv7zeoxlF3JzWFtoIsKDCS6dBr3MgQqgHGSXGDYPUFG9CAsMJ9DehUtkxN+p5a3Emy34pxuZ04tc3hsFXTmXlg283wQ91iJ4+50/GLySY+qp6tn39A/ac9g1LPaGRp3USb5qCryTcHEX2zMMVCbVaxTXnBXHrFcEY9DY+WdLA8wvyqBdB346RQWLrEUokRBsRMUQysxVbm8MBlCM4fj0l4wlR788+v2NEZBV6rUgkolgli8iIAT56gn0lJg3TMGBAICaDD+VVTjZuy+fn3yrYkauEYlXcZZTAP8qWaOvu092TSIry4snbY7jioXQcTndkxO7upWfbcwOEH9d/e1gJQvMo3KzeHKhGq9LKNggOpxWztVFOV+w+EMSKTB1yPnklBWzP+aNLk+kSQBAco1IRNmgKUUMmsPHtB11HkufvJkWCcCbefUaR/cVzHgAE5Q0bctZwoqb2I/eHDZQs2d5mju7XrtY/jKRL5xEQmcLmj18mZsAwStYvperAJgIHnU/qhTexY9mnVP32Lk5XTmeVfzy9Tz+L3V//u0u0G9tvOoXlOWQU7GqThCcxOpU+sYNoLLAzaHhfXvj0cVmV4qaU0OJIKrWcqliI1UXRa01o1BLCvbG2rha7Q8lo2HayKmLGXoTa5k/2H++4svh5vgZdmqSnlZtO546klO7LS8Kvfwz9L5vGrw+9idbXSNT4gZhCAtnz3a/Yi6pQhxgYePZE8vdkULJpv5zeuadK0s1T8XYa2PpmZwDBDcuhX4Ies83G/ly7AnBc63e8VuDUxahwxyk6dMsukZg8KpxJw9Ro1DYC/fVyVLX0LKcsJsvMq2LL7nqKy8FohFEDTQzu48+a7XWsWlferYZQnkxHBEp64cFUXnlvF1v39bQQr2dYTAYI593Ljxu6ChAUtk8M60X/+EFo1d6YLTWY7WZyizNJL9gj+8QLqkwZfC4Ws4qVuzs/6FrSvUnFMHcB2997knph5NghGSSM4b2Jn3g5mT99gLl4X5fD8yoShDPxThlO9lcv4mzKfdBiVC36d183mgAjvefMoCwrn4L5q9plHQGnYiZdI9PDNyqe9OJKYv292b/4JSR7LYGnXUby2Vex/ZO3qdsh6KQc6fEz7kXnbCD9638f9gXmY/Klrq4Gvc5IqH8Us8Zfh8VSxyerF1BYofjutywhvuFcPPZqyutL+WTl/FZ/C/WLYmjvURzI2cm+gj3y384dfSm5xTmkxKVQUFLAL9uWtjMegSwkYsZeiNrmR84f77j0zp1cTz3D2p5s4UPqKAAh9bKpbHhyIYlTR1KeXUT55gNILl4WM1Fp1AQOTMBplyjbkn4E/Xj2iQAIfpKJTa9/0ekHzSqXZnfP7gzI3ekATlU4LAVOGBY/OddJkE9h8bBAHVEhihyg3gI19Y2Uljux2MRrRiHzGaeZuO7CaHy8LSz+sZQlK82UVhwucmLPUeXRv8Tib6rknn+JIDYnX1EAwj38uOE7DyUIyhzFd8NTRjEqZTzfbfiS8roy2XhRo9GSEJSMt9GHX3evoNFqZvLgczFpA/lq3cIuIWk3QBg9dyFbFz1BvSvS46FKKPky1foxfPZjZG38iZJt38uqBUlrQCicnQ7PPBlEf0EDJuOdPJysb15qHyC0s8TixR1z9kiCzxvClmc+wJHRlhdUfpEMv/ZRNn38Gv0vvJlt63bQu08Muxe/iiGlH6njL6OyoQaTRs/2hU/gbCwnduLlxI0+h3Wv3oWlwhXmuoOT5uIzryHSPw6dxoCXQ4PJEMSWA7/y1dqPMB+SUyLCL0qObZFfnMGyzUuolQMwKUUkzbpy/M2kxg9mw+5VLFz9X/kifPCKZ3jti6c5Z9SFRARF8dxnj7X/LpKEBEEABG9y/3gXkWnkWGu/j2YX+vePJWL2JKx5VRT/sIma9FxURjXGAb3Q6jRUb0rHXmUW/r+EpSZRuEPkB+mZOQobBAEQNnoAEI5mzqe+7XkK9AyH9Py4T5AemgGCIlZ2RUdzUVVkyvP3VtM/Wcv91/XC6jTzwdd5fLOy7hAf2mO9DBLjBnnzyrwYxly1i/qOkxWeIHRuOwxx0d90jjBS/I79+cpr8XBFrIVWrWFc36lEhsbyze+fyqGSVSoV9Y312O1W4oPTiA/uxcaDK6k1V3HGoHMJ8Uvio1UvdekoVXhBzZgHFrJFxEFwvWbbWKloNPS//h+UlFRQ8ccXBA6bSkzaYNRO2PPNm5Tv/qMpd8LhLisFIJyBT/JwDn7zsscAQUgHoiYOom5sKL28Y1g7b36bbgwpY+lz8R04KisoPrCJwuXvMuT6x9AGhuG02Nj70/+o2LKCxMmXEDXsLNnK3llfyvqF/8JeK9zsXBKqdlhcwGmhIAjzi5HDQZfVFXP5hJvJLs9k9dbvXcupRMWMC0pl9pRr2bxvPat2/UCoTziNdisZReKiczIweTjnDbmMrRs3029of/695Bmqa2v425X/Ijc/j/jYWH7b/gNLNn7bMUAYcwEqmzc5axa6UqodLwF3Z9zc9u++A2KJvf1cGtYfIGPBjwyaNRnvAbGUF1di0zrQhoay497/NvFx/LljKPhlK42VreMPdL3ntl+IOAjeTiObTwGE7iCn5230wDXSA016Pp+Tv2Y75BPpc4E+yV4M7O3HhGEaSqsMbN2Vz+c/1mMVJsWSiL4vVKXH6wCS0EpOli0YxrNv7WPpb4eXIpyITKIAhLtlL4bOAIIYv0rSMH3I+egMRpZvWEL/+MGkxg7A5GVk6YYvSC/YRZApnOkjzpMDKH206h0mD5hOdHAfFix/rkus6ilA8InrR98rHqW8ohhNfTmWslxK8jKp2bkRp0X4qXsWWKurAEGlURGcEk/pnoOEn94PS18jA/qexk93vQyuELJuNYTKy4fUMy6mMCuL8j1rcdpFxJpDPSRcyZ80fkh6H5z1BTjlOA7u0sznol1/UyihwaHkF2dR21DX5JIpAEOv2L40NNaSXXSw6euzR17CmYPOozQ/n0prJXqTntzyLNbvWU1GgSIqjwqJZdqIWfh5BbI7exMrNn+NxWalf/wQYsPiKK0sYt1ekX64vT0nGy8QM2YGNquJgrVKGOKTRYIgRurdJ5qUu89j0wNv4qxsDuMspES+A2MJnjiMAy9+3jQrbVIofc8ew873f8QqfAm7sQg3R6NkZOt/O1cxdGO3/y+aOtZceaz7+5MtYmvy+flI9EvUc86EcGIj1fy6qYY/ttWQnmmmztxsHOfWsQliHA+I4B71rKkBDOnvx7znmg/jk2WBBECQczFsEumeO5cg9I4dwIT+Z/DesjdotDZy47l38+Oa7zhzxAyWbfqKg65XfrhvIjeedyf/+PA+OW9Datgg/rPs6S6RxQ0QRs9byNaFh0oQ3NSX0HgZ8Q5PwGIx01hRhqNBuKC1MLrzkD/aAgThxdAxZ0Wc1hfjmHgKtu4nbvRAtHFBFL73C8WyJ0NzcKCWQW0PPSgO/d1tZKsQqiWHK1yeHJ5G39jBhAeFEeITRZBvEPOX/Zcd2etQu0xzlRG78002kzwluh9hAZFYLWYqGqqorq2kuKIAm1MxKlV6FBkCfdHrDFTXVmBtMjhtOdKOaKLYIESPmYG10UjR+g+6tN7Hu7KYoU+fSFLunMHGhxbirBBhixXJjTHCn4SZEzj4/Trq9hW4VsaJSBAXOWsUlqwKitaI/dN9J5FI1mRQmdj2n1MA4XjzhmtzHPHyngIIR72CipvjhdPjmHttJA11dbz7WSEfLy/CYhHSAhF8p/s231EPt8WRqtM4+eylNP76wi62ZxwxD3XfkLrQUhNAEBKENtkc2zZ09qiLyCsuZsuBX+Q/Th10IUN7jWNrzhqWrP0MyalczP6GSP5ywT388+N5jEobz5i0M3nm03ldek8qm0rDafMWsk2oGNoFMG711NEHXGkNEIQNQvspiZWLFAJSo0mePQWLyYSzoZr8FRsp+XFHO8GcWh4Pbr2ZuxUlNKX38CSM8YGEJqagarSx8z9fYm9o3X90QDKPzP4HJrxlJnM6hFMhFNYU8vIXT5BTc8A1Mnd/He+Xzg+s9qCM+LfD01lcmNGjL8BqMVG4YVG7GRu7wJ7HvKpPnwiS75zBtic/wZFXJZ876CSGPDqbg1/+gTk9n7rK5hDZGiB40gDUNshbLTxYjv6Mckudet08FYNkYuspFcMx54Pu7rDz/dbdPf7p2lMAQnioDq3WTn6BHbucmUyRGBz9tusZgrkX/oW5CfyxrZbPfyiXResnS1EAwp2s2LjUI4Bw7mkXcrA4kx0Zm2WDuMkDZuDja+Tr3z7F3zcIo8pARuleRvSeyDlDLuLFbx8nPiyRacNm8NRH7sA5nlGnCSA8uJDtC5+kLv/wcRo8a7XjWjJA6H8GPr3cNggNHjcZN34oNrWF/J+2t+VVtYrgQUk49CpZrqA26QhJDscR7otG64XKocLWYMZWXYOtwUbdwWJKV+3EaRVeIK3VCkNTx2DQGMCpIlgfydTTzpP3xxtLX2Jz5q8ej7fzikd2pAl+ih03C8lmIPv3BS4vhs57O1FqmFLDSb7jXHb+4wukilp8BsURddkEijNy0WQUU7O/gOqd+U1AQC2piZh1GuaD5ZSt3eOhMsuz2YbPHE1wdDQ7XvzUsw9O1TphKXBku+mEnc7xGJjyEmwOfiLEqyf2RasgfWXpp40NYNpobx56JZc684kKZ9qu6+GzObatf87IC8guOcjOjC0MShjFgKgRbMveSGxMLJVVNaTnbSG/Mo8Zo68gQh+Fw+gkvyiTwSnD+fsH93WJsRTKahklA4QnqJUBQs9tNdFyYN+JBA2axP7Fz+BsFHr9wxX3Ww+ih/XBZrNRuKWdfBNqiagpw7BGGZEabFBVh7O6EXujDXNZDebKBpz2RjS+BtQaDeaCCpz1HfvXi17jQ3ozcch0xvSawPcbvuLzNe/h6Nb9coR0ltSyq2ljbS0F644202GX2MXjyoebmSk5jKTbzmbHE5/hFx5EwjVnkF9chGVNOvX7CmgsqXEFYFPWXh3pQ5/Z09j37jIshe2l4z6ys0C0rh0QSvL5Z7P78QVNczuy1jwmzamKPUSBI9xNPTSak7JZRVIQ6itxzmQ1P610cLD86MXGPUmKpkWXIDVOzz/mhHLbkwUUlLgz+bkvkBN3WwuAcO302/l541Iyijr36T5jwHRivOP4dOMiLplwHalRA2U/+x/XfcPewu2yzjolvB8XjbuW95Yt4KKBFxITF49NauTB927t0nK0BAg7XAChbcjto9167gieisY/MGUskeMuYveHj2FvqPYAICj9C994GdLaXAFqWsxU5gK1CqdKqSt5OSAthojeyfgG+REQHoLaV4ek0SI1NLLzvW8o36DELjiUczSSltP7TWHaqAuwNtaTlZOFl5+WV/73z6MQbzcHx26mpmusTYCs+S+H5WZJTezps6ivKaN007IurffxqtwM80ClVTNo7iVs/u/XaGrMOEUgFqsVR6MVkb6heUdLoJEY8+xN7PhmNVUrd3VJu9AcQr4tNYWnkOR0oooykPKXq9j1sEi1rpQT9yQ5Xqt3cvR7tKfUyTHLdkd5tFNvfoePHmjkjiticdht1FpMPPLyTorLTwbfQeH6p+aRW+M4cKCU95a6w7Ce+NtZZEC8+PTZ/Lb1J/Irszt9L/t6BXPnhQ/y+S8f4bA14qMOAa0dby9fYkPjCAuMIDokloZGGxX1paglC/6GULR6E3e/eXmXJAAKZ+k57cF3lUBJ+XvkWAvKMalInPTefmhNPvK/WGursNYJA0VXDUmY/CkRFkXIZqddRP9zH7WOFtIq8YXy7wG9hhA/aTbbFz2Ktb4KQR8vv2BUXkbZ66CxshwaEtprAAAgAElEQVR7Y/0hB7Vo1W0aqIzLbdzm/kkX68fIOVdRJ8I32x2orHYcGiPlZWVU/LGFhpxSrEWVOK1uUOxuxzUbCUJ8Q7lw1JXEhyWzeutKlm75RO7KzyuAanOVizZHfpS43SU7asGjS8oNEKqLKN38U4u8HEc+rmP5pZhjwIheRI4dzL7532Gtqmt1Mcs0UKnwig8i4fyxNORXkPnxypbIQa4v19NpUQvgqFLJOcZaFofdgd1ixWmzow3yQe2lQwADWaMquEnYW4V5ET9zGnseePtYkuBUXz1AgaO9JXtgSCdTk2qigyT+eW88S1aV8snyKpKidRSUOqmua7awPlFnJC4RjeRkwkhv7r8umgvu2EO92VPnuuM5K0k+uPrFDyUzbz+1FiX7YNMJ58I3QsqQENyLsMBogvxCGJY4Bn/fQMCOyqmRQ/Kikqgz17Ft/1qyq7OorC4lvzwHs8PM0ITTmDn+Oh5beDcV9SIVdAflkF2k/OrFsAcXcnD5p2hVNuy1xRTvXNv0lvKP7Yt3dApObFQf3E1NvlsKImH0D8UU2Ru9zovKgn3UFWU1hxPGiW9UEn7RKXJ6XGFcZzObEekkksZfwuZFD2GtLRdh8wjuPQJNcLQcdKli73rMFXmup1xr+wCRMCqq/yhURm8cNguVBw5QUyLG4wS1hF9qLPX5ZdjNVpFOkNj+E9B6+eGw1ZG5cQVOu1W+WUxhCfjH9pYVBuKisFdXE4Ge84ddQHVDJd+u+Zj82mLQGtFo1DgcTmpL88F5ODDd/hFlCopGpTfh5R+EzuRDXVE2Vbn7WwWXMgZHEhQRi1pyUlteSGluVusFlFRNLpsqjY64addTlbmDip2KIWvnMLnl7dl57Z7aMSIips7fRH1uuey2augVQdmmA9Rm58mWpHpfb4yhfnjFhGIYFENtQSnmjZmyF43GoMep1qBSOdGo1ahVEhpfExq9FyqtMLJ2wQbJIe8Vp8VOQ2Utllozur4x6Kx2dHbQ6LQyUKhXO7D5eOGtNbH9/jdwCJ5pU7r32une1npqlU7Odv9f0LZnJikJQM5Hz/UnK6+Mv71WQH3jia1aOJRFzz4jmQHJ8M3yg/zz/n58sDSdD79SXh4nQ9Gotdjt4ppsPpz1aiNhPhFMGDyZsKAYTPpAqmtL2JOzh4z8HdTb6ojwi5clBiLAZUVNCfsLdlNaXYjN0fowC/GJ4M4ZD5FbkMsbK4Qo3LOi8JuWkQ++z95PX8BSlStfvI2VZU3JoORXlxwxw+Hycmmeg1qrR2P0QRiSNdbX4rC0tinQGX2bpA9C0iAkV/qgWJKm3sT2dx/AUluG7CcgSTjkNNNiQII32/Kn8rLUYAwIkVUFTocDS2011gahl3ZLA5q/E6BSZzChUisXQkNNuUu3DVpTIF4RSTi0WlQOiShtNFedNo3MrB0s/n0BVXUVePkFogmMkCNXWs0N1OYI2welfTFUtdZAzIBxBEUlYpHUVOUfIHfraln60bKE9ToNlV8YVpsVS1UR5uIDWOqrm7xRxNg1egN6o0l+3FotDZjr610pt52E9R+HT0AoJTtXU1VWglpvJOmCuyjdvIqKvb+3WWghyWmWALkuTXnczZIdz7ij+2uNmXcl5hgjtvJq2SxaHRWKU6fFYTajk9RyQiSnTkKlFrlfrEhVNlka5LDYqKlpwFJehb3ejFkATbMDVVU99opqHBUNCoh2wyVJQhPphy4iCL+kKAKDQ0n/4EfMOcWKFEHwm8qJpNOiD/KlavtBnCJP9aly0lKgZ+7Ok5Ycng9cHMyXneXPvTdFceYlu6hoVBItnSzFrb1NTfTh+pkhVO7KY+jkMK59MIeqeqd8WA/pG011rYX0g4d5PR/HCYtDyag34e8VSe/I3gxOHU6IbzAN9kYKy/L5Y9sfpBdto8HqDgQly0E7dXlrnpLEeSMvZdLAc3l/+ZtsylytJPHpZJndAGH0vPfZ8d7fqc4XqZsVQ1Z3tkj3FeMW67dsUqnXHE1AjLq12Wuz0Nyt6ApIHEivs+9g84K5WGvL2hWRtzfsppZanASKB447bZj4Q3PgHYU27rmIH1vTQ/xFpVIT6ZvA7Rfey+69W/hwzQLZxkNJZaZ01LRXZADT4hKRJFQ6I04RkVHOsilG3Tz75mG2PLqaM6q2PtBaqDuaJqqoaJQLX7SrfKHx8ib14nvI/+M7Kg5sPISrRR0VXnrQ6US2RYmYEB2FZfXklrjVRsfvIlT7GVAleuMM0OEQ0n5xqTfYUAuNodmGrc6O02aTI186GyxgE76mLblc4UsBV2Us2VJ64qKb5FS4QtBLgBCncKNs1YYbRpy6Uo7jkdjtXZ9azS6TVNkmUSFqnr8vkW9+LeGDbyqULXWSULP5elEmP3xAAH+Z5UVKpJVXPjHz2bJatBqJy6aHsG5nPbsOdG+kNU9J3hk5vbReTBo0jdiIXpRVlVBWXUJeQRZ7C5WAPx2VQ9s9lB6tv5OYPuQ8BqaM5qtfP2FP7pamyH+Hb1/DaXMXseuj56jO2eR6Z/YMhBTjD0waRNJZt7NFBghC5XI0LrZtJQeerJm4eH29fDmt92SmjbqQVRuXsGLbEmobK1yr4ab0oa117nPRWinSVSB+OE5SwIXe5Eu/mQ9w4OcPqcza0QJgSQT66jlztC/D0pyEh4VSW2dhz0Enn3+fQW5xS2DQGcd6QsUjqSMubyW2REuZhpvb3FYmouVmynWVhkcyrlPfnOwUOF4cfRLSrZlUQrd98ZnBTBmj49bH87AKM+GTuUgSZ47w4YnbjezcX8dDr9bRaFUz58oY3vg0h/yyE9PgUujfvXQGOUxuvbmnQIwajUrFmUPPZ2DySFZuWsaavZ5YuUuMvncRO79+g6r0X10vZ3FAd/9LU3CmkCDIAOHdB7DXVrZOg+yRPv1QBvbkaGj9nvc3BXHJhGuJC0rks18/ZGfWehrliIYn/v7QmfzoN+sBDvz0PlVZu1oABBXD0ky8/mgE739ZxNrdEtn5dRSW2eR4J4eCyZNhrifzUXVq7MeWAp6cAsd2RCdsb25hrhNvbzX/fjiGd74o5deNlo5zzJ+wc2k5sObX4lO3hDJ2mJGb/1ECZiuzL0nk7//eS6PFLUY9sQ56RVzd/CptKb7vHtK36EGSmDzgXM4fO5s1e1fy6cr52GwNsqFgR2XEfe9xYPkCyrasbOHu1f00FBTwTxhI4vTb2P7ePGy1lTgkYQUhpMkt34/dQ5XmVoSLpF3WPU9Km8oFE26kvDyfN5a9QF5ZZnd31qPtab396XPJvWT/+D5V2ftavbSjQ7W8/kg4TruNC+4rwG7vCAacOk57dJFONX7MKXCKoz0muesykiSGpWqYc3UU817IlkWMPfEq9HhY3VJRmVtClJ77rwrmhXfymXNjGNv2mnljsUgadCTl8IL7I2mxvTdua4AganTnBdwMCt0tp0UMYtLQaZgMfqza9j178/ZSUVsoD63ZxkAZab8736Lw1/9Rumlpj6sY/BMHknz2HWxd8AC22nLS/L154IyRzPlmFaWW7pQAKUeGMFYMD4giISyF0/tMwUurY0fOZpZv+ZbK+iPlme7giiNrQ+8TSPKFd5PxwwLMhZmtVCLCTOKGi4N46lYtHy+pYe5LdZiFHr9NOXWcHhn1/8RfneQscZIP/1gylmKlK06Odx+PY9v+al5aJMITd+eFdCzn07YvL72K6y6KoFeEhmEDTdz4yD72ZHccGe9wo5VJ5Ww2Hju+M+u+3sWG8fbyo0/cYCYOmIzVJrE9ayNrdv0kp4h2m/YJrki5/iVqt68kf91X3QxcWs9HVjEk9Cdpxt1snT8XW005l6XF0dfHxGPrdmHtRh4V2u6YoBSGp51GWvQgOYjS2p2r2ZezhawykVPh5Cw6n0CSLriTg98voKE4y2VO5JZQOYmN0LD4+TDCAhp49FUbHy2rxqL4c7aY8Knj9ORc/VOj7ogCpzi6i7wR6C3x1ZuDufLuLWQVt7L37WJLnVU/9ksjehRW2iPSDNBgZesBG9W2I9OZx0caCPSGTfs8zwvQGUVOpL8LDwph/zAgZijnjrkEnUbLpsw1LPntS6obhdEqJM7+J4796zn4++IeHbpYN5+YPvSaeR/b5z+Ad2MVD49J4+Pt2awvrjhq21lZjiKpCPWO4NIzbyAmJJn6xjq++uV9duVuptFixtEUCKpHp9pjjbcPEFp2p+atJ2KZeXo2BSXe3PKPRlZvbnThAzdIOPZ7tscIcqrhPycFusiiXaz+56SZ57OS+NutESQn+XLlfXtE+hqXKLJllLwjlygc28U43OtewqSSUKvU1NisRyS0n31+IqMGWbj1b3lNjm2e0/nkqumlMzI6dQIje5+Or8GXrRkbWJ/+KwFn3kBlzhYOrP4EZ4tEWM2KiyPlldacIn4zRKYQP+t+9i94iATJzP2Dkvn7up3k1Hc9YFfL1n28/AgPiGR8v+n0jkujvKKY1XuXs273r3LcCCVTac+rk3qaIzoFCJLE+EF6Pn0+mJrKaopqfbjq4SIyc0Uci5ZRJI90TXt6hqfaP0WBrlPg2N5JXR/fCfWFyUvNe//sx4df7ubzn8XB6/ar70lJQk+QoFld0lHwHCWET9u/ttSzH455ZkwM5qKpJq6eJ8IgCz/rI5NE9MTsu7PNZhNJ5CyRfeMGkhrVh4TINAhJIq94Pxlbl5NRcoDC8hxsTpvsSa7QpDsuE2UE+uBoEmbdT8aHT3FtpJ4Ag4lXNu2h/gjVCwHGYAYljiAtZgixETHsPrid7dmb2X5gExan+RCjyz8JQLjwLjKXvoO5+JCIi7IERdntX7/QB3+fSrbvt9Ort5HbH81lT86RqeG6kw9PtXWKAj1BgVMAwUOqiotxQJKeZ+aGcdGdWdQ3ig+7Gninvc6OzxL4mtSYLXastkPUqK73oHAhFPYV7TlyxUV5YbU6yC8W0oV2LjlJIsRHYsGzg7lsziZqG06G8M0eMsIh1VoCBPefdBod3kZ/0sZdz8DYAQRXl6BVq6g111PdUEFhaQ7rd66lsqGUGquwW+gYPAlVhvJKb118dVpmD+7Pyt372FVdi8onjF6z5nLwi+d4Z0Iy729JZ8nB4g7zHLTHdYLHQ32iOG/sTOKDk+V4/L9t+50NmT9TUVOK2SrURW6eF+P584A+nW8gSW6AUNQOQHAZoabE6Dl9uIElv1Xz11sisNvVPPxSNpW1zem4joyTTn11igInHgWOz+104tGh0xGJw/OaCyMZM1jLDX896Kp/8r6c5t06AH9TKfOeEzniW8/DzRTtM4fElJF+xET7s+DzrHbD8YhLTeN08u1bw7nivk2UVcmx1zql8clYoT2AIGYqrtGAIbPwjwolY8mb6CUt49MmkRydSqhvhByu2KDSYcNOg81MdV01xZUFlFYXkVeQS25FJjan0HE7Zf2+w2mXcxeI0NJ2px0fnZq3p59GsJeB679eRb7Kl9SL70da/h5zh/lxx5e/U3bo4OTUE2q0Iva+WiWHchZRD2OCEhmYOJS0xAF4abyprq3gjz2/8vOWJVgc9SI2Ygfr9+dZUwEQEi+Yw8Hv38bcAUBQ+FOsrCCsiMjo5JPnUlm9oZQ3F5diOSVIOBm38KkxH4YCpwCCh+yh16qYe10c+7JK+fR7kRWvdfBbD5s5QapJjBvsx9tPJjF05mZq5TD3nqtJkmO8mTUljFfez6C2sfUlIRhKAAS108mSt4Zw2X1bKa06NFTvCUKGHhyGUNH4pI4jNHUo+799A6fN3OTJICim1/kQ6hNMsCmCwKAgjF5GvLR6DFo/jDoTBr0PPiYDEjocjkaslkYa6sxUVlVQZauQY28kG3RMSQjCSyrih/QCbP1nMMS8D0N9PQsP1GBTaXC2SMencqowav2I8AvGaDKh9zKhVmspqy2mpraG4soc9ubvZJ8IDS0vq9u+oHWI6B4k23FrWpYgXHAPmUvfxlzsfgAcfjiyVDHFwBO3h/PfxcX8sLrOJVP58wCn47Ygpzo+IShwCiB0uAxuIz5RQSLYX+LJOxN49f0CdmWI8DiyjuGkLSYdrPlsNDc8spZ1291heT052NTERxm4/fIw/jX/IEXlhwIlkWlRQoODJW8N5bL7NlNWefiwvy0VNX8WhhRz8k0eSeTAM0n/+mWs1hqXnMadYNk909Y016n1ciIjL60RH6MJrcaAVq3FoNWjVmtQq3Xyq18jqfFCjb/eQJS2gkmJQUQFRqK31fP+hgz2OILR6L1RSSJcknjtOqisLaPWXovDbqXRbqXeXEejzUx5TQkNjQ002lp6nLSUI7nBwknL7p0OXO8bRIow8vz2DRoKPQ3ypEKrgUum+3H9rBDu/Gs6O7KcrT0fO+35VIVTFDhxKfBnOY+7kcKKXFYl+/E3J6wRl+I/743l4ZcOsD9bvIhPXnmie9G/enUYv+2s4tnXhf+6p/pkFfFRRuZcE8Ezb+6nQE5W07IIgKBCjV2WIIhgUhl59VRWKdn4WjKcyIYp0ssKI3ARrVqo2t3XpydQpRsXvdubEgDBJ2kYkUPOJ/2rZ7FZ3AmjZBmLBxKbjtVXsqHoIclygnUanpo0nLNignhy5Xre2l+sqH9OdkJ2+8q036AACL0vfYD0b16noSDDw16boe2CJ1Pw9TZy6b1bsIqMSUdoHOphx6eqnaLAMaHAKYDQhswSIUEqHr4+lXkv7cLs8hLrHW/ib7eF8sDzB8kuPPQyPbnI6B7tc3Oicap8uf/53V0I5CMRFaZn7o2xvLAgi6y8Q2PtuwCC086SN4dwx+M7sDohQ64HRp2K5HgjVXU2ikstXD8zjuK8EsLDDXyyrJJiV94HxeTr5H25itH7JgwkctIV7P/4aWx17oRFh8Ikz/d5s0mBG0a5v3ViUql44MyxJPh7Q1UpufV1fLU3j83F1VhkoNvSV7/5u5OLcz2nVVdrCoCQeulc0r95g3qPAYJrRSQV3joHbz2RzObdFbzyQWnTudHVcZyqf4oCJxIFTp0P7QAEk0HFh88OZOF3BXzxvRJGt3+yiTsvCfq/9s4Dvqpi+ePfc25LD0kgIRVI6MUC9v4siA0FrIiVYgFBQcQGClhQHiIiKsWCBfUpKOJfUZ+Np6KCgCIgLQSSkE56uf3/2XNySYAAKfem7n4+SCRn229mZ2dnZ2d4bME+sgv0xLXieOZnhgqbt56sNQ5reIg+fGAg55wazr1Ppx2hIFjMKlf8K4b1f+WzL6P04MDEvKOjLEweHc+8t/aRknakgiA+DjK6WbOsN8tWZNAlMZwp85IpKXVz9fkduOkKlbxifx6Zm8rZvVQeva87/1tXhtVZwfRXMir78sYLkcbB82i9hHbqQ/Tge9nz9pNYC3N8NBjdIpEUGsgjV1zG/zkjWbdyMYN7RHNOp1i25haxfOtutheU1dpG5KOBNutmtSuG6yax6/PFlGfV9oqh2pQUOLlHANPu7sBzizP5bYuuELdW59xmTUw5OK8hIBWEGqAUd+i9E02MuyWRR57bTlG5riCMuDiCp9/aR4FwzHOr+JncLJ17IXdM/JZ6xKPxGhHr21CPWJWJoyK5a0ZWNVO0ftJc8HASVqeZpxbu5ECRx8/AjYpCx0gLk8fEMe+tVPal2Q++ZIiKMFBS6uLmy9ox7PJwokKcXD9xH+Nu784bn6SxeVsZ0yckYctM5szzEhk9fQ8PjYwlKCSQaXO2M/vRPmzdtpt5y0opOpicseXayIPjexA77EF2L52KIz/Tp9b+i+I6csuV17IssC9fzxmLUXUR6WfmsbP7EBsezswfNvJHVl6DoyrWl9eaez3hpNh12ET2fLGE8qzaOSkePidVVRh1bTRDLrIw+O49OMTrD+2qoeXycHOnmxyfbxGQCsJR8FVVlflTOvPZmgN8/XMx/ZICuO6iDsx+O4UiqwuLUeHRMd0IiTDxwIwtvqWSj1qPjVB4dmI8Y59MpVjcA4ic8grcPyKaPt3DuW/m30coPuJcX11BSEmzEhigMnNsFwadFcrmnfvJKmjHpytSeHRid66ftJnJI3vw0w8H+O9fecyZ0o0VL+9k8vPduWv6bmZN7ExhmYN7n9xDbJSBsbd1ZcPfTj7+YlelWG2578uD4rrR7YZH2fbW41TkpfuIinqzj57VC2JP4JceQ/nhmVvBpTvRingWp3aMIKvCTkp+odcVhNYiQLyhIAi8AywK/36oM7gqmPJCFsWa32dt/Xt8yiKycYlAnRFo3PXduL3VGYzqFcTb78vODefUE/yZtSSdTtFBXHleJAs/3E2ZTeGcEwO5/+ZIxs5KISuvJb7zVwjyg2Wze/DQnH/YnqLfa0eHqcyf1ocHntpMmvaQXt+gTz8hgJT9DjJzbURrFgT9imHvfiuDzm7HmGGBfPVzGb/9lc/mXaA6YdXC07npwd8Zf3tffvrpAGv+zOSFh7vy6Su7eOCZrox5cjeTRyVhsZi554nNh9CrZXsg6FMJjO1G7+FT+fvNxynPFRElfVOCgEXXnMuinUWUX/cE614cj6tAXBtVlRa09HwD0nFa9ZaCILrpFmtk9kNd+fqnHN747AAVhz0FbpIJyk4lAvVAQMqNo4Kmkhhr5Mmx8Twxfx9Wlx9nnNCOL39Iw2Qx8OrURJZ/lc0n3xdUc1huSXCqKIqLVQt68+SCrWzYogfDOa2PibHD+3DrYxsrg8LoJtJXHj+R3Xsq+PDrfbgUF5NHJzBv6T4yc+w8NymWn9cX8P3vJTjcCvmFLozA5wvPYPiDv9GrawC79jrJzbfyzAPd6RmZRokxijGP7yUw0IjRaGB/lv7KwVNag4IQFNOVPsOnsXnpVMpyao7OV481e2gVReGO3p04o1NHpnzzJ70mLebPZS9Qtm9Dg5uuawPe437vtVTbOegKwgPs+eL1el8xVOfePp39eHZyIs8vSeXnTcU1RsOs7djkdxKBpkKg8VdiU820Hv0KX4RRQ6O4aICF257ci80GwoFx3pQYMgtUnl2YRkm5b82HviOQriB8Oq8Xzyzexu+bdQVhQC8/nhjfmVsmb6e4RI9fEBkKk+7uz/Iv9jDhtgRmvPQP99wSw9yl6RwocPH2cz155tWdPDG2P9+tL2DO6zsw4WLVopMY/uCf5Bd57mDddIpQGTuyGx+vSuG3bVavm7zrQWafVQmM6kS/4U+w+d0ZlObU7177eIMzKAqf3XwpX2/ZwUsb93DKA4tJ/fM7Mr/7wDembd8x5PGm6tPfa5EUhz1AyhevY81KaZDXgOY2qsLl50dw701R3PrQDvIKnJpjs76iWu61mU+JIBtvdgi00uXuPZyD/QzMndKZ5PQ8tu+xc/5p4aiqkVmL9pKeUxUAqOUBKZ4juvl0Xk+eWfwPv20W3gUujAbhgxBDz65mpr20n/05NjqGKUwacxJTZm/ktRk9Sd+XQmhYe156N5sDhW7en9OTjX9lEBxo4ZtfnXy+JkvLc/ne3HMY88jPFFVUvfoQlNHVBd1G0FriHtTEcQGR8fQe8SRb351BWU0JgLzApokBFt65aSB3v/8Vm8tt9Br5HI78LHYun9sKs2j6bpVpkRQrLQjeUBC0aJkmlXtvjOK8U4J58N/JJKc6K1UDEbhKui56gf1lEz5GoEXyaeMMWt/AhNd+XKTK7UOi6Bobws9/ZbHiv/nkFIoVXuWd3PJM4roFYeX83jy9cGulgiA2cjdB/goP3R6jBZOe+3YG5VYX8x8/gWcXbuXxe7uSmpkC7jDeWJFLTr6Lp8d1RHHbeXZJDoXlCja7CxHh9+Re4fy57YAWBOlopeXh5pnJ8bkwsEM8vW95gi3vzaQ8a2+DTqVHw29wUizX9k5i5Ko12IGYy++hQ1w3/lo00YsZI30shZpB87qCcD8pX7xBRQMtCFUcotAuSGHW+Bjsqovpr2aQm6dnNj0+9zQDUBphCBKHRgC5AV1I+hwVPD3Ush7hoAomcbdeUwzFlrfReXwQ+moKwto/q8724lwf6A8vTInlP6uL+PbXYq65IIy7b43DzwA3T/yb3kkm1m2zUVQsxJ0nZv/hwXja8vMuBb+wKHoNn8aOj2dTpikI3r+OGhAVSlp2IVmVULc77QY6n3UBm168pwFioe1V1bM53k+KSPfsJQWhOorvz+7MH1uLeXlZARVWcd0gLQhtj8ta3owln7Y8mnlpxPoVw0cvdmf26zv47S+P2b9qk7/q/A70P8HIzJf3awItMlSloNSN1VEVb/5QG0pbVgiOJItqCaLr0AdJ/+E/lGVs9YkFobo9Q/xsjutPnxvGsnHeA7gdnvDOXmKZVtxM9XTPVi9bexQMJCVYmDkhnh/W5LD4swOa8VGullbMUK1kalJBaKGEbDjhhIIAbzzVhcUfp/HLRhH5TW9V/NdshLuu70CHSAtPzEsDd83RIqWQOzoDGUx+JF0zgf3r/0dpyi+NEp5fMQczYOIrbHx7Fs79LTM+R1MsSUtION1umMTuVUuoyNzj1c1bOCcKh2cRaXHW5G4s+3wnS1eWaum7ZZEINGcEGr7PNOfZybFpCBxJ5KpMldPGhPHF//L5Y5vnRKMLrVmPnAflRbz64d+kZohrlpYY66FpGUA1WkgcPI7Mzesp2bmmkYzKCqc//BbJ3ywj94+vZajfWrKAJTSCXsMfYufKhZTtT/aqgqCvQN1id2KimQVP9dJiiHz8tbAktLww7dUh1aWF7uDcWosnrH5bVOekgtBaufqY86rMc6DA+ScZSc21k5x6qB+BeM3gqIywXN0bo03CVc9JK0YLXa66l5w9OyjZ9EWjbNZiQQ8YN4+sP34gde0n9Rx526umWRCun8Tuz71vQTioIAjrnOLmwtP9ueeGKF58O5v/bTw0/kdzR17wl9GoEBNpITWjApdbV35as4JgNukeZjYt2mzbKlJBaFv0PmK2/hYVYem02lrvCaCpSKwYzSRdOZasvbsp3bjqYM4KX45HLOjEWw+cyGcAACAASURBVJ7ElraTtO/f8/JJ2Jcjb9q2zcHiFcN49nz5Jt72QTh8ZuL545CLQrn6gva8/O4+fvnbdtAVWn/4e7SNyHCMNOEeUa7lTD96Odh09Y+q9+fZ8KvnkBBHhEorCG76dLUwdWw0dz6ym9IKMSZRPPlampaO3urdg47JpHLzlR3YuquE3zeXNvF6UuCwNO/emu/R2pEKgq8Rlu23WQSEgpB45Viy9+6mZOOqRrMgtD/nToL9HOz97zuIl/eyHB8BTUEYeh97Vr/lcwVBbLYWs8L1Fwdz+5A4nlywh582iaQNujg+voJQfRMXir3H+ufJgFrTfA/ng+rvrmpOXy9aC7OI3CsKnWIgOATMFpWenQ1ccX4Qc97IZ08qbNwOpa3sdO3ZGC88OYAHRrZn2ssZbPxHvF9rW+upDSsILe9hor7s2zDJji/nm9UXqsFMlyvvJSc1haINKxtFuAjuaHfCQMKi40n56k1crfhu2JvE1hSEIbqCUOGjoFY1jXfi8DDOGBDK0wv3s3mHs5JeNW3mbhKizQy/MpwQv3Js5VZcqpsuCTH06hpEQbGVjz/P0nKjaGf/w5oQWSXFbYBwlvRXFbp2cxMTGUJgQAAWi4UA/1BC/V34mUtRDQYsZhOK4sTpdqG4FVwu3cphcyi4nVa6dnTw+xYXu7MCeGNFJrv3HUy/6k2yNGlbCVEmlr88gLeW72bBB75K196kUzxu521utxEOJwaD++D9ek0IhYea6J4YzK8b8yt/3ba0xuNyjfygVggYVBOdrriHkvIisv+7tNEUhJDe5xLepT97V7+Gy6lndZTl2AiYg8PoLiIpfrWUsozdjXROVBH32xNGRNI93sLst1LZue/oNp/eSSGMuCoMk1JGoAnOOtnCP8lW0rLsGEwuunaJYndqMW7NqOBCVfTw6aK4XS5c2i8MKIpB+3+bw4XDBS4XVFSoVNhNOJwGymxWyspLyM6wszfHjN3pxO6w4XC4taBpkUEGXnwslhGP7aOw5NiXIi2R78QeEdFO4dlJnbGoDu6ZmUppRdvcA9qWgqCAyaDy1PiufLg6jQ1by2o8j199SQIjhwQz+N6tUkFoiSu8mYxZUYx0GTQaq1EhfdUrjWL7EQs6ML4fsWdfw+6VL+EoFyE/ZTkeAubAUHoPnUzK98soStvaiHYXEW3RwH23RnFydzOPzN3H9n0iSIJnQ6ramAyKcBCECbcl0j06h8KKAOa9k6tlk1VVhcgIf3Lzy7SXEaIIh8iDpfJH7a/K5l3CquD52YUW8fTQDeFQB0RFJJhwu7VslS8+Es+Nj+yhqLiyweMBXIffN6VtV/QtUqRfPzCUUdd1YPTUXezJ0KNftsXSthQEoH83E2/OSuStlRnMf68Ip/NIp6CusSrvzB7ApaPWU1TWuj102yLTN9acNQXh0lFUiGyVny/wuYKgL2aFwKgEOl1yJzs+nYej5EBjTbdF92MKCKXP0AfZ++P7FKbqQa0a+8y4ZGYSHcJcPPTvNLbvdRxxT+B5TPjR3BPpErmfh14o5PsN9oOZIquEucdxsPrmXbMPgp4LRdgZ9NZFzepboeffdeKKwPPQr6uBOQ9GM2xKKkWFDbMg1LQBifgsWmKrw+9JGoXDFOI7mln0RDyLP8xkxQ+lTcAJjTLRWnXSRhQEfZqqAktm9sVlS8GlBHD/czmUVVQlDPIg1iFEZcXCU7nyrnUUaJkIG1tU1Ip28qNmjIB2ClIMJFw6CrumIDSOBUF0K7JIdrlsLDtWzMFWlNWMUWo+QzMFhNB36IOk/PgBBanbKjfNxh/fUxM6ExdmZ947WWzaLa4bqp4fi01T/P+quX0otZVz+7RkrFaFIJEy3QD5RSIbB0S08yMuysLfu0pwOj3bfR1k2LF2BcXARacE8Oio9lx1fwpl5Q1TEKojrAWUAq64oCN/7yxkT7pw3KzDuL1ErsfviCS6o4lpr2SSXyj8QtpuafUKgnDKSYy1kJvvoFuCkWcmncjUuZu456YExj+bTHGpHgTIUwQg7UMUPll4KoPvWc+BAqkgtN3lUf+ZVykII3EYDaR//mojWRBAZJFMuupBdq6YTUV+Wv0n0YZqGv2D6Tl0Ivt/WUn+nk1NsC3pYIeFGBl3cxR9OhuY81YO67eVV8Y2rdqIf357AD9tSuPhF7K0k/9pfQOIjw5mxTcZ2reJ8UHcf1sMK1Yn88N68fzQm1ucgVsGRzLoNAsjpqbgdgurQlVW24axjEpslB/XnB/Fe1+mUVCsKzx1L55LClGz9gqGUE8uPiOMR0bHMm3BTn7aYNWy0rauB5x1Q7OVKwi62eylR07kk68yOeP0ANSSA8z/uJjp98Xx8gcZ7N4nnq5Uv0ZQiAiGzxafwtX3/kHuAakg1I2l5Nea8eCgBeEObEYDGZ8v9LmC4EHev30cXa55iORP5lCRt1cSpBYIGC2BdLpmAnkbvqFo5zqvbqm16P6QT8QTyAduj+LCAYE88VI6v261atcI2uGlnco3i7oz/z9pvPlxCW4snHmCgZP7BvPaB1m4XAZUxc1jd8fgchfx1GvCSaD2m+TxxhocqPL4XR1Yv8XKR18V6BEia3yYWS28Wm12GUVcYKhcfUEEBRUK36/NPt5Qjvp7VTXgdrs0/4pax6lUIMii8uGcviSn5nH/7HScbVkzqES3NqSrN6GavqKuILz+dE++/C6dgefHMunp7RRb4dExCezcksVHv1i1PANVWrZC+2D4dHF/rrl3U6WC4E0NvOlRkSPwPQIHFYRBd+pXDKteazQFwS8ihs7XP0rKJy9QkZns+8m2gh40BWHwfRzY9D2FO39rUgXBI5RHXR7KRRe05/UVmfzwWylOt0rvRD8+fiGO0U/u4udNwvpp4KwTDfTvF8Qry/I0BcGAk0fvSkBRc5jxqnjFossvbwj7mA5m5kyO59lF+/lrlx67oeZNWCEsxEC/JH+S0ytIyz6+NSDYX2XSyARe/yid1KyGxBxQGT44iZ4J5TyzOJ0K7SHPsZUko0FlzPWRDP1XEDfcv5s8LcCl9xSrlrpEvMEzzXjuuoKw/KWT+PanvSTFGJn0Yq423gkj4oiOzODhF4SaeKgjoshauPy1AQy+6w/yj/BB8AQjqZ3SoC8fT5EM14yZxatD0xQE1UjCpXdgNxnZ/1n9rhjqs0D9wqPpcv0UUj59iXKpINSKrgajmbiLbqM47R/yt/zUKEGtjjcwixHOOzmQm4d04Jc/yljxdS79e5t4cUoCZ9+8i/xy3ZQ+6Aw/uiYF8cr72bhcCiaDm8fviaeoOJs5S8XGXDtZdezx6H11i/djxthoHpmXTkqGtdJrQHdzPLy0DzPx2JgYYjoYeemdDH75q/ygQ2VNfd12VQyq6uDNlbqMru+4xUjNBoUF03rx1a85LF+dq0WLPdaG37OTH0+N78g7n2Ww8keRuE7Kam8plcfj8yb8vapZA9546gR++nE/mzPL+fIXYXJTuHNoFBefXs7wKeIZ2KFi+Oz+ITwzoTOXj/mL0hqfkddebAuP3ACLQlnlO1rJdk3IDo3Y9UEFYeAdOM0m0j5rPCdF/0oFYU89FYTac3cjAnq0rrw0WKPFn6TBY8nesZGCP79vFs/aFGF0VyCuo4nnpySRlumktKyQoRcYOeXGNCps+uSn3BlDcloZH30tZJmbjuEGZo6L49UP09mwXSgH3lIQFK48PYALzm3PU6+lUlDiPIZVQg8LHBFqYti/Arn2ihiWfrKP91eXaHEXDtl/hXnfT2HxM6cxduo6Dmgxlxo+5shwE7Mmdmfu0mT+3ikCSB3epidpnZsZ46MI9nMz7eUcisuklPYsNy8tr2YgKGocgpG+iSrzHu7M1q25LFldwZ/by7UrhesuCWPksGAG3Z1ySE3Ni/bCCCbe1J7L791BxcEQogoGVSWyvYWc7DLNcUVnI1HDk+/Lxe1De/LRl9spLReJWeDSc8K454Y4UrJgwszNzRUoOS4vI6ArCCYShILgZybt05e9YuI9/jAVLGGRJN3wMHs+W0D5/l3Hr9IivvCtqFKNZjoNupPS7Hyyf/+wkWhVmzO79jBfe2B4Us+OXHWBwrUXWTlteC5llYeX265O5Isf0skptGky57LzwhgxKJjRM/ZRWi5qeiHgtga/yuRbg6lwmXjlvdwa4iZUm0+ln6DBraCobs4+OZixIyIpKS3jifk5ZOY6cWhPzEFVYeLITmTm5vLep8VeS4uuqiauHxRKaJCJN1dkYnMcvvHr1uDTe5qZNTmRGa8m8+N6W8uIPurb5XCQkI3UTWNLIM+0VM7oY+bpCR34e3sBz79TQXq27pR47kkmHhvXi6vGbMLuOtSGMPq6jowY5GbC7Fw2/aN7qniuCsbd0oN3V26vfP4ICR39KLc6yc13khhnZuzwJJ574x+ycp0E+BuYMTaKb/+Xz2lnnMD0eb81NhCyvyZCoOkUBDCHRpEwdCLpXy1uRQqCjwmpGIg9ewjugDj2f/2ijzurXfOVe2zlQURs9G4eHtmR4Ze5mTinhG/W6m/0jSpEtzdyUk9/wkJUbroqmA9WFvHuV8W4nbrx31tn4vdmdeern7N4d1XhwTZrbLtSBFffYDpHm7lmYCSn9Dbz3doDfPLfYvJLXPRKCuC2YdFMfWEXdiGevVD0Ixt07WRhws0dmflqGtn5nmejegfim4QYA69NT+L7n3KZ994BrEcoEV4YTAtuohUqCPqJ3lPuGhbO0Att/LDOwJx3C7E7xJMclY7BCm++0Ivrxv5Nqbhy0vK1K5zWx8KjYzqSk5nB5FesnNirI/9szyXjgM6599wYze5/sjEEBBDoB1dfFkF2tpVXP8zhvP4d6dFJ5cX308jIdpEUZ2Ls8ASeW5SMHQsHCoX1ogVzixx6rRE4VEEwkfZpPQMl1XGFis9NoVHEDXmAjK+XSAWhVhTT5UVU/4swJQ4g7ePnalXL1x9VSTG9J7MBpt8XQ2l2AX1OimXBu2n8vLmcQWeauX5QCN3j7ZgsEXyzNhO3EsbK/+axfluFHi2xwYNVCLLAh/N68tziZNb8IfwP9FL7thWMqptT+wUy/PJ2mE1Gvv05i/jodmzZY+Wrn/Pr0NaxJ+QZm9GkMPmOJLLzSliyPPOQSkKxmjwqltP62Rj1eB55hQ2/1mgwzM2sgTqKn/qMvhG6OGRY1ZeVwjMTEji9dxbvrXbz5icVB68F/BRYtbAfD8zYhtVoInlfOTdfHsiQSyLxN5Xx4luFrN1iZfytHXltWTa5hUKxcDN6aATDL3Oiqm7MRjMLPiwkws9CZqmBf7aWMnRQd15buY2MbLj8VH/69w/j6UVpKG5xA9bYWNSHXrKONxDQFQQjCZfcgcPPTPrKeioIdRyMpiCEROoWBKkg1BI9fV2Gd+2PX7fT2f/lq5X1mna9Hq4g9Ojiz8xxsTz4fDIJUX5MGxuLxa+QkGAzjgobu9JN3D99P5klYFRgyti+vPmfrWRke+GKAYUL+qncNaIbox7dRakWgKmuEs1zeNOvX++/tT0jLgtg++5iHp6XT1q29wIaV1deBp4exLibI7h6wr7KF2t6xsxLzmzH5JGRDJ+0S5PvshyJQNOuAB9TxKAqLJ7Rg/jwvUxf7OKnjfqlnYi1nRBp5L3novlodRHf/+HgmksjtAQoy7/M4LZhXXn1/e2opgCGXBDAl7/aSN5XRE6+i8m3RnDRmX58/2MhVw4K5pLR+zmxZxCXDPBnzrJcxt/alw9WbWNvlouRg0MIDjXx4ju5lU+BPMFSWzXsPqZqy2heE1CKkYSBt+O0mBvVSdEcGkmnYZNIWy2vGGrPLQrm8FhMCf0p3fRZNStk7c/Hte+rbl96NrszTgpl/PAI7pyWoiViGjMslKR4P/5vTRG7Um0kp1pxuatC+/gZYcDJMfy8bn/dOjzK18880AWz0cGDs0XwLTGquioI1RtWsJjcvPpYHKHBCvsy7Lz+SR5bd9sPsSJ4A/327Yy8O6sv0xZsZt1moZyIzJgmZo2P5fvf81j8SVHlKwevwNSqGmnFO5VCcIDC4uldCPYr5vapOeQUCOZQOPOEYC4/159LTjPyxbf5BEVF8+vmYr5Zk0NYsIEZ93Vn7MxtnDegPWHBZtoFuzD72Zn7Th7zpnTG7ipj3SY3V59h5OaZGZzcJ4jbrvZn6ks53HFlIqt/TGV7ho0Hb4vCanMx//1czaNXOEfWOnBHq2KztjkZRVgQBt6B29/Cvk8ay0kR/MI60vm6h0lZNZ+KjN1tE/x6zNrgH0pkv/PI+H2VlndAN557Y4uqx2CqVdEVBFU78Z7a18zzb2Zx2VkhDOgdzqsfpZGZ57m418Mye2SMOKWLQ5JDZGFqYBFtfTC7D+8u/4dVaz1Pw/XgTXVtXa+jMPTiUM44IZwlH6Vx6dkhnHt6KIs+zOTbX8u16IzeOtOLlyBzH0okr9TGUwvSsZgU5jyUhM1ewdMLM8gpcNRrHg2EtEVUrw99W8TExEKJCDWweHo0hcUm7pyajEWFx+9OIDDcwtvvp/Dvh6PJznYwY0kO2/fatTSp3TtbmDIqkpFTU7lzaDT7MpzYyou4+epExjy5lXefS2LNz6nklAZz5UkmRs3JpF+PIEYNC2bq/CxuuaIb3/y4l10ZNm4cGEhUtB9zl+YcjKguwKvrgjou4K2YisedezP+QBHpni/VFYS9K+Y3ihASrOAfmUD8Zfex+9MXcBRmNGOEmtPQFFS/IOL7X8jeX1Y2OwVBRAccPSyCknIXq77JZd60nrzybjLrtnlO3FVGdWEh1VM7e6/0S7LwzKS+3DRhA6X2qrgH9RE9ok6on8LzU/szccZGSm0KJhUuGGBi/G3iNcEe1v2tB2GqKb5C3WelcEYfCxPuiOfBZ3cx+oYoLjzFwugn0tieKsMlHgvP+tC37vRpkhoKXaJNLJwawfq/S/h5s8qlZ0ayKy2HJcsLOf3kaB4fZebt5Rks/dJW6XDj5sSegYy9MYC7ZuQw675IVv5YTniok0HnRvP0olQWTovmvZWplDkjuPwUC/c8n0bPpEBuGxLMs69lc9k5Mfy6IZeUbBsx4SrT7utEoH8Z5dYQVv9WwCdfZnntGU+TwCo7rTUC4ulc58vGUFRYQN6ad72kGB5/yQbG9aHj2UNI+exlnOUiHK4sx0dAweAXRMLJ/2LPWs8VQw2q/PHhP35XdfxCnN5NRoWn72vPt7+VMujsGLbuzmfR8gOaRdTPrNAtwZ8LTjMTGx3IM6/tp7Dk8GADdey02udiytcN6kD/fv48PHtfpaJbfyDEXG4dHEe5tYRl/5evzUGEkjYYFK4+N4SB54TwxCv7yT6g+301tIgQzqKdpyd24sSkEhxOP/69JI///SWUEFnarIIgTHIz7/Vn284S1u2w8N81hezY79DuoARDvvNcd35cm8aSTz2M4ubME0O45YoAxs3K5LkJ0eSXOOnWJZhV32WRkW1g5vgIZszfg8vQjpM7m5i/IofIcCMn9rSwZn0psZEW8gvdlYlG3MRFmemR6EduXil/7jj0mY1kzdaNgGLyo8vld5H19ybKd//oNZPp0VHThXZQt9OJ6H02qV+8hsuuxYxts6W6s1pNIFT/fVCHeALjepK18b+VnzZ8c/IW8P4WlfmPdWHztjzO7h/JqCd2UlQZ0GfE4E4Emm3sSS9k3C3deGHpTn74zXt0Fyb5+29LYO26DNb8qR+m6oOMp15inD/XD2zPwo8yKCjWr0c87YmgctcODCeqfTBzlqboQZW8VKLCTVx0Vig7kkvYsLWiEdajlwbehM3Ul9ZNOOTadq1w45XRjL/RwB2PZrAvy0mFtXryVFg0sx/bdqQz9538gyx6/mlhXHGShYcWZdIrKZCLz27Plu0H+GVjiZbpa8ooE1eOzkLk+RJPdoTJzyCChqloyT2Etq/dXGocf7gfcvWlUNt5yO9aKgKKyZ/Og8aQtfFHKtL/qoPZt2HLMqTHWYR1OZnUr5fgctUYCtRHkB7K71WzqNpO9C+qTMdHm6nn36v/7Rn04XUO6VWsP8+zPsWA0b8dalBHFLcdyg9gs5aCvVxbpyL8rqeuag4gfsBlHEjeQHFWildOrt4EOdDfwEuPdMFWbmXj9kIWrSg62HyvpBBS0kroHqfy5KSTuHvqJrLynMRGmkmIDGLt33kNGIpCTAcT9w2PZM7STHILGhqoQOHmy6PILHDw/dpc3FoenEPtBP5+CgMvjGPt+hyysysaMPZDq1Ypg57AdvVRc7w2nBbRUMMkUTOeojBbjb42hsvP78CQcSJ9q0FzfPHoqoI1nn0gCWtxKU8uqXofe8Gp4ZzZ1ciz7+dUO0Xojj/nnR7JjYPCuGf69oPhmY93QtEbEV95oK6fY4/XoW61lPc6UvVu0Bzani5X3cu+1W9SkZfq86slD0lDepxNu84nkv7NEpwuLchHI5VDHfuqi2FFUVGNJlAMiJ8xGFBUVf9ZWx7ia6Fp638bg9tjCgjWXhIZjEE4g8KxhIZisvijGFTMBiNG0UblpN3iqOkGp8gKaDTgFxSEW/XDEhiIvbwIW0URJtWIiOxXXFRE/v4MLYRfSFgIFpOu7Odu/oX0Lb947ebbe6ArdI838sBNnXG6rMx5T+RBqBbATYHIdiamjEniuzV7+PzXCg2LAKN46ngiT877q/4KjyIiOIZy8ZnBLFiWRrm2X9d3Y1UwGVUm3NGDV9/5h9IK/RXE4S1qh6z6dlEr0OuWT6dWTbbSj1rtNmFUFcaPiKFb9wDueXznwdO8J3WS2KZHDg6lR7cgHpojnu3oG3lCdADtQ2DD9lJNeIn4BaKI2zCDCn5mA6VW58E1UnsAa/9lK+W1Njct/3aRxFx4I6nffYi9ILtSrPpG8nkErfg7uMeZhHU+idRvXveRgiA2ddGTETU4DHNgECaTBZPZiGqwYDCYcakqBpMRRTVoG7HY6M3BEagGf8TVi8PfH4PbgFEzITtwKTbNwqKpz04nrvJS3PYS3E4XLrcTt8MGdicuZ1WWP/FtleqtK97ij/imtKyYsoICDAY39pxUvb5qQjWbCIpMICgiCofdgbWijNKsVBxlBbgdurXFW65x3mN4A327GLQXUk7KtVTPaVlVznV+FpU7hkThcMLijzJ0DIGkKJVxd/Rkyuyt2Or9kkHllH7hRIZbWL1mP64G7tz9uodhNpnYsEVfD00nFZuuZ+/xhe9barUoiWxeD94eRWF+BQtW1OSopdC/q4ER18YzcdaegwpClXasa5lVCoVHsLdayHzPbW2sB4PJD1NYHLYDabi0zafKiuSBonYWqEOBq+mxrN6OOIGbsXTqT3BCEoXbfsFoNGAwB+A2+6MGhBIY4I/JZMZgMOoCWpziDSou8RassoigvoL7hee8wWhCMRpwq0bAgFtRUBWz9gJei0lqMqMaDNqp0uGyYbc6KCsrp6IwD0NJGe6KYlyOYhS3DZfTptn13UIRcLlwOZy47A4UtwOXy47T6dD+HacDl92K2yWen1VdC3pOmodcKRzGU/oq1XE+8rsjt/6q1dyc17VC/+5mhlwch1F1suDjVC1xk2eetwxuj7hff315DgUlDgL8VUrLXNw/vD0J8TD5+Tyc9djYPSgmxAbjbzGxPbkhVxU6odoFmygudeDU0yvK0swRaM6rokHQ+ZtVJt4ey9rN+Xy3VksPdlhRiAyH0bf05ul5W2vQZSUDN4gAsnKNCNS84Kr/qwj5LQ7oYgMWm7FudhebM6ofSkg8asc4AoJCCGzXAT8R8jskBKO/HyaDCbPFH6dq0NL+2u1i0y0Hu137Y7VbsdtsOGxWHHbxrNeNKhIBCdOYphKg/TsOu+bE67BVUFFWgs1mw1lQhLOwEHeJyBhYDG5b1Z/DTM4HT/LVEdCT+1Vu2vrWXaVyezdfQGtkvQHd/Rh8YSxGk5VXPtpPeqZLS3I0/LIwzjg1jkdmb8HohluHxbJxm42fNmTxwfN92LA1nVlvHO0lSy3Efy0+8Q3eTdaxb6bTQltttVQQMrVXYgAZ2Vbyi6u07cPp1C5YpaC4AQFRWi2CLZSjm+GwTZYAHA4HiBO0VhREemHFYEEJCMESGITRZNb/3+KHarTg1649QUHBGCwBiISiwoMGxYnbbsPudGmbtzCPV5SU4SjMx2krw2Evx1FahqtInPTKj5my+FincM8NrQdKz+rwmIQPh9hzVj+8zcNdE6vqHds1vXo7Uk0XqKn072bm0vM7YTaW88FX+9m+x8GZfQMYNyKOZav2ExcbRFhYEKu/TWVrio2rLwhhxOAoHn0hmS0ph771P1RkeXyiKlHXAro1w0Ukh9QkCLSO7a2GWXiEzJFG3SbBWXbaRhEQ/BfT90wq1GDNtB7YTigEwZjMAThdwtHOAkYnNruVsgO5OKwluG12FFsFTnsZNnsZ9uJ8XBVlOJxCQbCCS89IWr14/MB9t7keS1QcS92oifDH3oGOmEPrkFJ1XgEeHISDda8EA2ed0RWnLYfOMRamv5JOzy4B3HJNDFaHld82FrJ+Swl5BU4GnhrILVcH8sanpXy3rhSzohDezkBQkFGzOogrKhGq2WR0EWIxERYKIaFuAgPBYA5hyy5Y83v6QWVWagx1Jl2rqdBql97RTzOthnZyIi0AAc3cbjQR1OUk/AKCKCnMxZaZAsLxTvzOXXknL/52OTXTvviFflvuuQX2RriYFgCWHOIhCFQpCCCcrkMChN+Ik4XTe7Ls82Q++6GCIIuBi/ordOpkJLK9P52iQ0iMq9Cy1paV+eNUDNobbFVxaU7WuIW/iLBGCXcQJ7j8sTntFJeWUVJSzubdpbz1qZ2ycmdlpoUj7UWSTG0HgVarIOiGXKn71p2VJWp1x+z4NWpSWI9+2pc0OD6irf8L8Yoq0F8lPNRIUICRmHCIjnBxzikKiQkhGBQHRoNLc/IUzqZ2u8qu9AB278sjJdVKSb5CUambUc/z2wAAA3FJREFU/CKFfKsLm9AHxGtQN9jsbqx2NzbxLrSaN4iUmK2fr446w6NY4uWNUxvmCTn1xkNAbvuNh3Vr6Kl9qJlrr4inQ5BbO+0fKLKSk19BeZlNC8rWPsxA5ziTyCpORqaTPelW/rfBitXumb3+DPTQQESaTUt7uF31VfWf9FTIskgE5CHbhzwgNwMfgtvETUvaNjEB2kj3ZqNKRLgFu82JVfyxi5N/VbA3VVXxs+iPXKxW98GsjZI/2wiDNMI0JS81AsiyC4lAXcx6Ei2JgI6AJzKlbgU4+qWpFOONyzFtB++2M9PG5SDZm0SgzgjIxVhnyGQFiYBEwIcItFyZ1HJH7kNyyqYlAj5EQK45H4Irm5YIND8E5JJvfjSRI/ImApLDvYmmbEsiIBFoQwhI8dmGiC2nKhGoCQEpBHzMFxJgHwMsm/cVApJ1fYWsbFciIBGoGwJSGtUNL/m1RMDHCMgl6WOAZfMSAYmAREAiIBFoiQhIBaElUk2OWSIgEZAISAQkAj5GQCoIPgZYNi8RkAhIBNocAnJnaRUkl2RsFWSUk5AISAQkAhIBiYCOgLc2dm+1I+kiEZAISAQkAhIBiUArQkAqCK2ImHIqLQ8BuQBbHs3kiJsQAblgGhV8CXejwi07kwi0bQSkwGnb9Jezb1kIyPXasuglRysRaJkISEnTMukmR92mEfDKsvVKI22aDHLyEgGJQF0RkHKnZsQkLnXlJPn90RCQvCR5QyIgEZAISAQkAhKBIxCQCoJkColAs0ZALtFmTR45OInAQQRa31ptfTOS7CoRkAhIBCQCEgGJQIMRkApCgyFs7Q1IFmntFJbzkwhIBCQCNSHQ6NK/0TuUdJcISAQkAhIBiYBEoM4IyP26zpDJChKBloiAXOotkWpyzBKBpkRASo2mRF/23eIQkAumxZFMDlgiIBGoJwJS3tUTOFlNIiARkAhIBCQCrRkBqSC0ZurKuUkEJAISAYmARKCeCEgFoZ7AyWqtCQG5DFoTNeVcJAISAe8gICWjd3CUrUgE6o6AXH11x0zWkAhIBGgs0dFY/UiSSgSOikDbY8K2N2PJ/hIBiUDLQ0BKqpZHMzliiYBEQCIgEZAI+BwBqSD4HGIvdNAWqNQW5ugFVpBNSASkKU7yQGMhIMVyYyEt+5EISAQkAhIBiUALQuD/AU76JEkoaQkVAAAAAElFTkSuQmCC;" parent="WIyWlLk6GJQsqaUBKTNV-1" vertex="1">
          <mxGeometry x="660" y="1560" width="932.74" height="400" as="geometry" />
        </mxCell>
        <UserObject label="watch?v=wHUOeXbZCYA" link="https://www.youtube.com/watch?v=wHUOeXbZCYA" id="3x0Ic-4T67xjW6-SUjAH-78">
          <mxCell style="fontColor=#0000EE;fontStyle=4;rounded=1;overflow=hidden;spacing=10;dashed=1;fontSize=12;fillColor=none;gradientColor=#ffffff;" parent="WIyWlLk6GJQsqaUBKTNV-1" vertex="1">
            <mxGeometry x="75" y="1940" width="195" height="40" as="geometry" />
          </mxCell>
        </UserObject>
        <UserObject label="watch?v=Mm1XmTc63hg" link="https://www.youtube.com/watch?v=Mm1XmTc63hg" id="3x0Ic-4T67xjW6-SUjAH-79">
          <mxCell style="fontColor=#0000EE;fontStyle=4;rounded=1;overflow=hidden;spacing=10;dashed=1;fontSize=12;fillColor=none;gradientColor=#ffffff;" parent="WIyWlLk6GJQsqaUBKTNV-1" vertex="1">
            <mxGeometry x="330" y="1940" width="170" height="40" as="geometry" />
          </mxCell>
        </UserObject>
        <mxCell id="3x0Ic-4T67xjW6-SUjAH-80" value="Refer these 2 videos for transactions." style="text;html=1;align=center;verticalAlign=middle;resizable=0;points=[];autosize=1;strokeColor=none;fontSize=12;" parent="WIyWlLk6GJQsqaUBKTNV-1" vertex="1">
          <mxGeometry x="70" y="1920" width="210" height="20" as="geometry" />
        </mxCell>
        <mxCell id="Vi1YeS1BsRqSzTxvJzDd-0" value="" style="endArrow=classic;html=1;" edge="1" parent="WIyWlLk6GJQsqaUBKTNV-1">
          <mxGeometry width="50" height="50" relative="1" as="geometry">
            <mxPoint x="630" y="430" as="sourcePoint" />
            <mxPoint x="820" y="340" as="targetPoint" />
            <Array as="points">
              <mxPoint x="660" y="400" />
            </Array>
          </mxGeometry>
        </mxCell>
        <mxCell id="Vi1YeS1BsRqSzTxvJzDd-1" value="Or schema defination know or not&lt;br&gt;If known than SQL. If schema defination is not known then NoSql" style="text;html=1;align=center;verticalAlign=middle;resizable=0;points=[];autosize=1;strokeColor=none;" vertex="1" parent="WIyWlLk6GJQsqaUBKTNV-1">
          <mxGeometry x="720" y="310" width="360" height="30" as="geometry" />
        </mxCell>
        <mxCell id="Vi1YeS1BsRqSzTxvJzDd-2" value="Or" style="text;html=1;align=center;verticalAlign=middle;resizable=0;points=[];autosize=1;strokeColor=none;" vertex="1" parent="WIyWlLk6GJQsqaUBKTNV-1">
          <mxGeometry x="675" y="370" width="30" height="20" as="geometry" />
        </mxCell>
      </root>
    </mxGraphModel>
  </diagram>
</mxfile>
